<ttFont>
          <CharString index="0">
            rmoveto
            -53 -65 -34 -55 -45 hvcurveto
            23 68 callgsubr
            34 24 24 hhcurveto
            9 4 -3 -6 -4 -1 -6 -4 -9 hvcurveto
            -145 -356 rlineto
            -11 -26 -4 -22 -17 vvcurveto
            -38 26 -18 39 50 75 48 79 62 50 callgsubr
            -64 -65 -21 -16 -19 hhcurveto
            -12 -8 8 11 4 1 4 2 5 hvcurveto
            143 344 rlineto
            10 24 6 23 19 vvcurveto
            32 -27 17 -38 vhcurveto
            return
          </CharString>
          <CharString index="1">
            398 -15 callgsubr
            -177 -221 -231 -184 -86 48 -49 82 85 86 52 103 82 hvcurveto
            -22 14 rlineto
            -23 callgsubr
            -39 -19 21 46 46 19 60 38 71 hvcurveto
            200 35 140 83 84 vvcurveto
            43 -37 26 -59 vhcurveto
            -190 -179 43 callsubr
            return
          </CharString>
          <CharString index="2">
            304 -10 rmoveto
            250 247 269 272 158 -84 91 -146 -248 -248 -272 -272 -156 84 -90 145 hvcurveto
            15 47 rmoveto
            -87 -41 56 117 257 191 269 183 84 41 -56 -115 -260 -188 -268 -183 hvcurveto
            return
          </CharString>
          <CharString index="3">
            234 -10 rmoveto
            340 457 -59 -457 rlineto
            59 hlineto
            476 641 56 75 28 22 85 14 rlinecurve
            14 28 rlineto
            -269 hlineto
            -13 -28 59 -8 25 -12 1 -21 rlinecurve
            -18 -7 -13 -27 -37 vhcurveto
            -364 -499 73 531 9 62 33 14 75 1 rlinecurve
            14 28 rlineto
            -278 hlineto
            -14 -28 41 -4 13 -8 1 -35 rlinecurve
            -5 0 -6 -1 -6 vhcurveto
            -20 -152 -286 -392 73 531 8 62 26 14 63 1 rlinecurve
            14 28 rlineto
            -288 hlineto
            -14 -28 62 -4 22 -8 1 -35 rlinecurve
            -5 0 -6 -1 -6 vhcurveto
            -89 -688 rlineto
            return
          </CharString>
          <CharString index="4">
            161 -10 -101 callsubr
            return
          </CharString>
          <CharString index="5">
            392 hmoveto
            10 23 -98 19 135 321 269 275 86 87 31 17 83 5 rlinecurve
            13 23 rlineto
            -276 hlineto
            -9 -23 rlineto
            57 26 -11 -20 -13 -11 -17 -22 -22 hvcurveto
            -269 -270 -30 246 rlineto
            -2 14 -1 13 10 vvcurveto
            54 22 14 56 2 vhcurveto
            -8 callgsubr
            -282 hlineto
            -28 callgsubr
            70 10 -16 -67 10 hvcurveto
            49 -324 -124 -298 -97 -23 callsubr
            return
          </CharString>
          <CharString index="6">
            rmoveto
            165 189 206 180 101 -54 63 -95 -166 -187 -207 -178 -102 53 -63 95 hvcurveto
            217 515 rmoveto
            34 14 -23 -45 -148 -177 -264 -100 -32 -13 25 48 156 168 251 106 hvcurveto
            return
          </CharString>
          <CharString index="7">
            vstem
            137 320 rmoveto
            -29 -68 -14 -57 -45 vvcurveto
            -104 75 -56 141 122 109 46 194 82 vhcurveto
            211 498 95 19 9 23 rlineto
            -221 hlineto
            -11 -23 84 -19 -203 -469 rlineto
            -169 -73 -67 -53 -107 hhcurveto
            -97 -47 35 72 35 11 48 18 42 hvcurveto
            191 458 96 20 -8 callgsubr
            -285 hlineto
            -9 -23 82 -19 rlineto
            return
          </CharString>
          <CharString index="8">
            rmoveto
            -29 -21 -9 -20 -18 hvcurveto
            -171 -188 19 -12 183 141 70 -141 23 12 -16 188 rlineto
            19 -2 -9 10 -29 hhcurveto
            endchar
          </CharString>
          <CharString index="9">
            34 -24 -22 13 -37 hhcurveto
            -242 -515 rmoveto
            -27 -10 18 40 145 190 280 100 26 20 -19 -31 -19 -2 -21 -20 -46 hvcurveto
            -189 -81 -128 -158 -68 hhcurveto
            return
          </CharString>
          <CharString index="10">
            347 354 rmoveto
            117 -354 rlineto
            201 hlineto
            7 23 -108 19 -114 317 rlineto
            163 24 104 93 131 vvcurveto
            105 -72 58 -155 vhcurveto
            -240 hlineto
            -9 -23 78 -19 -286 -686 -88 -19 -9 -23 rlineto
            316 hlineto
            10 23 -119 19 127 312 rlineto
            19 44 rmoveto
            140 331 rlineto
            61 hlineto
            82 44 -43 -78 -114 -107 -96 -127 hvcurveto
            return
          </CharString>
          <CharString index="11">
            498 -10 rmoveto
            58 hlineto
            307 738 2 callgsubr
            -228 -41 callgsubr
            83 -19 -231 -557 rlineto
            -4 hlineto
            -124 599 rlineto
            -212 -25 callgsubr
            rlineto
            return
          </CharString>
          <CharString index="12">
            -79 callsubr
            78 43 45 53 51 vvcurveto
            36 -18 20 -32 -45 -21 -24 -37 -24 10 -15 19 -5 vhcurveto
            endchar
          </CharString>
          <CharString index="13">
            35 61 callsubr
            289 hlineto
            10 23 -82 19 285 686 2 callgsubr
            -290 -41 callgsubr
            83 -19 rlineto
            return
          </CharString>
          <CharString index="14">
            rmoveto
            152 44 rlineto
            52 15 16 19 23 vvcurveto
            25 -21 18 -22 -16 -13 -5 -11 -15 vhcurveto
            -144 -107 rlineto
            endchar
          </CharString>
          <CharString index="15">
            -57 -51 -43 -33 -23 hhcurveto
            -8 -4 4 10 11 8 23 12 24 hvcurveto
            117 239 rlineto
            17 34 8 29 29 vvcurveto
            57 -31 30 -60 -74 -65 -46 -113 -86 vhcurveto
            -4 2 rlineto
            return
          </CharString>
          <CharString index="16">
            rmoveto
            25 15 10 17 24 hvcurveto
            132 96 -12 17 -165 -68 -91 68 -26 -17 54 -96 rlineto
            -19 11 10 -8 23 hhcurveto
            endchar
          </CharString>
          <CharString index="17">
            -15 callgsubr
            -64 -74 -44 -70 -51 hvcurveto
            20 -16 rlineto
            51 41 42 34 23 hhcurveto
            10 4 -6 -9 -6 -4 -11 -7 -17 hvcurveto
            -192 -446 rlineto
            97 hlineto
            93 194 rlineto
            return
          </CharString>
          <CharString index="18">
            47 42 -39 47 hhcurveto
            49 51 49 69 23 hvcurveto
            -24 hlineto
            -25 -13 -21 -13 -28 hhcurveto
            return
          </CharString>
          <CharString index="19">
            -9 callgsubr
            347 -20 89 callgsubr
            161 64 100 91 -79 79 hintmask 1110011101110000
            -50 callsubr
            hintmask 1110011011101000
            -89 callgsubr
            hintmask 1100111101110000
            -77 callsubr
            hintmask 1110011101110000
            -72 callgsubr
            hintmask 1101011101110000
            -39 callgsubr
            return
          </CharString>
          <CharString index="20">
            rmoveto
            140 148 181 168 77 -33 39 -68 -141 -140 -175 -175 -79 29 -36 65 hvcurveto
            27 36 rmoveto
            -23 -10 21 43 136 102 193 70 24 11 -21 -44 -136 -103 -192 -71 hvcurveto
            return
          </CharString>
          <CharString index="21">
            217 805 rmoveto
            76 -12 -137 -327 rlineto
            -140 -334 -17 -44 -36 vvcurveto
            -38 19 -24 32 54 76 45 82 67 vhcurveto
            -22 12 rlineto
            -68 -64 -25 -12 -16 hhcurveto
            -10 -11 7 11 23 17 39 76 176 hvcurveto
            221 515 rlineto
            -198 hlineto
            return
          </CharString>
          <CharString index="22">
            -7 -22 -3 -18 -16 vvcurveto
            -61 44 -22 46 43 78 15 124 83 vhcurveto
            -40 hlineto
            return
          </CharString>
          <CharString index="23">
            232 218 rmoveto
            -38 -22 30 52 93 84 110 66 39 15 -21 -46 -110 -71 -108 -73 hvcurveto
            296 322 rmoveto
            -32 -34 -20 -41 -35 hvcurveto
            41 -33 -43 20 -54 hhcurveto
            -114 -98 -88 -100 -53 26 -45 48 -34 hvcurveto
            -1 -4 rlineto
            return
          </CharString>
          <CharString index="24">
            43 -39 -47 19 -65 hhcurveto
            -146 -103 -95 -133 hvcurveto
            -180 189 -34 -161 vvcurveto
            -91 -62 -56 -102 -92 -45 45 90 28 4 32 9 36 vhcurveto
            -29 hlineto
            return
          </CharString>
          <CharString index="25">
            -33 5 15 -15 26 hhcurveto
            26 18 16 24 50 -52 41 -69 -66 -84 -33 -56 -72 hvcurveto
            74 callgsubr
            86 87 92 54 102 87 vhcurveto
            -22 13 rlineto
            -89 -87 -73 -45 -56 hhcurveto
            -43 -16 24 50 hvcurveto
            return
          </CharString>
          <CharString index="26">
            rlineto
            178 hlineto
            15 -43 4 -47 -45 vvcurveto
            -15 0 -16 -1 -14 vhcurveto
            24 hlineto
            54 220 rlineto
            -626 hlineto
            -128 -220 rlineto
            24 hlineto
            43 57 60 66 66 57 rrcurveto
            178 hlineto
            return
          </CharString>
          <CharString index="27">
            -54 28 58 -28 85 hhcurveto
            159 119 98 131 67 -25 47 -90 105 hvcurveto
            -65 74 -12 24 55 vvcurveto
            96 52 53 96 79 43 -37 -66 -24 -6 -38 -7 -25 vhcurveto
            30 hlineto
            return
          </CharString>
          <CharString index="28">
            rmoveto
            19 -4 4 -1 -7 vvcurveto
            -16 -33 -31 -41 -20 vhcurveto
            15 -19 rlineto
            return
          </CharString>
          <CharString index="29">
            rmoveto
            -76 callgsubr
            return
          </CharString>
          <CharString index="30">
            67 104 10 17 38 79 rrcurveto
            -157 hlineto
            -133 -55 -37 -76 -49 29 -30 42 30 19 15 25 24 -20 16 -21 -23 -17 -16 -18 -9 6 -8 6 -7 hvcurveto
            -3 -4 rlineto
            -10 8 -9 13 17 vvcurveto
            return
          </CharString>
          <CharString index="31">
            -41 callgsubr
            78 -5 callgsubr
            -92 -19 return
          </CharString>
          <CharString index="32">
            rmoveto
            79 130 204 51 121 vvcurveto
            51 -37 29 -63 -76 -62 -41 -62 -45 vhcurveto
            24 -20 rlineto
            51 34 50 32 41 hhcurveto
            31 14 -17 -27 -106 -219 -81 -49 -188 hvcurveto
            259 hlineto
            49 120 -21 7 -9 -18 -10 -15 -16 -17 rlinecurve
            endchar
          </CharString>
          <CharString index="33">
            19 -59 hhcurveto
            -77 callgsubr
            return
          </CharString>
          <CharString index="34">
            38 -44 -50 17 -70 hhcurveto
            -273 -272 -271 -272 -157 93 -90 162 83 95 24 45 81 hvcurveto
            118 285 2 callgsubr
            -284 -41 callgsubr
            83 -19 rlineto
            return
          </CharString>
          <CharString index="35">
            21 -35 7 -20 -29 vvcurveto
            -35 -28 -31 -47 -49 -23 35 40 67 39 23 53 30 vhcurveto
            42 50 rmoveto
            -32 40 -10 25 26 vvcurveto
            33 29 23 36 vhcurveto
            return
          </CharString>
          <CharString index="36">
            49 callgsubr
            -48 17 -24 44 56 62 46 88 65 72 callsubr
            -55 -30 -27 -20 hhcurveto
            -10 -8 5 14 8 2 9 9 24 hvcurveto
            268 711 rlineto
            -191 hlineto
            -78 callgsubr
            return
          </CharString>
          <CharString index="37">
            486 rmoveto
            -114 -82 -71 -94 hvcurveto
            -151 195 -78 -124 vvcurveto
            -54 -39 -39 -54 -44 -30 25 59 -23 vhcurveto
            hintmask 0111101011000000
            35 -14 -18 15 -25 hhcurveto
            -28 -19 -18 -27 -61 110 -63 101 106 81 69 88 71 -52 58 -51 58 hvcurveto
            -1 6 7 0 7 hhcurveto
            106 82 69 88 hvcurveto
            hintmask 1011010101000000
            135 -193 87 139 vvcurveto
            57 37 37 58 31 21 -16 -48 18 vhcurveto
            hintmask 1011100101000000
            -34 13 17 -17 26 hhcurveto
            28 19 18 26 53 -92 53 -90 -111 -81 -72 -94 -71 44 -55 47 -52 hvcurveto
            105 -174 rmoveto
            -54 -40 -40 -55 -20 -16 5 11 -15 vhcurveto
            hintmask 1011101011000000
            -28 38 -20 40 47 vvcurveto
            56 38 36 57 11 10 -1 -3 8 vhcurveto
            38 -43 32 -43 -49 vvcurveto
            endchar
          </CharString>
          <CharString index="38">
            486 805 rmoveto
            77 -12 -116 -300 rlineto
            34 -25 -22 13 -38 hhcurveto
            -167 -192 -234 -186 -87 37 -43 72 72 55 44 118 80 hvcurveto
            2 -3 rlineto
            return
          </CharString>
          <CharString index="39">
            -45 -47 35 -46 hhcurveto
            -49 -51 -47 -67 -19 hvcurveto
            endchar
          </CharString>
          <CharString index="40">
            hstemhm
            hintmask 11110100
            868 hmoveto
            -106 callgsubr
            hintmask 11101100
            29 -50 17 -59 12 -71 rrcurveto
            27 hlineto
            -8 220 rlineto
            -522 -41 callgsubr
            77 -19 -531 -589 -67 -74 -30 -23 -96 -14 rlinecurve
            -14 -28 rlineto
            281 hlineto
            13 28 rlineto
            -58 8 -25 12 21 vvcurveto
            17 11 16 32 35 vhcurveto
            135 149 rlineto
            209 hlineto
            -99 -239 -92 -19 -12 -28 rlineto
            218 323 rmoveto
            -191 hlineto
            344 379 rlineto
            4 hlineto
            return
          </CharString>
          <CharString index="41">
            335 rmoveto
            93 hlineto
            -36 -91 -26 -61 -22 -45 rrcurveto
            5 -20 -29 3 -28 hhcurveto
            -62 -42 -36 -53 -42 29 -25 47 49 50 27 52 50 hvcurveto
            -54 83 64 -25 55 hhcurveto
            88 63 66 112 19 hvcurveto
            -35 hlineto
            hintmask 01110111
            -53 -27 -41 -29 -58 hhcurveto
            -47 -72 16 16 -52 hvcurveto
            35 48 34 65 47 104 rrcurveto
            183 hlineto
            16 44 rlineto
            -180 hlineto
            76 199 rlineto
            139 53 33 27 40 hhcurveto
            26 10 -17 -58 hvcurveto
            hintmask 10111011
            -43 27 -24 33 34 23 25 31 71 -63 51 -82 -111 -73 -75 -144 -62 vhcurveto
            -79 -182 rlineto
            -93 hlineto
            -31 -285 rmoveto
            -45 -29 -19 -16 -26 hhcurveto
            -23 -14 13 20 25 21 16 32 17 19 -4 -9 22 hvcurveto
            endchar
          </CharString>
          <CharString index="42">
            521 159 rmoveto
            -87 -36 -52 -38 -85 hhcurveto
            -110 -54 66 133 260 207 243 221 87 42 -37 -78 -26 -5 -29 -9 -36 hvcurveto
            30 hlineto
            return
          </CharString>
          <CharString index="43">
            93 hlineto
            91 194 rlineto
            177 83 119 134 68 hhcurveto
            19 10 -10 -18 -14 -5 -17 -9 -19 hvcurveto
            -134 -269 rlineto
            -23 -46 -12 -37 -27 vvcurveto
            return
          </CharString>
          <CharString index="44">
            20 -23 -17 12 -23 hhcurveto
            -30 -20 -19 -29 -24 13 -18 24 -7 hvcurveto
            161 -47 rlineto
            endchar
          </CharString>
          <CharString index="45">
            35 -25 -22 12 -37 hhcurveto
            -162 -208 -235 -184 -81 42 -50 68 67 61 48 114 78 hvcurveto
            6 -3 rlineto
            -1 -6 0 -6 -12 vvcurveto
            -87 46 -48 81 85 86 53 102 82 vhcurveto
            -22 14 rlineto
            -23 callgsubr
            -39 -19 21 46 46 19 60 38 71 hvcurveto
            200 35 140 83 84 vvcurveto
            42 -37 27 -56 vhcurveto
            -592 -515 rmoveto
            -23 -12 18 38 149 189 278 102 28 17 -21 -35 -20 -7 -24 -15 -36 hvcurveto
            -182 -76 -133 -165 -70 hhcurveto
            399 336 rmoveto
            86 46 73 62 55 hhcurveto
            22 10 -10 -20 -69 -113 -84 -125 -24 hvcurveto
            return
          </CharString>
          <CharString index="46">
            210 rmoveto
            167 hlineto
            -70 -168 -97 -23 callsubr
            304 hlineto
            10 23 -98 19 70 168 rlineto
            153 hlineto
            22 44 rlineto
            -156 hlineto
            32 77 rlineto
            160 hlineto
            22 44 rlineto
            -157 hlineto
            258 263 86 87 31 17 83 5 rlinecurve
            13 23 rlineto
            -276 hlineto
            -9 -23 rlineto
            57 26 -11 -20 -13 -11 -17 -22 -22 hvcurveto
            -269 -270 -30 246 rlineto
            -2 14 -1 13 10 vvcurveto
            54 22 14 56 2 vhcurveto
            -8 callgsubr
            -282 hlineto
            -28 callgsubr
            70 10 -16 -67 10 hvcurveto
            43 -289 rlineto
            -135 hlineto
            -22 -44 rlineto
            159 hlineto
            -32 -77 rlineto
            -163 hlineto
            endchar
          </CharString>
          <CharString index="47">
            441 rmoveto
            63 hlineto
            -10 -25 -9 -26 -7 -26 rrcurveto
            -73 hlineto
            -22 -44 rlineto
            85 hlineto
            -9 -45 -5 -46 -46 vvcurveto
            -133 71 -60 94 109 120 75 78 34 -14 12 -26 -32 -25 -23 -45 -24 vhcurveto
            hintmask 10110111
            -58 -31 -38 -32 -44 hhcurveto
            -40 -18 34 74 56 9 62 17 63 hvcurveto
            230 hlineto
            22 44 rlineto
            -239 hlineto
            8 26 9 26 10 25 rrcurveto
            248 hlineto
            22 44 rlineto
            -251 hlineto
            141 64 89 112 71 hhcurveto
            38 13 -17 -58 hvcurveto
            hintmask 10111011
            -43 27 -24 33 34 23 25 31 71 -67 57 -88 -138 -137 -126 -169 -80 vhcurveto
            -60 hlineto
            endchar
          </CharString>
          <CharString index="48">
            68 433 rmoveto
            37 28 21 18 18 hhcurveto
            35 13 -75 -222 -273 -12 -18 -45 -54 hvcurveto
            -33 -27 -33 -19 -25 return
          </CharString>
          <CharString index="49">
            160 0 42 334 44 310 40 hstem
            674 110 vstem
            -65 hmoveto
            310 hlineto
            107 85 15 32 71 hvcurveto
            166 74 110 170 179 vvcurveto
            183 -127 117 -198 vhcurveto
            -206 -41 callgsubr
            78 -19 -128 -308 rlineto
            -97 hlineto
            -18 -44 rlineto
            97 hlineto
            -138 -334 51 callgsubr
            102 247 rlineto
            150 hlineto
            19 44 rlineto
            -151 hlineto
            129 310 41 callsubr
          </CharString>
          <CharString index="50">
            -28 callgsubr
            227 hlineto
            10 23 -82 19 269 648 rlineto
            4 hlineto
            return
          </CharString>
          <CharString index="51">
            7 callgsubr
            -44 234 -200 -20 hstemhm
            63 110 hintmask 01110010
            -3 callgsubr
            hintmask 10110010
            -71 callgsubr
            hintmask 10100110
            13 callgsubr
            hintmask 10110010
            -51 callsubr
            hintmask 01101010
            return
          </CharString>
          <CharString index="52">
            8 -13 rlineto
            8 12 17 4 19 hhcurveto
            29 13 -11 -23 -41 -39 -29 -50 -21 -16 5 11 -15 hvcurveto
            endchar
          </CharString>
          <CharString index="53">
            -61 9 62 -37 hhcurveto
            -16 -13 -12 -21 -35 40 -27 59 113 99 82 92 49 -34 34 -46 8 hvcurveto
            return
          </CharString>
          <CharString index="54">
            rmoveto
            138 119 rlineto
            27 24 12 17 18 vvcurveto
            27 -24 21 -27 -23 -18 -14 -30 -15 vhcurveto
            -88 -171 rlineto
            178 -11 rmoveto
            143 119 rlineto
            28 23 11 18 18 vvcurveto
            27 -24 21 -27 -23 -17 -15 -29 -16 vhcurveto
            -93 -171 rlineto
            endchar
          </CharString>
          <CharString index="55">
            686 rmoveto
            -45 hlineto
            -61 -148 -61 -7 -72 -32 -62 -48 rlinecurve
            74 callgsubr
            89 vhcurveto
            -58 -140 rlineto
            45 hlineto
            61 146 71 16 74 51 70 83 rlinecurve
            -22 13 -69 -71 -60 -42 -50 -15 rlinecurve
            198 475 14 -6 8 -15 5 -28 rlinecurve
            -33 5 15 -15 26 hhcurveto
            26 18 16 24 45 -44 38 -59 7 hvcurveto
            -308 -440 rmoveto
            141 133 228 115 36 vhcurveto
            -199 -479 rlineto
            -36 4 -13 24 46 vvcurveto
            endchar
          </CharString>
          <CharString index="56">
            27 -36 -57 16 -64 hhcurveto
            -284 -285 -284 -283 -148 78 -75 157 90 69 25 62 79 hvcurveto
            4 hlineto
            return
          </CharString>
          <CharString index="57">
            532 -10 rmoveto
            99 95 78 140 73 hvcurveto
            52 100 35 115 62 vvcurveto
            36 -18 19 -25 -30 -18 -23 -37 vhcurveto
            return
          </CharString>
          <CharString index="58">
            rmoveto
            29 71 rlineto
            -287 hlineto
            -28 -71 rlineto
            endchar
          </CharString>
          <CharString index="59">
            -180 rmoveto
            -16 -31 -16 -5 -18 hhcurveto
            -25 -12 9 20 return
          </CharString>
          <CharString index="60">
            -61 -83 33 -107 hhcurveto
            4 vlineto
            468 422 -21 19 rlineto
            return
          </CharString>
          <CharString index="61">
            -256 35 -35 124 return
          </CharString>
          <CharString index="62">
            510 747 rmoveto
            -8 callgsubr
            -270 hlineto
            -9 -23 78 -19 -286 -686 -88 -19 -9 -23 rlineto
            316 hlineto
            10 23 -119 19 123 296 69 54 139 -392 rlineto
            181 hlineto
            7 23 -88 19 -157 416 290 231 44 35 30 14 59 4 rlinecurve
            14 28 rlineto
            -259 hlineto
            -9 -23 rlineto
            48 -2 21 -15 -20 vvcurveto
            -14 -15 -17 -30 -24 vhcurveto
            -315 -248 134 322 rlineto
            return
          </CharString>
          <CharString index="63">
            359 rmoveto
            12 25 39 8 29 hhcurveto
            64 35 -45 -81 -124 -85 -95 -112 hvcurveto
            hintmask 01101000
            -115 41 97 -71 hhcurveto
            -32 -23 -21 -29 -52 72 -39 95 183 161 139 156 81 -44 61 -68 13 hvcurveto
            hintmask 10100100
            125 76 55 68 76 vvcurveto
            75 -55 45 -91 -98 -90 -56 -110 -78 vhcurveto
            29 -21 rlineto
            90 66 72 50 64 hhcurveto
            48 32 -33 -50 -96 -116 -107 -168 -57 hvcurveto
            endchar
          </CharString>
          <CharString index="64">
            vvcurveto
            -34 24 -18 43 45 47 20 38 45 vhcurveto
            return
          </CharString>
          <CharString index="65">
            -9 callsubr
            -99 callgsubr
            return
          </CharString>
          <CharString index="66">
            -55 16 56 -40 hhcurveto
            -22 -13 -14 -21 -32 37 -21 56 113 92 77 92 75 -44 51 -78 -15 -19 -2 -2 -11 hvcurveto
            29 82 rlineto
            133 hlineto
            32 99 -23 4 -15 -24 rlineto
            -139 hlineto
            endchar
          </CharString>
          <CharString index="67">
            -55 99 hhcurveto
            27 26 4 8 23 hvcurveto
            -14 -33 -29 -34 -44 -37 -46 -8 -44 -17 -34 -22 8 -20 rcurveline
            23 16 35 12 47 9 -310 -726 rcurveline
            1 callsubr
            15 19 -1 16 hhcurveto
            198 184 160 172 111 -77 72 -136 15 hvcurveto
            54 143 -4 callsubr
            return
          </CharString>
          <CharString index="68">
            2 callgsubr
            -290 -41 callgsubr
            83 -19 -315 -755 rlineto
            -145 -61 -27 -44 -43 return
          </CharString>
          <CharString index="69">
            -60 28 89 -65 hhcurveto
            -26 -25 -18 -32 -43 46 -36 73 109 104 87 142 59 hvcurveto
            return
          </CharString>
          <CharString index="70">
            780 rmoveto
            -295 -93 -212 -246 -270 vvcurveto
            -119 49 -62 95 162 170 180 176 101 -55 52 -107 -50 -45 -15 -21 -34 vhcurveto
            -3 3 76 122 134 118 125 48 rlinecurve
            -349 -721 rmoveto
            -48 -18 33 77 170 85 142 102 50 25 -33 -66 -141 -102 -182 -94 hvcurveto
            endchar
          </CharString>
          <CharString index="71">
            -56 43 -52 97 76 76 45 97 27 -11 35 -27 33 vhcurveto
            -19 23 rlineto
            return
          </CharString>
          <CharString index="72">
            28 33 30 15 30 hhcurveto
            25 13 -13 -27 -89 -117 -91 -133 -8 hvcurveto
            34 89 36 53 49 43 rrcurveto
            endchar
          </CharString>
          <CharString index="73">
            32 -6 3 -2 -13 vvcurveto
            -34 -51 -68 -58 -42 vhcurveto
            18 -21 rlineto
            102 70 53 80 81 vvcurveto
            59 -29 33 -51 vhcurveto
            return
          </CharString>
          <CharString index="74">
            -30 -9 34 -14 -21 540 -20 30 -20 return
          </CharString>
          <CharString index="75">
            hvcurveto
            -29 callsubr
            return
          </CharString>
          <CharString index="76">
            rmoveto
            24 11 23 14 29 hhcurveto
            return
          </CharString>
          <CharString index="77">
            -52 -26 24 41 -1 hvcurveto
            endchar
          </CharString>
          <CharString index="78">
            -31 -70 -73 callgsubr
            return
          </CharString>
          <CharString index="79">
            rmoveto
            -208 -60 -137 -153 -170 vvcurveto
            -86 38 -46 71 114 116 119 115 65 -37 36 -67 -30 -26 -7 -13 -22 vhcurveto
            -3 2 49 75 76 63 78 29 rlinecurve
            -235 -448 rmoveto
            -28 -13 22 49 101 51 83 62 32 16 -22 -43 -90 -63 -100 -57 hvcurveto
            endchar
          </CharString>
          <CharString index="80">
            91 rmoveto
            138 269 368 72 219 vvcurveto
            84 -54 45 -103 -122 -93 -59 -110 -83 vhcurveto
            29 -20 rlineto
            87 65 91 55 83 hhcurveto
            47 26 -30 -47 -183 -389 -145 -89 -328 hvcurveto
            425 hlineto
            82 204 rlineto
            -32 hlineto
            -22 -43 -25 -31 -39 -39 rrcurveto
            endchar
          </CharString>
          <CharString index="81">
            530 rmoveto
            24 60 rlineto
            146 58 62 67 75 hhcurveto
            35 24 -14 -21 hvcurveto
            -16 -12 -9 -23 vvcurveto
            return
          </CharString>
          <CharString index="82">
            rmoveto
            187 55 123 137 152 vvcurveto
            78 -34 41 -63 -103 -105 -107 -103 -59 34 -31 60 26 24 6 11 20 vhcurveto
            3 -2 -45 -67 -67 -56 -71 -27 rlinecurve
            211 402 rmoveto
            28 12 -19 -44 -91 -47 -75 -57 -31 -15 20 39 81 58 89 52 hvcurveto
            endchar
          </CharString>
          <CharString index="83">
            115 94 86 106 27 -4 20 -15 31 hvcurveto
            14 7 15 10 14 hhcurveto
            return
          </CharString>
          <CharString index="84">
            -19 -28 callgsubr
            return
          </CharString>
          <CharString index="85">
            -10 rmoveto
            211 227 307 285 132 -50 66 -100 -212 -212 -298 -299 -133 42 -60 94 hvcurveto
            24 41 rmoveto
            -40 -18 34 74 244 183 355 126 40 19 -35 -75 -244 -183 -353 -127 hvcurveto
            endchar
          </CharString>
          <CharString index="86">
            -29 25 38 -16 48 hhcurveto
            217 515 rmoveto
            31 15 -19 -38 2 hvcurveto
            -318 -306 rlineto
            155 26 147 208 97 hhcurveto
            -229 -480 rmoveto
            -30 -13 21 41 -2 hvcurveto
            317 304 rlineto
            -151 -28 -154 -215 -90 hhcurveto
            endchar
          </CharString>
          <CharString index="87">
            rmoveto
            7 14 21 4 15 hhcurveto
            33 18 -24 -46 -70 -44 -52 -60 hvcurveto
            return
          </CharString>
          <CharString index="88">
            rlineto
            -139 -331 -18 -49 -35 vvcurveto
            -39 20 -22 34 53 79 52 75 62 vhcurveto
            -22 12 rlineto
            -58 -57 -28 -22 -20 hhcurveto
            -13 -8 8 13 16 13 34 80 185 hvcurveto
            220 512 -3 3 -117 32 callgsubr
            return
          </CharString>
          <CharString index="89">
            26 -20 -16 callgsubr
            -189 -20 rmoveto
            153 42 rlineto
            53 14 16 20 23 vvcurveto
            return
          </CharString>
          <CharString index="90">
            513 rmoveto
            -37 27 -31 41 43 27 31 37 40 -27 30 -43 -41 -27 -30 -40 vhcurveto
            -343 vmoveto
            -37 27 -31 41 43 27 31 37 40 -27 30 -43 -41 -27 -30 -40 vhcurveto
            282 145 29 callsubr
          </CharString>
          <CharString index="91">
            -39 -32 -31 -37 -32 23 -25 37 40 34 32 35 return
          </CharString>
          <CharString index="92">
            619 rmoveto
            36 hlineto
            60 61 rlineto
            279 hlineto
            -316 -441 -81 -131 -65 vvcurveto
            -34 18 -19 33 35 16 18 64 22 vhcurveto
            68 200 106 189 201 284 -10 25 rcurveline
            -346 50 -27 hlineto
            endchar
          </CharString>
          <CharString index="93">
            -44 -10 35 -35 59 459 32 -10 -20 return
          </CharString>
          <CharString index="94">
            hmoveto
            105 hlineto
            73 221 rlineto
            100 hlineto
            26 77 rlineto
            -100 hlineto
            167 472 rlineto
            -102 hlineto
            -454 -501 -15 -48 rlineto
            278 hlineto
            -184 77 rmoveto
            340 377 rlineto
            4 hlineto
            -133 -377 rlineto
            endchar
          </CharString>
          <CharString index="95">
            hintmask 10101100
            -101 callgsubr
            return
          </CharString>
          <CharString index="96">
            rmoveto
            31 hlineto
            42 43 rlineto
            162 hlineto
            -204 -276 -32 -56 -40 vvcurveto
            -28 15 -16 28 26 17 9 38 14 vhcurveto
            48 128 60 126 124 185 -7 16 rcurveline
            -215 33 -25 hlineto
            endchar
          </CharString>
          <CharString index="97">
            40 callsubr
            119 364 rmoveto
            hintmask 11010000
            11 callgsubr
          </CharString>
          <CharString index="98">
            -22 -44 -9 -32 -24 vvcurveto
            return
          </CharString>
          <CharString index="99">
            460 16 callsubr
            -283 -652 rmoveto
            165 189 206 180 return
          </CharString>
          <CharString index="100">
            86 220 rlineto
            -32 hlineto
            -46 -52 rlineto
            return
          </CharString>
          <CharString index="101">
            -240 -97 -83 -124 -62 hhcurveto
            return
          </CharString>
          <CharString index="102">
            587 rmoveto
            68 53 53 68 67 -54 55 -67 -68 -53 -54 -68 -68 53 -53 68 hvcurveto
            -80 121 rmoveto
            48 34 34 46 48 32 -34 -48 -46 -32 -34 -48 -46 -34 34 46 vhcurveto
            endchar
          </CharString>
          <CharString index="103">
            rlineto
            15 19 7 20 19 vvcurveto
            25 -12 14 -22 -28 return
          </CharString>
          <CharString index="104">
            rmoveto
            9 callsubr
            return
          </CharString>
          <CharString index="105">
            -41 -27 -25 -41 -32 17 -19 34 -6 hvcurveto
            return
          </CharString>
          <CharString index="106">
            33 18 79 153 108 return
          </CharString>
          <CharString index="107">
            -256 125 121 return
          </CharString>
          <CharString index="108">
            -80 -12 rlineto
            -15 286 18 vlineto
            -102 12 97 233 rlineto
            -2 return
          </CharString>
          <CharString index="109">
            2 callgsubr
            -290 -25 callgsubr
            -10 -23 rlineto
            return
          </CharString>
          <CharString index="110">
            22 callsubr
            vhcurveto
            -38 vlineto
            -4 0 -4 -1 -4 vhcurveto
            -10 -20 -26 7 callsubr
            return
          </CharString>
          <CharString index="111">
            rmoveto
            -170 vlineto
            -149 -187 16 -15 222 185 5 12 -74 186 rlineto
            return
          </CharString>
          <CharString index="112">
            rmoveto
            170 vlineto
            149 187 -16 15 -222 -185 -5 -12 74 -186 rlineto
            return
          </CharString>
          <CharString index="113">
            rmoveto
            12 -18 rlineto
            5 17 23 3 29 hhcurveto
            43 26 -27 -52 -57 -50 -54 -57 hvcurveto
            return
          </CharString>
          <CharString index="114">
            -6 -26 -100 -75 89 -100 hhcurveto
            -62 -38 -35 -57 return
          </CharString>
          <CharString index="115">
            43 -15 31 -34 -33 vvcurveto
            -58 -72 -43 -103 vhcurveto
            return
          </CharString>
          <CharString index="116">
            73 callgsubr
            -11 -18 -9 -19 -9 -20 return
          </CharString>
          <CharString index="117">
            -96 45 107 -70 hhcurveto
            -27 -18 -16 -25 -50 73 -47 92 107 85 64 83 hvcurveto
            101 -126 85 102 vvcurveto
            51 31 35 62 44 4 -18 -42 7 vhcurveto
            return
          </CharString>
          <CharString index="118">
            31 callgsubr
            rrcurveto
            hintmask 1010101110000000
            -31 -70 rlineto
            -236 hlineto
            return
          </CharString>
          <CharString index="119">
            rmoveto
            -105 callgsubr
            return
          </CharString>
          <CharString index="120">
            -115 -104 -85 -145 -64 -32 callsubr
            -6 callsubr
            return
          </CharString>
          <CharString index="121">
            -256 47 callgsubr
            return
          </CharString>
          <CharString index="122">
            -33 25 -24 33 33 24 25 36 60 -70 46 -92 return
          </CharString>
          <CharString index="123">
            631 -97 callgsubr
            return
          </CharString>
          <CharString index="124">
            43 133 rlineto
            67 hlineto
            22 64 rlineto
            -66 hlineto
            110 313 rlineto
            -87 hlineto
            -302 -332 -15 -45 rlineto
            185 hlineto
            return
          </CharString>
          <CharString index="125">
            315 rmoveto
            51 vlineto
            -409 195 rlineto
            -66 vlineto
            337 -154 rlineto
            -4 vlineto
            -337 -156 rlineto
            -60 vlineto
            endchar
          </CharString>
          <CharString index="126">
            -46 -30 -28 -45 -36 19 -21 38 -7 hvcurveto
            endchar
          </CharString>
          <CharString index="127">
            hstemhm
            24 callsubr
            return
          </CharString>
          <CharString index="128">
            -56 callgsubr
            endchar
          </CharString>
          <CharString index="129">
            -4 callsubr
            -16 -21 -38 return
          </CharString>
          <CharString index="130">
            -102 -256 50 -50 100 644 52 return
          </CharString>
          <CharString index="131">
            75 30 callgsubr
            return
          </CharString>
          <CharString index="132">
            -16 -26 -24 -7 -26 hhcurveto
            return
          </CharString>
          <CharString index="133">
            -91 -10 35 480 35 return
          </CharString>
          <CharString index="134">
            rmoveto
            -58 -38 24 51 -18 hvcurveto
            484 484 rlineto
            -10 1 -10 -11 vvcurveto
            -260 -188 -268 -183 vhcurveto
            return
          </CharString>
          <CharString index="135">
            321 rmoveto
            33 callgsubr
            return
          </CharString>
          <CharString index="136">
            rmoveto
            49 -410 -49 vlineto
            endchar
          </CharString>
          <CharString index="137">
            -97 44 -55 87 86 92 54 102 87 vhcurveto
            -22 13 rlineto
            -89 -87 -73 -45 -57 hhcurveto
            -42 -16 25 49 return
          </CharString>
          <CharString index="138">
            44 -40 -58 24 -74 hhcurveto
            -248 -248 -272 -272 -63 13 -52 26 -39 hvcurveto
            -82 -82 rlineto
            return
          </CharString>
          <CharString index="139">
            -65 -46 -113 -84 vhcurveto
            -5 2 return
          </CharString>
          <CharString index="140">
            rmoveto
            -56 -24 -87 -38 -80 vvcurveto
            return
          </CharString>
          <CharString index="141">
            75 23 69 55 70 -16 67 return
          </CharString>
          <CharString index="142">
            -168 210 84 hstem
            363 210 rmoveto
            33 84 rlineto
            -319 hlineto
            -33 -84 rlineto
            endchar
          </CharString>
          <CharString index="143">
            43 callsubr
            endchar
          </CharString>
          <CharString index="144">
            -56 -43 callsubr
            return
          </CharString>
          <CharString index="145">
            99 -49 55 -75 -51 -55 -28 -50 -45 vhcurveto
            -5 hlineto
            return
          </CharString>
          <CharString index="146">
            -226 -21 203 return
          </CharString>
          <CharString index="147">
            137 -65 callgsubr
            return
          </CharString>
          <CharString index="148">
            rlineto
            27 hlineto
            137 79 -86 -149 -286 -202 -167 -233 hvcurveto
            endchar
          </CharString>
          <CharString index="149">
            -21 770 -20 return
          </CharString>
          <CharString index="150">
            rmoveto
            85 45 74 63 28 callgsubr
            return
          </CharString>
          <CharString index="151">
            63 callgsubr
            347 -20 hstemhm
            return
          </CharString>
          <CharString index="152">
            -256 125 152 -21 return
          </CharString>
          <CharString index="153">
            17 24 19 6 37 return
          </CharString>
          <CharString index="154">
            -10 86 callgsubr
            return
          </CharString>
          <CharString index="155">
            rmoveto
            39 32 31 37 33 -24 24 -35 -40 -35 -31 -36 -33 28 -25 35 hvcurveto
            return
          </CharString>
          <CharString index="156">
            68 21 -21 747 23 return
          </CharString>
          <CharString index="157">
            489 rmoveto
            -36 -8 rlineto
            -19 97 19 vlineto
            -35 8 rlineto
            227 4 vlineto
            return
          </CharString>
          <CharString index="158">
            -10 41 -41 199 131 44 77 44 111 184 -42 42 hstemhm
            return
          </CharString>
          <CharString index="159">
            -169 rmoveto
            304 988 rlineto
            -69 hlineto
            -302 -988 rlineto
            endchar
          </CharString>
          <CharString index="160">
            41 27 25 41 32 -17 19 -34 6 hvcurveto
            return
          </CharString>
          <CharString index="161">
            28 -14 12 -34 vhcurveto
            return
          </CharString>
          <CharString index="162">
            89 -258 rlineto
            41 hlineto
            95 241 rlineto
            -210 vlineto
            -36 -8 rlineto
            return
          </CharString>
          <CharString index="163">
            -102 64 rmoveto
            200 222 rlineto
            4 hlineto
            -79 -222 rlineto
            endchar
          </CharString>
          <CharString index="164">
            -129 -21 140 40 710 40 -1 -20 153 -20 hstemhm
            return
          </CharString>
          <CharString index="165">
            -20 20 callsubr
            return
          </CharString>
          <CharString index="166">
            92 21 83 callsubr
            return
          </CharString>
          <CharString index="167">
            hlineto
            -104 62 callgsubr
            return
          </CharString>
          <CharString index="168">
            42 rmoveto
            -97 -23 callsubr
            return
          </CharString>
          <CharString index="169">
            561 -21 290 -20 hstemhm
            return
          </CharString>
          <CharString index="170">
            566 -21 285 -20 hstem
            return
          </CharString>
          <CharString index="171">
            30 25 64 36 -20 hstemhm
            return
          </CharString>
          <CharString index="172">
            92 226 -56 56 151 56 -56 227 hstemhm
            hintmask 10010000
            return
          </CharString>
          <CharString index="173">
            -76 -84 -33 -56 -72 hvcurveto
            -105 -82 -62 -116 -111 vvcurveto
            return
          </CharString>
          <CharString index="174">
            214 143 101 152 111 -85 65 -145 hvcurveto
            return
          </CharString>
          <CharString index="175">
            hlineto
            24 60 rlineto
            return
          </CharString>
          <CharString index="176">
            -53 callgsubr
            hstemhm
            return
          </CharString>
          <CharString index="177">
            -66 -1 52 -45 hhcurveto
            -25 -14 -16 -20 -37 47 -19 63 return
          </CharString>
          <CharString index="178">
            -26 21 -18 26 30 18 19 29 return
          </CharString>
          <CharString index="179">
            vhcurveto
            -20 14 rlineto
            -62 return
          </CharString>
          <CharString index="180">
            -118 34 -34 141 747 -20 hstemhm
            hintmask 10100000
            return
          </CharString>
          <CharString index="181">
            -57 -43 callsubr
            return
          </CharString>
          <CharString index="182">
            hstemhm
            29 93 0 186 return
          </CharString>
          <CharString index="183">
            0 88 229 -20 hstemhm
            return
          </CharString>
          <CharString index="184">
            115 125 return
          </CharString>
          <CharString index="185">
            36 -36 98 148 82 86 88 26 -20 hstemhm
            return
          </CharString>
          <CharString index="186">
            -53 -10 59 -28 -21 505 34 281 -20 return
          </CharString>
          <CharString index="187">
            720 -15 callgsubr
            -54 -61 -24 -44 -56 hvcurveto
            return
          </CharString>
          <CharString index="188">
            -59 -10 -7 callgsubr
            return
          </CharString>
          <CharString index="189">
            32 -32 88 134 73 78 79 24 -20 hstemhm
            return
          </CharString>
          <CharString index="190">
            -21 64 callgsubr
            return
          </CharString>
          <CharString index="191">
            -20 hstemhm
            85 112 105 84 return
          </CharString>
          <CharString index="192">
            hvcurveto
            82 193 rlineto
            91 hlineto
            return
          </CharString>
          <CharString index="193">
            499 111 return
          </CharString>
          <CharString index="194">
            -32 callgsubr
            hintmask 11010100
            return
          </CharString>
          <CharString index="195">
            107 -2 106 -16 104 2 103 hintmask 1011101011000000
            return
          </CharString>
          <CharString index="196">
            -221 -21 232 35 505 -20 hstemhm
            return
          </CharString>
          <CharString index="197">
            -6 callgsubr
            hstemhm
            return
          </CharString>
          <CharString index="198">
            -91 -10 35 -4 -21 505 35 -10 -20 return
          </CharString>
          <CharString index="199">
            -18 3 7 -26 34 hhcurveto
            28 18 17 24 return
          </CharString>
          <CharString index="200">
            317 -20 hstemhm
            return
          </CharString>
        <CharString name=".notdef">
          -648 endchar
        </CharString>
        <CharString name="A">
          16 callgsubr
          470 -20 hstem
          -107 callgsubr
          endchar
        </CharString>
        <CharString name="AE">
          52 callgsubr
          -67 callsubr
          endchar
        </CharString>
        <CharString name="AEacute">
          52 callgsubr
          -40 240 -67 callsubr
          87 124 rmoveto
          152 44 rlineto
          52 15 16 19 23 vvcurveto
          hintmask 11110010
          25 -21 18 -22 -16 -13 -5 -11 -15 vhcurveto
          -144 -107 rlineto
          endchar
        </CharString>
        <CharString name="Aacute">
          16 callgsubr
          647 -20 hstem
          -107 callgsubr
          -12 212 -93 callsubr
        </CharString>
        <CharString name="Abreve">
          16 callgsubr
          508 27 callgsubr
          526 45 hintmask 11011000
          -107 callgsubr
          22 356 rmoveto
          -85 callsubr
          hintmask 11101000
          -17 callgsubr
          hintmask 11011000
          -30 callsubr
        </CharString>
        <CharString name="Acircumflex">
          16 callgsubr
          647 -20 hstem
          -107 callgsubr
          138 356 -96 callgsubr
        </CharString>
        <CharString name="Adieresis">
          16 callgsubr
          536 111 hstem
          466 76 callgsubr
          -107 callgsubr
          17 356 rmoveto
          -102 callgsubr
        </CharString>
        <CharString name="Agrave">
          16 callgsubr
          647 -20 hstem
          -107 callgsubr
          167 233 rmoveto
          -104 91 rlineto
          -63 callsubr
        </CharString>
        <CharString name="Amacron">
          16 callgsubr
          558 71 hstem
          -107 callgsubr
          243 267 -49 callsubr
        </CharString>
        <CharString name="Aogonek">
          100 -256 55 201 28 258 37 470 -20 hstem
          259 97 vstem
          458 -48 callsubr
          40 49 63 88 69 hvcurveto
          126 hlineto
          14 28 -62 4 -22 8 -1 35 rlinecurve
          5 0 6 1 6 vhcurveto
          91 701 -108 -23 -11 -93 -463 -538 -64 -74 -30 -23 -95 -14 rlinecurve
          -14 -28 rlineto
          278 hlineto
          13 28 -59 8 -25 12 -1 21 rlinecurve
          18 9 14 31 36 vhcurveto
          129 149 rlineto
          237 hlineto
          -25 -181 -9 -62 -32 -14 -76 -1 rlinecurve
          -14 -28 rlineto
          138 hlineto
          -117 -67 -73 -78 -59 -43 callsubr
          9 521 rmoveto
          -210 hlineto
          252 291 rlineto
          endchar
        </CharString>
        <CharString name="Aring">
          16 callgsubr
          507 36 66 38 hstem
          552 40 74 40 vstem
          -107 callgsubr
          120 356 -36 callgsubr
        </CharString>
        <CharString name="Aringacute">
          16 callgsubr
          507 36 10 70 -14 38 hstemhm
          599 74 0 88 hintmask 11101100
          -107 callgsubr
          127 356 rmoveto
          -40 -33 -28 -35 -8 hvcurveto
          -40 -13 4 -24 39 -2 rlineto
          -23 10 23 -15 30 hhcurveto
          hintmask 11110010
          33 32 19 27 14 hvcurveto
          42 2 14 14 20 vvcurveto
          22 -14 12 -30 -6 -5 -1 -1 -6 vhcurveto
          hintmask 11101100
          16 -13 -22 10 -24 hhcurveto
          -3 -38 rmoveto
          18 17 -13 -16 -19 -21 -18 -21 -18 -14 13 18 19 18 16 21 hvcurveto
          endchar
        </CharString>
        <CharString name="Atilde">
          16 callgsubr
          529 87 callsubr
          -107 callgsubr
          -57 239 -31 callsubr
          hintmask 11100100
          -89 callsubr
          hintmask 11001000
          -68 callsubr
        </CharString>
        <CharString name="B">
          67 0 38 351 40 300 41 hstem
          511 108 1 104 vstem
          243 38 rmoveto
          -56 -21 10 26 13 5 19 12 29 hvcurveto
          104 254 rlineto
          72 hlineto
          102 50 -43 -95 -137 -93 -76 -175 hvcurveto
          61 391 rmoveto
          126 300 rlineto
          61 hlineto
          85 44 -37 -80 -114 -82 -69 -141 hvcurveto
          -460 -429 rmoveto
          359 hlineto
          194 129 93 141 84 -45 59 -80 20 hvcurveto
          4 vlineto
          132 20 98 91 101 vvcurveto
          97 -91 60 -142 vhcurveto
          -240 hlineto
          -11 -28 78 -19 -282 -676 -88 -19 rlineto
          endchar
        </CharString>
        <CharString name="C">
          7 callgsubr
          -10 -20 hstemhm
          63 110 hintmask 01110100
          -3 callgsubr
          hintmask 10110100
          -71 callgsubr
          hintmask 10101100
          13 callgsubr
          hintmask 10110100
          -51 callsubr
          endchar
        </CharString>
        <CharString name="CR">
          -343 endchar
        </CharString>
        <CharString name="Cacute">
          -56 callsubr
          59 749 -93 callsubr
        </CharString>
        <CharString name="Ccaron">
          7 callgsubr
          -10 -20 30 50 140 -20 hstemhm
          63 110 hintmask 01110011
          -3 callgsubr
          hintmask 10110011
          -71 callgsubr
          hintmask 10101111
          13 callgsubr
          -51 callsubr
          hintmask 01101111
          118 753 -91 callsubr
        </CharString>
        <CharString name="Ccedilla">
          94 65 callgsubr
          48 47 -16 -21 540 -20 216 44 -10 -20 hstemhm
          63 110 123 82 hintmask 1101110110000000
          138 -47 callgsubr
          37 49 76 5 62 26 71 55 rlinecurve
          4 hlineto
          -8 -77 rlineto
          27 hlineto
          111 293 rlineto
          -29 hlineto
          hintmask 1110110110000000
          -71 callgsubr
          hintmask 1110101110000000
          13 callgsubr
          hintmask 1110110110000000
          27 -36 -57 16 -64 hhcurveto
          -284 -285 -284 -283 -144 74 -75 148 -4 hvcurveto
          -87 -111 -55 callsubr
        </CharString>
        <CharString name="Ccircumflex">
          -56 callsubr
          172 893 -96 callgsubr
        </CharString>
        <CharString name="Cdotaccent">
          7 callgsubr
          -10 -20 95 125 hstemhm
          63 110 464 137 hintmask 01110111
          -3 callgsubr
          hintmask 10110111
          -71 callgsubr
          hintmask 10101111
          13 callgsubr
          hintmask 10110111
          -51 callsubr
          hintmask 01110111
          170 893 12 callsubr
          endchar
        </CharString>
        <CharString name="D">
          157 55 callgsubr
          hstem
          671 110 vstem
          -103 callgsubr
          endchar
        </CharString>
        <CharString name="Dcaron">
          157 55 callgsubr
          0 60 140 -20 hstemhm
          671 110 hintmask 11011000
          -103 callgsubr
          hintmask 10111000
          327 788 -91 callsubr
        </CharString>
        <CharString name="Dcroat">
          -58 callsubr
        </CharString>
        <CharString name="Ddotbelow">
          157 -256 125 131 42 688 40 hstem
          120 137 414 110 vstem
          -103 callgsubr
          -43 -173 12 callsubr
          endchar
        </CharString>
        <CharString name="E">
          65 0 69 callsubr
          hintmask 11101000
          541 hmoveto
          -106 callgsubr
          hintmask 11011000
          29 -50 17 -59 12 -71 rrcurveto
          27 hlineto
          -8 220 rlineto
          -480 -76 callsubr
          -10 -23 rlineto
          endchar
        </CharString>
        <CharString name="Eacute">
          65 0 -53 callgsubr
          -40 240 hstemhm
          hintmask 11101000
          541 hmoveto
          -106 callgsubr
          hintmask 11011000
          29 -50 17 -59 12 -71 rrcurveto
          27 hlineto
          -8 220 rlineto
          -480 -76 callsubr
          -10 -23 rlineto
          533 826 rmoveto
          152 44 rlineto
          52 15 16 19 23 vvcurveto
          hintmask 11100100
          25 -21 18 -22 -16 -13 -5 -11 -15 vhcurveto
          -144 -107 rlineto
          endchar
        </CharString>
        <CharString name="Ebreve">
          65 0 -53 callgsubr
          61 27 callgsubr
          454 45 hintmask 11101101
          541 hmoveto
          -106 callgsubr
          hintmask 11011011
          29 -50 17 -59 12 -71 rrcurveto
          27 hlineto
          -8 220 rlineto
          -480 -76 callsubr
          -10 -23 rlineto
          532 970 rmoveto
          -85 callsubr
          hintmask 11101101
          -17 callgsubr
          hintmask 11101011
          -30 callsubr
        </CharString>
        <CharString name="Ecaron">
          65 0 -53 callgsubr
          0 60 140 -20 hstemhm
          hintmask 11101010
          541 hmoveto
          -106 callgsubr
          hintmask 11011010
          29 -50 17 -59 12 -71 rrcurveto
          27 hlineto
          -8 220 rlineto
          -480 -76 callsubr
          -10 -23 rlineto
          hintmask 11100110
          617 830 -91 callsubr
        </CharString>
        <CharString name="Ecircumflex">
          65 0 -53 callgsubr
          -40 240 hstemhm
          hintmask 11101000
          541 hmoveto
          -106 callgsubr
          hintmask 11011000
          29 -50 17 -59 12 -71 rrcurveto
          27 hlineto
          -8 220 rlineto
          -480 -76 callsubr
          -10 -23 rlineto
          hintmask 11100100
          668 970 -96 callgsubr
        </CharString>
        <CharString name="Edieresis">
          65 0 -53 callgsubr
          89 111 hstemhm
          425 40 callgsubr
          hintmask 11101111
          541 hmoveto
          -106 callgsubr
          hintmask 11011111
          29 -50 17 -59 12 -71 rrcurveto
          27 hlineto
          -8 220 rlineto
          -480 -76 callsubr
          -10 -23 rlineto
          558 970 rmoveto
          -102 callgsubr
        </CharString>
        <CharString name="Edotaccent">
          65 0 -53 callgsubr
          75 125 hstemhm
          510 137 hintmask 11101110
          541 hmoveto
          -106 callgsubr
          hintmask 11011110
          29 -50 17 -59 12 -71 rrcurveto
          27 hlineto
          -8 220 rlineto
          -480 -76 callsubr
          -10 -23 rlineto
          651 970 12 callsubr
          endchar
        </CharString>
        <CharString name="Edotbelow">
          65 -256 125 131 69 callsubr
          151 137 hintmask 11110110
          541 hmoveto
          -106 callgsubr
          hintmask 11101110
          29 -50 17 -59 12 -71 rrcurveto
          27 hlineto
          -8 220 rlineto
          -480 -76 callsubr
          -10 -23 rlineto
          292 -131 12 callsubr
          endchar
        </CharString>
        <CharString name="Egrave">
          65 0 -53 callgsubr
          -40 240 hstemhm
          hintmask 11101000
          541 hmoveto
          -106 callgsubr
          hintmask 11011000
          29 -50 17 -59 12 -71 rrcurveto
          27 hlineto
          -8 220 rlineto
          -480 -76 callsubr
          -10 -23 rlineto
          686 847 rmoveto
          -104 91 rlineto
          hintmask 11100100
          -63 callsubr
        </CharString>
        <CharString name="Emacron">
          65 0 -53 callgsubr
          111 71 hstemhm
          hintmask 11101100
          541 hmoveto
          -106 callgsubr
          hintmask 11011100
          29 -50 17 -59 12 -71 rrcurveto
          27 hlineto
          -8 220 rlineto
          -480 -76 callsubr
          -10 -23 rlineto
          765 881 -49 callsubr
        </CharString>
        <CharString name="Eng">
          167 57 callgsubr
          306 -216 rmoveto
          hintmask 01110000
          -60 28 89 -65 hhcurveto
          -26 -25 -18 -32 -43 46 -36 73 109 104 87 159 66 hvcurveto
          307 738 2 callgsubr
          -228 -41 callgsubr
          83 -19 -231 -557 rlineto
          -4 hlineto
          -124 599 rlineto
          -212 -25 callgsubr
          -57 callsubr
          130 -630 -36 -87 rlineto
          hintmask 10110000
          -148 -62 -33 -41 -46 hhcurveto
          endchar
        </CharString>
        <CharString name="Eogonek">
          65 -256 55 201 69 callsubr
          258 97 hintmask 11110110
          457 -48 callsubr
          40 34 63 86 69 hvcurveto
          66 hlineto
          -106 callgsubr
          hintmask 11101110
          29 -50 17 -59 12 -71 rrcurveto
          27 hlineto
          -8 220 rlineto
          -480 -76 callsubr
          -10 -23 rlineto
          499 hlineto
          -115 -67 -58 -78 -59 -43 callsubr
          endchar
        </CharString>
        <CharString name="Eth">
          -58 callsubr
        </CharString>
        <CharString name="Etilde">
          65 0 -53 callgsubr
          82 -32 callgsubr
          hintmask 1110110010000000
          541 hmoveto
          -106 callgsubr
          hintmask 1101101010000000
          29 -50 17 -59 12 -71 rrcurveto
          27 hlineto
          -8 220 rlineto
          -480 -76 callsubr
          -10 -23 rlineto
          483 853 -31 callsubr
          hintmask 1110110010000000
          -89 callsubr
          hintmask 1110100100000000
          -68 callsubr
        </CharString>
        <CharString name="Euro">
          -11 51 callsubr
          128 102 360 117 hintmask 01111011
          115 -60 callsubr
        </CharString>
        <CharString name="Euro.tnum">
          -48 51 callsubr
          14 102 360 117 hintmask 01111011
          1 -60 callsubr
        </CharString>
        <CharString name="F">
          -4 21 -21 374 40 136 -20 200 40 hstem
          250 hmoveto
          10 23 -117 17 137 334 rlineto
          174 hlineto
          -2 -40 -4 -40 -11 -40 rrcurveto
          29 hlineto
          113 274 rlineto
          -29 hlineto
          -23 -38 -28 -38 -33 -38 rrcurveto
          -168 hlineto
          129 316 rlineto
          234 hlineto
          23 -50 17 -59 10 -71 rrcurveto
          27 220 -488 -76 callsubr
          -10 -23 rlineto
          endchar
        </CharString>
        <CharString name="G">
          29 callgsubr
          -10 -20 hstemhm
          71 113 hintmask 11101000
          -65 callsubr
          hintmask 11011000
          24 callgsubr
          hintmask 11101000
          -73 callsubr
          endchar
        </CharString>
        <CharString name="Gbreve">
          29 callgsubr
          -10 -20 81 27 callgsubr
          71 113 405 45 hintmask 11101011
          -65 callsubr
          hintmask 11011011
          24 callgsubr
          hintmask 11100111
          -73 callsubr
          1 626 rmoveto
          -85 callsubr
          hintmask 11101011
          -17 callgsubr
          hintmask 11100111
          -30 callsubr
        </CharString>
        <CharString name="Gcircumflex">
          29 callgsubr
          -44 234 -200 -20 hstemhm
          71 113 hintmask 11100100
          -65 callsubr
          hintmask 11001100
          24 callgsubr
          hintmask 11100100
          -73 callsubr
          hintmask 11010100
          122 626 -96 callgsubr
        </CharString>
        <CharString name="Gcommaaccent">
          150 39 callsubr
          34 540 -20 226 44 -10 -20 hstemhm
          71 113 43 116 hintmask 11110110
          -65 callsubr
          hintmask 11101110
          24 callgsubr
          hintmask 11110110
          -73 callsubr
          -342 -493 -95 callsubr
        </CharString>
        <CharString name="Gdotaccent">
          29 callgsubr
          -10 -20 95 125 hstemhm
          71 113 447 137 hintmask 11101110
          -65 callsubr
          hintmask 11011110
          24 callgsubr
          hintmask 11101110
          -73 callsubr
          106 626 12 callsubr
          endchar
        </CharString>
        <CharString name="H">
          211 21 -21 385 40 345 -20 hstem
          -70 callgsubr
          endchar
        </CharString>
        <CharString name="Hbar">
          212 21 -21 385 40 125 44 -44 220 hstemhm
          hintmask 11100000
          502 61 callsubr
          290 hlineto
          9 21 -81 21 211 508 rlineto
          99 hlineto
          19 44 rlineto
          -100 hlineto
          56 134 96 17 rlineto
          hintmask 11010000
          10 25 rlineto
          -290 -41 callgsubr
          83 -19 rlineto
          hintmask 11100000
          -56 -134 rlineto
          -356 hlineto
          56 134 96 19 rlineto
          hintmask 11010000
          -8 callgsubr
          -290 -41 callgsubr
          83 -19 rlineto
          hintmask 11100000
          -56 -134 rlineto
          -79 hlineto
          -18 -44 rlineto
          79 hlineto
          -210 -508 -97 -23 callsubr
          289 hlineto
          10 23 -82 19 142 343 rlineto
          356 hlineto
          -339 40 rmoveto
          52 125 rlineto
          356 hlineto
          -52 -125 rlineto
          endchar
        </CharString>
        <CharString name="Hcircumflex">
          211 21 -21 385 40 345 -20 220 -20 hstem
          -70 callgsubr
          51 585 -96 callgsubr
        </CharString>
        <CharString name="Hdotbelow">
          211 45 callsubr
          385 40 345 -20 hstem
          181 137 vstem
          -70 callgsubr
          -389 -516 12 callsubr
          endchar
        </CharString>
        <CharString name="I">
          14 callsubr
          hstem
          -94 callsubr
          endchar
        </CharString>
        <CharString name="IJ">
          124 57 callgsubr
          -94 callsubr
          502 hmoveto
          -39 callsubr
          hhcurveto
          hintmask 01110000
          -38 callsubr
          endchar
        </CharString>
        <CharString name="Iacute">
          14 callsubr
          220 -20 hstem
          -94 callsubr
          28 98 -93 callsubr
        </CharString>
        <CharString name="Ibreve">
          14 callsubr
          81 27 callgsubr
          332 45 hintmask 11011000
          -94 callsubr
          23 242 rmoveto
          -85 callsubr
          hintmask 11101000
          -17 callgsubr
          hintmask 11011000
          -30 callsubr
        </CharString>
        <CharString name="Icircumflex">
          14 callsubr
          220 -20 hstem
          -94 callsubr
          154 242 -96 callgsubr
        </CharString>
        <CharString name="Idieresis">
          14 callsubr
          109 111 hstem
          294 76 callgsubr
          -94 callsubr
          40 242 rmoveto
          -102 callgsubr
        </CharString>
        <CharString name="Idotaccent">
          14 callsubr
          95 125 hstem
          380 137 vstem
          -94 callsubr
          134 242 12 callsubr
          endchar
        </CharString>
        <CharString name="Idotbelow">
          -256 45 callsubr
          770 -20 hstem
          -56 137 vstem
          -94 callsubr
          -302 -859 12 callsubr
          endchar
        </CharString>
        <CharString name="Igrave">
          14 callsubr
          220 -20 hstem
          -94 callsubr
          191 119 rmoveto
          -104 91 rlineto
          -63 callsubr
        </CharString>
        <CharString name="Imacron">
          14 callsubr
          131 71 hstem
          -94 callsubr
          256 153 -49 callsubr
        </CharString>
        <CharString name="Iogonek">
          -256 -256 55 222 42 callsubr
          hstem
          -130 97 vstem
          69 -48 callsubr
          40 49 63 88 69 hvcurveto
          113 hlineto
          10 23 -82 19 285 686 2 callsubr
          132 hlineto
          -116 -67 -74 -78 -59 -43 callsubr
          endchar
        </CharString>
        <CharString name="Itilde">
          14 callsubr
          141 41 -41 76 3 -20 hstemhm
          hintmask 11101000
          -94 callsubr
          -19 125 rmoveto
          24 11 23 14 29 -89 callsubr
          hintmask 11010000
          -68 callsubr
        </CharString>
        <CharString name="J">
          -268 -256 40 986 -20 hstem
          429 728 rmoveto
          -39 callsubr
          -38 callsubr
          endchar
        </CharString>
        <CharString name="Jcircumflex">
          -268 -256 40 986 -20 220 -20 hstem
          429 728 rmoveto
          -39 callsubr
          -38 callsubr
          342 997 -96 callgsubr
        </CharString>
        <CharString name="K">
          95 21 -21 742 28 hstem
          -45 callsubr
          endchar
        </CharString>
        <CharString name="Kcommaaccent">
          95 39 callsubr
          44 742 28 hstem
          254 116 vstem
          -45 callsubr
          -146 -878 -95 callsubr
        </CharString>
        <CharString name="L">
          47 0 40 730 -20 hstem
          541 hmoveto
          96 242 rlineto
          -34 hlineto
          -38 -63 -50 -76 -54 -63 rrcurveto
          -318 hlineto
          282 685 101 22 -8 callgsubr
          -286 -76 callsubr
          -10 -23 rlineto
          endchar
        </CharString>
        <CharString name="Lacute">
          47 0 40 730 -20 220 -20 hstem
          541 hmoveto
          96 242 rlineto
          -34 hlineto
          -38 -63 -50 -76 -54 -63 rrcurveto
          -318 hlineto
          282 685 101 22 -8 callgsubr
          -286 -76 callsubr
          -10 -23 rlineto
          429 826 -93 callsubr
        </CharString>
        <CharString name="Lcaron">
          47 0 40 730 60 140 -20 hstem
          541 hmoveto
          96 242 rlineto
          -34 hlineto
          -38 -63 -50 -76 -54 -63 rrcurveto
          -318 hlineto
          282 685 101 22 -8 callgsubr
          -286 -76 callsubr
          -10 -23 rlineto
          494 830 -91 callsubr
        </CharString>
        <CharString name="Lcommaaccent">
          47 39 callsubr
          44 0 40 730 -20 hstemhm
          192 116 hintmask 10111000
          541 hmoveto
          96 242 rlineto
          -34 hlineto
          -38 -63 -50 -76 -54 -63 rrcurveto
          -318 hlineto
          282 685 101 22 -8 callgsubr
          -286 -76 callsubr
          -10 -23 rlineto
          289 -149 -79 callsubr
          78 43 45 53 51 vvcurveto
          hintmask 11011000
          36 -18 20 -32 -45 -21 -24 -37 -24 10 -15 19 -5 vhcurveto
          endchar
        </CharString>
        <CharString name="Ldot">
          47 0 40 260 125 345 -20 hstem
          389 137 vstem
          541 hmoveto
          96 242 rlineto
          -34 hlineto
          -38 -63 -50 -76 -54 -63 rrcurveto
          -318 hlineto
          282 685 101 22 -8 callgsubr
          -286 -76 callsubr
          -10 -23 rlineto
          530 425 12 callsubr
          endchar
        </CharString>
        <CharString name="Lslash">
          49 0 40 730 -20 hstem
          543 hmoveto
          96 242 rlineto
          -34 hlineto
          -38 -63 -50 -76 -54 -63 rrcurveto
          -318 hlineto
          144 351 148 70 2 49 -125 -60 113 275 101 22 -8 callgsubr
          -286 -41 callgsubr
          78 -19 -141 -342 -136 -64 rlineto
          -48 vlineto
          111 52 -118 -284 -92 -23 callsubr
          endchar
        </CharString>
        <CharString name="M">
          346 11 -21 31 42 callsubr
          hstemhm
          hintmask 01100000
          -100 hmoveto
          227 hlineto
          10 23 -82 19 334 648 rlineto
          4 hlineto
          hintmask 10100000
          -87 -700 rlineto
          53 hlineto
          558 720 rlineto
          4 hlineto
          -279 -668 -97 -19 rlineto
          hintmask 01100000
          -28 callgsubr
          284 hlineto
          10 23 -82 19 285 686 97 19 9 23 rlineto
          -234 hlineto
          -461 -601 rlineto
          -4 hlineto
          72 601 rlineto
          -234 hlineto
          -9 -23 90 -19 -351 -686 -97 -19 rlineto
          endchar
        </CharString>
        <CharString name="N">
          167 11 -21 31 42 callsubr
          hstemhm
          hintmask 10100000
          -96 callsubr
          hintmask 01100000
          -57 callsubr
          endchar
        </CharString>
        <CharString name="NULL">
          -343 endchar
        </CharString>
        <CharString name="Nacute">
          167 11 -21 31 42 callsubr
          220 -20 hstemhm
          hintmask 10110000
          -96 callsubr
          hintmask 01110000
          -57 callsubr
          hintmask 10110000
          202 136 -93 callsubr
        </CharString>
        <CharString name="Ncaron">
          167 11 -21 31 42 callsubr
          80 -20 160 -20 hstemhm
          hintmask 10111000
          -96 callsubr
          hintmask 01111000
          -57 callsubr
          hintmask 10111000
          259 140 -91 callsubr
        </CharString>
        <CharString name="Ncommaaccent">
          167 -236 -21 268 -21 31 42 callsubr
          hstemhm
          228 116 hintmask 11011000
          -96 callsubr
          hintmask 10111000
          -57 callsubr
          hintmask 11011000
          -96 -849 -95 callsubr
        </CharString>
        <CharString name="Ndotaccent">
          167 11 -21 31 42 callsubr
          95 125 hstemhm
          577 137 hintmask 10111000
          -96 callsubr
          hintmask 01111000
          -57 callsubr
          hintmask 10111000
          297 280 12 callsubr
          endchar
        </CharString>
        <CharString name="Ntilde">
          167 11 -21 31 42 callsubr
          102 -32 callgsubr
          hintmask 10110010
          -96 callsubr
          hintmask 01110010
          -57 callsubr
          hintmask 10101010
          154 163 -31 callsubr
          hintmask 10110010
          -89 callsubr
          hintmask 10100100
          -68 callsubr
        </CharString>
        <CharString name="O">
          0 callgsubr
          hstem
          24 callsubr
          vstem
          -105 callsubr
          endchar
        </CharString>
        <CharString name="OE">
          474 0 40 -29 -21 396 40 114 -20 30 -20 206 44 -10 -20 hstemhm
          73 116 hintmask 10110011
          703 770 rmoveto
          hintmask 01110101
          6 -26 -28 4 -34 hhcurveto
          -278 -264 -264 -278 -157 91 -91 157 hvcurveto
          hintmask 10110101
          31 32 3 7 33 hvcurveto
          533 hlineto
          91 230 rlineto
          -29 hlineto
          -41 -68 -46 -63 -50 -59 rrcurveto
          -323 hlineto
          142 346 rlineto
          174 hlineto
          -2 -50 -5 -37 -10 -33 rrcurveto
          29 hlineto
          113 274 rlineto
          -29 hlineto
          -23 -38 -28 -38 -33 -38 rrcurveto
          -168 hlineto
          124 304 rlineto
          226 hlineto
          hintmask 10101011
          26 -47 18 -56 14 -77 rrcurveto
          27 hlineto
          -8 220 rlineto
          hintmask 10110101
          -556 -34 rmoveto
          57 39 -19 -39 25 hvcurveto
          -270 -613 rlineto
          -19 -29 -33 -9 -38 hhcurveto
          -98 -47 57 118 255 202 269 192 hvcurveto
          endchar
        </CharString>
        <CharString name="Oacute">
          0 callgsubr
          -44 234 20 callsubr
          hintmask 11011000
          -105 callsubr
          247 789 rmoveto
          152 44 rlineto
          52 15 16 19 23 vvcurveto
          hintmask 10111000
          25 -21 18 -22 -16 -13 -5 -11 -15 vhcurveto
          -144 -107 rlineto
          endchar
        </CharString>
        <CharString name="Obreve">
          0 callgsubr
          51 27 callgsubr
          75 116 366 45 88 111 hintmask 11011110
          -105 callsubr
          248 933 rmoveto
          -85 callsubr
          hintmask 11101110
          -17 callgsubr
          hintmask 11011110
          -30 callsubr
        </CharString>
        <CharString name="Ocircumflex">
          0 callgsubr
          -44 234 20 callsubr
          hintmask 11011000
          -105 callsubr
          hintmask 10111000
          352 933 -96 callgsubr
        </CharString>
        <CharString name="Odieresis">
          0 callgsubr
          79 111 hstem
          75 116 318 122 59 111 vstem
          -105 callsubr
          255 933 rmoveto
          -102 callgsubr
        </CharString>
        <CharString name="Odotbelow">
          156 0 callsubr
          47 699 44 hstemhm
          75 116 -36 137 398 111 hintmask 11110100
          -105 callsubr
          -91 -168 rmoveto
          hintmask 11101100
          -105 callgsubr
          endchar
        </CharString>
        <CharString name="Ograve">
          0 callgsubr
          -44 234 20 callsubr
          hintmask 11011000
          -105 callsubr
          410 810 rmoveto
          -104 91 rlineto
          hintmask 10111000
          -63 callsubr
        </CharString>
        <CharString name="Ohungarumlaut">
          0 callgsubr
          -44 233 1 58 callsubr
          hintmask 11011100
          -105 callsubr
          360 789 45 callgsubr
          hintmask 10101100
          -18 callsubr
          hintmask 11011100
          24 -21 -16 callgsubr
          endchar
        </CharString>
        <CharString name="Omacron">
          0 callgsubr
          101 71 hstem
          24 callsubr
          vstem
          -105 callsubr
          438 844 -49 callsubr
        </CharString>
        <CharString name="Oogonek">
          157 -256 55 191 47 699 44 hstemhm
          75 116 -102 102 86 callsubr
          hintmask 11110100
          288 -48 callsubr
          38 45 59 80 65 hvcurveto
          247 5 243 266 270 vvcurveto
          158 -84 91 -146 -248 -248 -272 -272 -142 69 -87 121 -15 vhcurveto
          hintmask 11101100
          -108 -65 -68 -74 74 callsubr
          26 235 rmoveto
          -87 -41 56 117 257 191 269 183 84 41 -56 -115 -260 -188 -268 -183 hvcurveto
          endchar
        </CharString>
        <CharString name="Oslash">
          156 -10 47 -16 -21 736 44 -10 58 callsubr
          hintmask 10011100
          304 -10 rmoveto
          250 247 269 272 57 -12 49 -21 38 hvcurveto
          95 95 rlineto
          -63 hlineto
          -57 -58 rlineto
          hintmask 01101100
          31 callsubr
          61 hlineto
          48 48 rlineto
          hintmask 10101100
          -38 39 55 -20 69 hhcurveto
          261 746 rmoveto
          60 38 -29 -58 17 hvcurveto
          83 callgsubr
          257 191 269 183 vhcurveto
          -246 -699 27 callsubr
          endchar
        </CharString>
        <CharString name="Oslashacute">
          156 -10 47 -16 -21 736 44 -10 -20 220 58 callsubr
          hintmask 01101110
          93 hmoveto
          48 48 rlineto
          hintmask 10011110
          -38 39 55 -20 69 hhcurveto
          250 247 269 272 57 -12 49 -21 38 hvcurveto
          95 95 rlineto
          -63 hlineto
          -57 -58 rlineto
          hintmask 01101110
          31 callsubr
          159 210 rmoveto
          257 191 269 183 60 38 -29 -58 17 vhcurveto
          83 callgsubr
          hintmask 10101110
          128 -173 27 callsubr
          297 789 -93 callsubr
        </CharString>
        <CharString name="Otilde">
          0 callgsubr
          72 80 -41 41 -41 76 3 58 callsubr
          hintmask 11010111
          -105 callsubr
          177 816 -31 callsubr
          hintmask 11100111
          -89 callsubr
          hintmask 11001011
          -68 callsubr
        </CharString>
        <CharString name="P">
          5 21 -21 341 44 344 41 hstem
          616 104 vstem
          363 341 rmoveto
          67 callsubr
          -240 hlineto
          -9 -23 78 -19 -286 -686 -88 -19 -9 -23 rlineto
          316 hlineto
          10 23 -119 19 122 299 rlineto
          19 44 37 callgsubr
        </CharString>
        <CharString name="Q">
          156 -227 100 1 163 699 44 hstemhm
          12 78 -14 30 callgsubr
          hintmask 11110100
          270 -12 rmoveto
          -191 -78 rlineto
          -45 -18 -22 -21 -30 vvcurveto
          -21 11 -21 27 23 17 16 19 vhcurveto
          9 -4 9 8 vvcurveto
          9 4 5 18 vhcurveto
          83 11 -101 123 hhcurveto
          132 73 118 46 12 hvcurveto
          -34 hlineto
          -37 -27 -68 -27 -88 hhcurveto
          -59 -39 12 28 -37 hvcurveto
          235 95 rlineto
          199 80 178 211 231 vvcurveto
          159 -84 91 -144 vhcurveto
          hintmask 11101100
          -250 -248 -272 -271 -146 72 -85 122 -14 hvcurveto
          48 45 rmoveto
          -85 -41 57 118 255 191 269 184 84 40 -56 -118 -257 -188 -268 -185 hvcurveto
          endchar
        </CharString>
        <CharString name="R">
          59 callsubr
          hstem
          616 101 vstem
          -97 callsubr
          endchar
        </CharString>
        <CharString name="Racute">
          59 callsubr
          200 -20 hstem
          616 101 vstem
          -97 callsubr
          109 428 -93 callsubr
        </CharString>
        <CharString name="Rcaron">
          59 callsubr
          0 60 140 -20 hstemhm
          616 101 hintmask 11101100
          -97 callsubr
          hintmask 11011100
          151 432 -91 callsubr
        </CharString>
        <CharString name="Rcommaaccent">
          92 -236 -21 203 54 64 callgsubr
          hstem
          228 116 272 101 vstem
          -97 callsubr
          -125 -557 -95 callsubr
        </CharString>
        <CharString name="Rdotbelow">
          92 -256 125 152 83 callsubr
          hstem
          174 137 305 101 vstem
          -97 callsubr
          -135 -529 12 callsubr
          endchar
        </CharString>
        <CharString name="S">
          81 callsubr
          -10 84 callsubr
          hintmask 01110110
          34 callgsubr
          hintmask 10110110
          -80 callsubr
          hintmask 10101110
          -7 callsubr
          hintmask 10110110
          -83 callsubr
          endchar
        </CharString>
        <CharString name="Sacute">
          81 callsubr
          -40 230 -200 84 callsubr
          hintmask 01110011
          34 callgsubr
          hintmask 10110011
          -80 callsubr
          hintmask 10100111
          -7 callsubr
          hintmask 10110011
          -83 callsubr
          hintmask 01101011
          355 565 -93 callsubr
        </CharString>
        <CharString name="Scaron">
          81 callsubr
          -10 -20 30 50 140 84 callsubr
          hintmask 0111001110000000
          34 callgsubr
          hintmask 1011001110000000
          -80 callsubr
          hintmask 1010111110000000
          -7 callsubr
          -83 callsubr
          hintmask 0110111110000000
          442 569 -91 callsubr
        </CharString>
        <CharString name="Schwa">
          26 -10 51 689 49 hstem
          -8 130 480 99 vstem
          130 -10 rmoveto
          253 318 331 265 122 -68 71 -119 -123 -123 -75 -147 -117 hvcurveto
          37 -22 rlineto
          125 94 106 70 104 hhcurveto
          74 36 -35 -69 -59 -24 -94 -38 -94 hvcurveto
          -325 -50 -223 -119 -122 vvcurveto
          -61 53 -37 85 vhcurveto
          332 257 rmoveto
          -111 -61 -129 -95 -99 hhcurveto
          -36 -15 13 29 97 182 115 204 37 hvcurveto
          endchar
        </CharString>
        <CharString name="Scircumflex">
          81 callsubr
          -40 230 -200 84 callsubr
          hintmask 01110011
          34 callgsubr
          hintmask 10110011
          -80 callsubr
          hintmask 10100111
          -7 callsubr
          hintmask 10110011
          -83 callsubr
          hintmask 01101011
          470 709 -96 callgsubr
        </CharString>
        <CharString name="Sdotbelow">
          -59 0 callsubr
          -7 callgsubr
          -10 -20 hstemhm
          71 137 -123 112 0 105 84 108 hintmask 1011101001000000
          34 callgsubr
          hintmask 1101100011000000
          -80 callsubr
          hintmask 1101011001000000
          -7 callsubr
          hintmask 1101100101000000
          -83 callsubr
          hintmask 1011101001000000
          75 -392 12 callsubr
          endchar
        </CharString>
        <CharString name="T">
          87 21 87 callgsubr
          200 40 hstem
          205 42 rmoveto
          -107 -23 callsubr
          318 hlineto
          10 23 -102 19 285 688 -81 callsubr
          endchar
        </CharString>
        <CharString name="Tbar">
          95 21 -21 420 44 86 -20 200 40 hstem
          205 42 rmoveto
          -107 -23 callsubr
          318 hlineto
          10 23 -102 19 157 378 rlineto
          228 hlineto
          19 44 rlineto
          -229 hlineto
          110 266 -81 callsubr
          -111 -266 rlineto
          -188 hlineto
          -18 -44 rlineto
          188 hlineto
          endchar
        </CharString>
        <CharString name="Tcaron">
          87 21 87 callgsubr
          200 40 0 60 140 -20 hstemhm
          hintmask 11101000
          205 42 rmoveto
          -107 -23 callsubr
          318 hlineto
          10 23 -102 19 285 688 -81 callsubr
          hintmask 11011000
          85 100 -91 callsubr
        </CharString>
        <CharString name="Tdotbelow">
          87 45 callsubr
          550 -20 200 40 hstem
          108 137 vstem
          205 42 rmoveto
          -107 -23 callsubr
          318 hlineto
          10 23 -102 19 285 688 -81 callsubr
          -309 -861 12 callsubr
          endchar
        </CharString>
        <CharString name="Thorn">
          10 0 211 -44 44 344 41 -41 215 hstemhm
          550 104 hintmask 10101000
          36 42 rmoveto
          -88 -19 -9 -23 rlineto
          316 hlineto
          10 23 -119 19 rlineto
          hintmask 01101000
          53 125 rlineto
          98 hlineto
          67 callsubr
          -44 hlineto
          56 132 88 19 rlineto
          hintmask 10011000
          9 23 rlineto
          -316 -41 callgsubr
          119 -19 rlineto
          -108 -517 37 callgsubr
        </CharString>
        <CharString name="U">
          -1 callgsubr
          hstem
          94 102 -100 callsubr
          endchar
        </CharString>
        <CharString name="Uacute">
          -1 callgsubr
          220 -20 hstem
          94 102 -100 callsubr
          269 98 -93 callsubr
        </CharString>
        <CharString name="Ubreve">
          -1 callgsubr
          81 27 callgsubr
          94 102 350 45 hintmask 11011100
          137 320 rmoveto
          -29 -68 -14 -57 -45 vvcurveto
          -104 75 -56 141 122 109 46 194 82 vhcurveto
          211 498 95 19 9 23 rlineto
          -221 hlineto
          -11 -23 84 -19 -203 -469 rlineto
          -169 -73 -67 -53 -107 hhcurveto
          -97 -47 35 72 35 11 48 18 42 hvcurveto
          191 458 96 20 -8 callgsubr
          -285 hlineto
          -9 -23 82 -19 rlineto
          246 242 rmoveto
          -85 callsubr
          hintmask 11101100
          -17 callgsubr
          hintmask 11011100
          -30 callsubr
        </CharString>
        <CharString name="Ucircumflex">
          -1 callgsubr
          220 -20 hstem
          94 102 -100 callsubr
          394 242 -96 callgsubr
        </CharString>
        <CharString name="Udieresis">
          -1 callgsubr
          109 111 hstem
          94 102 318 122 53 122 -100 callsubr
          269 242 rmoveto
          -102 callgsubr
        </CharString>
        <CharString name="Udotbelow">
          130 0 callsubr
          77 callgsubr
          hstemhm
          94 102 -28 137 hintmask 11110000
          137 320 rmoveto
          -29 -68 -14 -57 -45 vvcurveto
          -104 75 -56 141 122 109 46 194 82 vhcurveto
          211 498 95 19 9 23 rlineto
          -221 hlineto
          -11 -23 84 -19 -203 -469 rlineto
          -169 -73 -67 -53 -107 hhcurveto
          -97 -47 35 72 35 11 48 18 42 hvcurveto
          191 458 96 20 -8 callgsubr
          -285 hlineto
          -9 -23 82 -19 rlineto
          -69 -859 rmoveto
          hintmask 11101000
          -105 callgsubr
          endchar
        </CharString>
        <CharString name="Ugrave">
          -1 callgsubr
          220 -20 hstem
          94 102 -100 callsubr
          382 119 rmoveto
          -104 91 rlineto
          -63 callsubr
        </CharString>
        <CharString name="Uhungarumlaut">
          -1 callgsubr
          219 -20 21 -20 hstemhm
          94 102 hintmask 11101000
          137 320 rmoveto
          -29 -68 -14 -57 -45 vvcurveto
          -104 75 -56 141 122 109 46 194 82 vhcurveto
          211 498 95 19 9 23 rlineto
          -221 hlineto
          -11 -23 84 -19 -203 -469 rlineto
          -169 -73 -67 -53 -107 hhcurveto
          -97 -47 35 72 35 11 48 18 42 hvcurveto
          191 458 96 20 -8 callgsubr
          -285 hlineto
          -9 -23 82 -19 rlineto
          372 98 45 callgsubr
          -18 callsubr
          hintmask 11011000
          24 -21 -16 callgsubr
          endchar
        </CharString>
        <CharString name="Umacron">
          -1 callgsubr
          131 71 hstem
          94 102 -100 callsubr
          447 153 -49 callsubr
        </CharString>
        <CharString name="Uogonek">
          130 -256 55 193 45 733 -20 hstem
          94 102 vstem
          293 -48 callsubr
          38 45 59 79 65 hvcurveto
          120 2 107 47 81 191 211 498 rcurveline
          95 19 9 23 rlineto
          -221 hlineto
          -11 -23 84 -19 -203 -469 rlineto
          -169 -73 -67 -53 -107 hhcurveto
          -97 -47 35 72 35 11 48 18 42 hvcurveto
          191 458 96 20 -8 callgsubr
          -285 hlineto
          -9 -23 82 -19 -173 -408 rlineto
          -29 -68 -14 -57 -45 vvcurveto
          -94 60 -55 115 -9 vhcurveto
          -108 -65 -67 -75 37 callsubr
          endchar
        </CharString>
        <CharString name="Uring">
          -1 callgsubr
          80 36 66 38 hstem
          94 102 379 40 74 40 -100 callsubr
          347 242 -36 callgsubr
        </CharString>
        <CharString name="Utilde">
          -1 callgsubr
          102 -32 callgsubr
          94 102 hintmask 11010110
          137 320 rmoveto
          -29 -68 -14 -57 -45 vvcurveto
          -104 75 -56 141 122 109 46 194 82 vhcurveto
          211 498 95 19 9 23 rlineto
          -221 hlineto
          -11 -23 84 -19 -203 -469 rlineto
          -169 -73 -67 -53 -107 hhcurveto
          -97 -47 35 72 35 11 48 18 42 hvcurveto
          191 458 96 20 -8 callgsubr
          -285 hlineto
          -9 -23 82 -19 rlineto
          199 125 -31 callsubr
          hintmask 11100110
          -89 callsubr
          hintmask 11001010
          -68 callsubr
        </CharString>
        <CharString name="V">
          86 11 -21 752 28 hstem
          239 -10 rmoveto
          506 641 60 77 34 20 95 14 rlinecurve
          14 28 rlineto
          -289 hlineto
          -13 -28 59 -8 25 -12 1 -21 rlinecurve
          -18 -5 -13 -29 -37 vhcurveto
          -390 -500 rlineto
          -4 hlineto
          73 532 9 62 32 14 76 1 rlinecurve
          14 28 rlineto
          -308 hlineto
          -14 -28 62 -4 22 -8 1 -35 rlinecurve
          -5 0 -6 -1 -6 vhcurveto
          -89 -688 rlineto
          endchar
        </CharString>
        <CharString name="W">
          46 callgsubr
          hstem
          -104 callsubr
          endchar
        </CharString>
        <CharString name="Wacute">
          46 callgsubr
          -28 228 hstemhm
          hintmask 11000000
          -104 callsubr
          465 836 rmoveto
          152 44 rlineto
          52 15 16 19 23 vvcurveto
          hintmask 10100000
          25 -21 18 -22 -16 -13 -5 -11 -15 vhcurveto
          -144 -107 rlineto
          endchar
        </CharString>
        <CharString name="Wcircumflex">
          46 callgsubr
          -28 228 hstemhm
          hintmask 11000000
          -104 callsubr
          hintmask 10100000
          610 980 -96 callgsubr
        </CharString>
        <CharString name="Wdieresis">
          46 callgsubr
          89 111 hstem
          605 76 callgsubr
          -104 callsubr
          495 980 rmoveto
          -102 callgsubr
        </CharString>
        <CharString name="Wgrave">
          46 callgsubr
          200 -20 hstem
          -104 callsubr
          638 857 rmoveto
          -104 91 rlineto
          -63 callsubr
        </CharString>
        <CharString name="X">
          96 0 23 747 -20 hstem
          201 hmoveto
          11 23 rlineto
          -53 8 -25 16 23 vvcurveto
          20 18 25 32 31 vhcurveto
          190 184 49 -215 rlineto
          3 -14 2 -11 -10 vvcurveto
          -35 -24 -13 -65 -9 vhcurveto
          -9 -23 rlineto
          299 hlineto
          10 23 -64 11 -21 17 -16 65 rlinecurve
          -71 291 259 249 64 62 41 19 75 10 rlinecurve
          -8 callgsubr
          -238 hlineto
          -9 -23 rlineto
          34 19 -7 -16 -15 -16 -24 -36 -34 hvcurveto
          -213 -203 -49 207 rlineto
          -4 15 -2 12 11 vvcurveto
          34 20 15 56 5 vhcurveto
          9 23 rlineto
          -294 hlineto
          -11 -24 79 -9 18 -19 13 -55 rlinecurve
          70 -290 -215 -206 -130 -124 -42 -17 -73 -3 rlinecurve
          -28 callgsubr
          endchar
        </CharString>
        <CharString name="Y">
          49 callsubr
          hstem
          -102 callsubr
          endchar
        </CharString>
        <CharString name="Yacute">
          49 callsubr
          -23 223 hstemhm
          hintmask 11000000
          -102 callsubr
          455 826 rmoveto
          152 44 rlineto
          52 15 16 19 23 vvcurveto
          hintmask 10100000
          25 -21 18 -22 -16 -13 -5 -11 -15 vhcurveto
          -144 -107 rlineto
          endchar
        </CharString>
        <CharString name="Ycircumflex">
          49 callsubr
          -23 223 hstemhm
          hintmask 11000000
          -102 callsubr
          hintmask 10100000
          550 970 -96 callgsubr
        </CharString>
        <CharString name="Ydieresis">
          49 callsubr
          89 111 hstemhm
          458 40 callgsubr
          vstemhm
          -102 callsubr
          435 970 36 callgsubr
          hintmask 11111000
          -86 callgsubr
        </CharString>
        <CharString name="Ygrave">
          49 callsubr
          -23 223 hstemhm
          hintmask 11000000
          -102 callsubr
          557 847 rmoveto
          -104 91 rlineto
          hintmask 10100000
          -63 callsubr
        </CharString>
        <CharString name="Ytilde">
          49 callsubr
          82 87 callsubr
          -102 callsubr
          374 853 -31 callsubr
          hintmask 11100100
          -89 callsubr
          hintmask 11001000
          -68 callsubr
        </CharString>
        <CharString name="Z">
          49 55 callgsubr
          hstem
          523 hmoveto
          -93 callgsubr
          endchar
        </CharString>
        <CharString name="Zacute">
          49 55 callgsubr
          200 -20 hstem
          523 hmoveto
          -93 callgsubr
          513 826 -93 callsubr
        </CharString>
        <CharString name="Zcaron">
          49 55 callgsubr
          0 60 140 -20 hstemhm
          hintmask 11010000
          523 hmoveto
          -93 callgsubr
          hintmask 10110000
          570 830 -91 callsubr
        </CharString>
        <CharString name="Zdotaccent">
          49 55 callgsubr
          75 125 hstem
          495 137 vstem
          523 hmoveto
          -93 callgsubr
          597 970 12 callsubr
          endchar
        </CharString>
        <CharString name="Zdotbelow">
          49 -256 125 131 42 688 40 hstem
          121 137 vstem
          523 hmoveto
          -93 callgsubr
          223 -131 12 callsubr
          endchar
        </CharString>
        <CharString name="a">
          -14 callsubr
          hstemhm
          0 92 hintmask 10101000
          -100 callgsubr
          hintmask 01011000
          -75 callgsubr
          hintmask 10101000
          -98 callsubr
          endchar
        </CharString>
        <CharString name="aacute">
          -44 44 callsubr
          0 92 hintmask 11011000
          -100 callgsubr
          -62 -56 -35 -27 -20 hhcurveto
          -10 -6 7 12 8 2 8 8 25 hvcurveto
          hintmask 10111000
          172 421 rlineto
          -102 hlineto
          -16 -37 rlineto
          hintmask 11011000
          -98 callsubr
          294 606 -97 callgsubr
          endchar
        </CharString>
        <CharString name="abreve">
          -14 callsubr
          141 27 callgsubr
          0 92 196 101 -45 45 hintmask 1010101100000000
          -100 callgsubr
          hintmask 0101101100000000
          -75 callgsubr
          hintmask 1010011010000000
          -98 callsubr
          225 765 rmoveto
          -85 callsubr
          hintmask 1010101100000000
          -17 callgsubr
          hintmask 1010011100000000
          -30 callsubr
        </CharString>
        <CharString name="acircumflex">
          -44 44 callsubr
          0 92 hintmask 11011000
          -100 callgsubr
          -62 -56 -35 -27 -20 hhcurveto
          -10 -6 7 12 8 2 8 8 25 hvcurveto
          hintmask 10111000
          172 421 rlineto
          -102 hlineto
          -16 -37 rlineto
          hintmask 11011000
          -98 callsubr
          387 832 -99 callsubr
        </CharString>
        <CharString name="acute">
          -400 652 -21 226 -20 hstem
          26 16 callsubr
          endchar
        </CharString>
        <CharString name="acute.cap">
          -400 837 -21 144 -20 hstem
          21 816 -93 callsubr
        </CharString>
        <CharString name="adieresis">
          -14 callsubr
          159 111 hstemhm
          0 92 228 40 callgsubr
          hintmask 10101111
          -100 callgsubr
          hintmask 01011111
          -75 callgsubr
          hintmask 10101111
          -98 callsubr
          256 755 rmoveto
          -102 callgsubr
        </CharString>
        <CharString name="ae">
          156 63 callgsubr
          hstemhm
          1 92 229 94 317 80 hintmask 11011100
          80 callsubr
          hintmask 10111100
          24 58 rlineto
          -102 hlineto
          -16 -37 rlineto
          hintmask 11011100
          -62 callsubr
          endchar
        </CharString>
        <CharString name="aeacute">
          156 44 callsubr
          1 92 229 94 317 80 hintmask 11011110
          80 callsubr
          hintmask 10111110
          24 58 rlineto
          -102 hlineto
          -16 -37 rlineto
          hintmask 11011110
          -62 callsubr
          73 329 -97 callgsubr
          endchar
        </CharString>
        <CharString name="agrave">
          -14 callsubr
          347 -20 hstemhm
          0 92 290 92 hintmask 10101110
          -100 callgsubr
          hintmask 01011110
          -75 callgsubr
          hintmask 10101110
          -98 callsubr
          339 617 -63 callgsubr
        </CharString>
        <CharString name="amacron">
          -14 callsubr
          199 71 hstemhm
          0 92 hintmask 10101100
          -100 callgsubr
          hintmask 01011100
          -75 callgsubr
          hintmask 10101100
          -98 callsubr
          468 684 -49 callsubr
        </CharString>
        <CharString name="ampersand">
          283 -10 98 314 96 66 169 -71 118 -91 44 -19 66 hstemhm
          93 65 36 43 -43 181 98 50 -50 128 144 239 -209 57 114 38 hintmask 1110001011010000
          449 88 rmoveto
          -169 -122 84 122 65 35 56 48 18 hvcurveto
          -19 23 31 -12 24 hhcurveto
          33 23 21 29 27 -26 19 -37 -18 -22 -4 -7 -17 hvcurveto
          hintmask 1110001101010000
          -12 19 -6 30 28 vvcurveto
          hintmask 1100101101010000
          69 50 56 59 vhcurveto
          hintmask 1110001101001100
          92 -80 -125 85 hhcurveto
          34 22 25 37 58 -59 49 -72 -94 -80 -83 -96 -34 10 -33 16 -23 hvcurveto
          -81 -45 -46 -75 -96 vvcurveto
          -154 130 -104 193 226 190 141 180 66 -27 50 -45 19 vhcurveto
          1 4 rlineto
          hintmask 1101001101010000
          144 24 79 65 121 vvcurveto
          82 -51 38 -71 -65 -52 -33 -46 -25 16 -14 23 vhcurveto
          hintmask 1100011100101100
          43 11 52 47 hhcurveto
          32 29 -23 -48 -97 -95 -20 -118 -19 hvcurveto
          -215 -36 -45 -38 -83 vvcurveto
          -54 40 -28 34 28 26 14 27 vhcurveto
          hintmask 1110001101001100
          55 -78 -28 45 vvcurveto
          33 54 35 65 80 53 -45 -78 -134 -140 -104 -186 vhcurveto
          endchar
        </CharString>
        <CharString name="ampersand.ss01">
          165 -10 104 234 212 -134 50 -50 218 -189 105 -52 52 316 -20 hstemhm
          37 61 294 101 -87 87 -70 99 112 38 122 100 -65 65 hintmask 1001001110011000
          894 550 rmoveto
          44 -22 30 -32 -27 -19 -20 -26 vhcurveto
          hintmask 1010011110010100
          -36 35 -23 -35 vvcurveto
          -19 -11 -9 -22 vhcurveto
          hintmask 1100001100111000
          -66 -49 84 -95 hhcurveto
          -86 -77 -69 -77 -39 20 -27 29 27 23 23 29 hvcurveto
          hintmask 1010011110011000
          32 -29 3 34 vvcurveto
          25 15 14 25 27 35 -16 -31 40 vhcurveto
          -16 0 -6 -1 -15 vhcurveto
          -184 -12 -122 -126 -167 hhcurveto
          -51 -40 12 30 -52 hvcurveto
          237 479 rlineto
          52 105 18 48 33 vvcurveto
          34 -19 21 -30 -35 -21 -26 -41 vhcurveto
          hintmask 1000101101011000
          -33 14 -19 -36 vvcurveto
          -38 -15 -43 -41 -80 vhcurveto
          -168 -145 -139 -160 -144 116 -107 155 207 157 186 247 hvcurveto
          hintmask 1010011110011000
          -10 15 31 -7 28 hhcurveto
          80 68 66 78 hvcurveto
          -600 -120 rmoveto
          -133 -270 rlineto
          -45 44 -18 36 49 vvcurveto
          hintmask 1000101110011000
          89 56 57 90 15 17 -2 -3 18 vhcurveto
          endchar
        </CharString>
        <CharString name="aogonek">
          -43 -256 55 191 39 callgsubr
          hstemhm
          0 92 70 97 hintmask 11011100
          361 -48 callsubr
          41 51 63 89 70 hvcurveto
          42 19 47 41 49 62 -20 14 rcurveline
          -75 callgsubr
          hintmask 11101100
          34 -24 -22 13 -37 hhcurveto
          -165 -206 -237 -181 -83 42 -49 68 67 61 48 114 78 hvcurveto
          6 -3 rlineto
          -27 -43 -7 -29 -29 vvcurveto
          -35 18 -19 30 -3 vhcurveto
          -107 -65 -67 -74 37 callsubr
          -237 223 rmoveto
          -27 -10 18 40 145 190 280 100 26 20 -19 -31 -19 -2 -21 -20 -46 hvcurveto
          -189 -81 -128 -158 -68 hhcurveto
          endchar
        </CharString>
        <CharString name="apostrophe">
          -499 650 -21 228 -20 hstemhm
          22 117 -54 54 hintmask 11010000
          61 752 21 callgsubr
          hintmask 11100000
          75 callgsubr
        </CharString>
        <CharString name="aring">
          -14 callsubr
          141 35 96 35 hstemhm
          0 92 293 38 106 38 hintmask 1010111110000000
          -100 callgsubr
          hintmask 0101111110000000
          -75 callgsubr
          hintmask 1010111110000000
          -98 callsubr
          353 792 -52 callgsubr
          endchar
        </CharString>
        <CharString name="aringacute">
          -44 63 callgsubr
          89 35 96 35 195 -20 hstemhm
          0 92 hintmask 11011110
          -100 callgsubr
          -62 -56 -35 -27 -20 hhcurveto
          -10 -6 7 12 8 2 8 8 25 hvcurveto
          hintmask 10111110
          172 421 rlineto
          -102 hlineto
          -16 -37 rlineto
          hintmask 11011110
          -98 callsubr
          339 740 -52 callgsubr
          1 86 -93 callsubr
        </CharString>
        <CharString name="asciicircum">
          -150 353 -21 379 -20 hstem
          116 332 rmoveto
          288 317 rlineto
          4 hlineto
          28 -317 rlineto
          36 hlineto
          -27 379 rlineto
          -36 hlineto
          -341 -379 rlineto
          endchar
        </CharString>
        <CharString name="asciitilde">
          -61 223 84 -31 83 hstemhm
          hintmask 10000000
          85 223 rmoveto
          hintmask 01000000
          31 18 20 22 45 hhcurveto
          hintmask 10000000
          73 55 -53 71 hhcurveto
          hintmask 01000000
          92 50 84 52 16 hvcurveto
          -30 hlineto
          hintmask 10000000
          -31 -18 -21 -21 -45 hhcurveto
          hintmask 01000000
          -74 -52 52 -72 hhcurveto
          hintmask 10000000
          -92 -50 -84 -52 -16 hvcurveto
          endchar
        </CharString>
        <CharString name="asterisk">
          -161 453 -21 83 233 82 -20 hstemhm
          219 241 -165 240 -157 82 -82 200 hintmask 11101000
          404 592 rmoveto
          -31 32 5 -46 40 hhcurveto
          26 28 20 30 34 -61 -6 -50 26 hvcurveto
          -25 13 34 13 rlineto
          hintmask 11100010
          67 26 78 -11 60 vvcurveto
          16 -10 12 -22 -38 -23 -38 -40 -61 vhcurveto
          -30 -20 12 32 rlineto
          hintmask 11100100
          20 54 33 25 1 42 rrcurveto
          18 -12 9 -15 -26 -29 -24 -52 vhcurveto
          -12 1 -12 -14 vvcurveto
          -9 0 -11 -2 -12 vhcurveto
          -5 -34 -21 19 rlineto
          33 -36 -2 45 -40 hhcurveto
          hintmask 11110000
          -30 -24 -24 -27 -35 62 5 47 -22 hvcurveto
          28 -13 -33 -13 -70 -28 -76 9 -1 -58 rlinecurve
          -16 11 -11 21 40 30 46 31 50 vhcurveto
          34 21 -13 -33 rlineto
          hintmask 11101000
          -19 -48 -35 -40 -33 vvcurveto
          -16 10 -10 18 24 18 17 23 6 vhcurveto
          7 26 -4 35 5 45 4 34 rcurveline
          endchar
        </CharString>
        <CharString name="at">
          272 -178 44 155 50 -37 55 318 43 115 45 hstemhm
          42 91 105 87 177 80 -36 36 196 50 hintmask 1101111101000000
          637 -94 rmoveto
          -24 -40 -55 -16 -82 hhcurveto
          -250 -77 172 132 206 131 189 218 168 128 -99 -157 -155 -78 -83 -70 -32 -16 16 32 11 2 14 5 16 hvcurveto
          81 290 rlineto
          -80 hlineto
          -11 -39 rlineto
          -4 hlineto
          22 -13 -29 17 -31 hhcurveto
          -138 -126 -177 -109 hvcurveto
          hintmask 1011111101000000
          -84 42 -46 70 49 53 18 76 51 vhcurveto
          4 -1 rlineto
          -3 -5 -2 -8 -7 vvcurveto
          hintmask 1101111101000000
          -55 36 -31 59 133 98 135 158 152 -125 144 -211 -235 -215 -173 -268 -240 196 -107 188 94 70 20 35 58 vhcurveto
          hintmask 1011111011000000
          -269 212 rmoveto
          -37 -17 20 51 91 107 156 71 32 11 -24 -32 -103 -89 -159 -78 hvcurveto
          endchar
        </CharString>
        <CharString name="atilde">
          -14 callsubr
          172 -32 callgsubr
          0 92 hintmask 1010100110000000
          -100 callgsubr
          hintmask 0101100110000000
          -75 callgsubr
          hintmask 1010010110000000
          -98 callsubr
          180 658 -31 callsubr
          hintmask 1010100110000000
          -89 callsubr
          hintmask 1010001010000000
          -68 callsubr
        </CharString>
        <CharString name="b">
          -73 -10 35 480 35 280 -20 hstem
          34 82 319 97 vstem
          205 805 rmoveto
          78 -12 -222 -544 6 callgsubr
          38 callsubr
          141 358 rlineto
          -192 hlineto
          -12 -510 -20 callgsubr
          endchar
        </CharString>
        <CharString name="backslash">
          -21 84 callgsubr
          408 -169 rmoveto
          -97 988 rlineto
          -70 hlineto
          98 -988 rlineto
          endchar
        </CharString>
        <CharString name="bar">
          -337 -149 -21 989 -20 hstem
          41 53 callgsubr
        </CharString>
        <CharString name="bar.tnum">
          -149 -21 989 -20 hstem
          44 53 callgsubr
        </CharString>
        <CharString name="braceleft">
          -289 92 callgsubr
          -14 87 49 85 vstem
          162 -151 rmoveto
          -4 -14 -14 -2 -15 hhcurveto
          -31 -15 12 28 14 3 17 7 21 hvcurveto
          28 86 96 178 65 vvcurveto
          32 -14 19 -29 13 vhcurveto
          1 4 56 19 36 42 23 71 rlinecurve
          24 74 10 106 18 55 rrcurveto
          58 18 35 37 43 hhcurveto
          11 8 -1 -4 21 hvcurveto
          14 26 rlineto
          8 -17 -18 5 -24 hhcurveto
          -86 -65 -45 -82 -26 hvcurveto
          -20 -60 -6 -102 -25 -76 rrcurveto
          -83 -27 -39 -37 -69 hhcurveto
          -8 -23 rlineto
          48 22 -16 -39 -18 -5 -24 -9 -29 hvcurveto
          -38 -118 -84 -133 -71 vvcurveto
          -46 31 -20 66 26 23 5 9 27 vhcurveto
          endchar
        </CharString>
        <CharString name="braceright">
          -290 92 callgsubr
          176 84 38 87 vstem
          -108 -180 rmoveto
          -9 21 19 -5 26 hhcurveto
          87 52 36 88 29 hvcurveto
          23 72 8 104 29 88 rrcurveto
          91 29 36 35 71 hhcurveto
          8 23 rlineto
          -48 -22 18 38 17 5 21 8 26 hvcurveto
          35 106 77 122 60 vvcurveto
          50 -35 27 -67 -24 -22 -5 -8 -23 vhcurveto
          -2 -26 rlineto
          4 23 8 1 11 hhcurveto
          30 14 -18 -30 -14 -2 -16 -6 -17 hvcurveto
          -25 -77 -89 -148 -74 vvcurveto
          -34 14 -22 27 -12 vhcurveto
          -1 -4 -57 -20 -33 -35 -23 -71 rlinecurve
          -170 -55 12 -189 -114 hhcurveto
          -15 -12 2 4 -12 hvcurveto
          endchar
        </CharString>
        <CharString name="bracketleft">
          -284 -187 31 944 32 hstem
          164 -187 rmoveto
          10 31 rlineto
          -117 hlineto
          306 944 rlineto
          118 hlineto
          10 32 rlineto
          -199 hlineto
          -326 -1007 rlineto
          endchar
        </CharString>
        <CharString name="bracketright">
          -285 -187 31 944 32 hstem
          86 -187 rmoveto
          327 1007 rlineto
          -199 hlineto
          -10 -32 rlineto
          118 hlineto
          -306 -944 rlineto
          -118 hlineto
          -10 -31 rlineto
          endchar
        </CharString>
        <CharString name="breve">
          -334 651 27 callgsubr
          10 45 hintmask 01100000
          20 790 rmoveto
          -85 callsubr
          hintmask 10100000
          -17 callgsubr
          hintmask 01100000
          -30 callsubr
        </CharString>
        <CharString name="breve.cap">
          -334 821 27 callgsubr
          10 45 hintmask 01100000
          20 960 rmoveto
          -85 callsubr
          hintmask 10100000
          -17 callgsubr
          hintmask 01100000
          -30 callsubr
        </CharString>
        <CharString name="brokenbar">
          -386 -150 -21 990 -20 hstem
          220 432 rmoveto
          125 387 rlineto
          -67 hlineto
          -125 -387 rlineto
          -129 -603 rmoveto
          125 387 rlineto
          -67 hlineto
          -124 -387 rlineto
          endchar
        </CharString>
        <CharString name="bullet">
          -221 260 230 hstem
          251 490 rmoveto
          -71 -64 -56 -69 -63 44 -42 70 69 69 63 65 58 -55 44 -62 hvcurveto
          endchar
        </CharString>
        <CharString name="c">
          14 callgsubr
          hstemhm
          10 99 hintmask 10110000
          9 callgsubr
          hintmask 11010000
          -82 callsubr
          hintmask 10110000
          20 callgsubr
          vhcurveto
          endchar
        </CharString>
        <CharString name="c_p">
          421 -229 -21 240 35 -15 29 370 131 -31 31 85 64 callsubr
          10 99 246 56 392 78 33 104 hintmask 1100111111110000
          82 callgsubr
          hintmask 1011011111110000
          -20 4 6 -28 36 hhcurveto
          26 18 15 27 29 -20 21 -27 20 hvcurveto
          -40 29 -22 17 40 vvcurveto
          47 31 26 54 vhcurveto
          79 43 -40 callsubr
          -16 -21 -38 vhcurveto
          -38 vlineto
          -4 0 -4 -1 -4 vhcurveto
          -10 -20 -26 -6 -26 -100 -75 89 -100 hhcurveto
          -62 -38 -35 -57 -40 18 -38 36 -34 hvcurveto
          66 callsubr
          hintmask 1100111111110000
          30 callsubr
          154 159 256 118 hvcurveto
          401 -12 80 callgsubr
          hvcurveto
          hintmask 1011011111110000
          70 callgsubr
          vhcurveto
          endchar
        </CharString>
        <CharString name="c_t">
          198 -10 35 -35 59 360 121 -21 21 10 -20 105 64 callsubr
          10 99 246 56 106 100 186 78 hintmask 1001011111110000
          82 callgsubr
          hintmask 0110011111110000
          -20 4 6 -28 36 hhcurveto
          26 18 15 27 29 -20 21 -27 20 hvcurveto
          -40 29 -22 17 40 vvcurveto
          47 31 26 54 vhcurveto
          79 43 48 callgsubr
          -50 callgsubr
          -11 callgsubr
          hintmask 1000111111110000
          -40 18 -38 36 -34 vhcurveto
          66 callsubr
          30 callsubr
          hvcurveto
          hintmask 1001011111110000
          154 159 256 118 vhcurveto
          endchar
        </CharString>
        <CharString name="cacute">
          14 callgsubr
          93 callsubr
          10 99 hintmask 10111000
          9 callgsubr
          hintmask 11011000
          -82 callsubr
          hintmask 10111000
          20 callgsubr
          vhcurveto
          -22 122 -97 callgsubr
          endchar
        </CharString>
        <CharString name="caron">
          -333 649 -21 229 -20 hstem
          66 628 -87 callgsubr
        </CharString>
        <CharString name="caron.alt">
          -484 663 -21 215 -20 hstem
          35 642 -34 callgsubr
        </CharString>
        <CharString name="caron.cap">
          -333 841 -21 140 -20 hstem
          108 820 -91 callsubr
        </CharString>
        <CharString name="ccaron">
          14 callgsubr
          76 callsubr
          10 99 hintmask 10101100
          9 callgsubr
          hintmask 11001100
          -82 callsubr
          hintmask 10101100
          20 callgsubr
          vhcurveto
          hintmask 10011100
          36 119 -87 callgsubr
        </CharString>
        <CharString name="ccedilla">
          -150 65 callgsubr
          48 35 384 131 -31 31 hstemhm
          10 99 38 82 hintmask 11101110
          -11 -47 callgsubr
          39 52 75 13 77 52 74 87 rlinecurve
          -22 13 rlineto
          -89 -87 -73 -45 -56 hhcurveto
          -43 -16 24 50 20 callgsubr
          25 12 -15 -37 6 hvcurveto
          hintmask 11110110
          -33 5 15 -15 26 hhcurveto
          26 18 16 24 50 -52 41 -69 -66 -84 -33 -56 -72 hvcurveto
          -105 -82 -61 -117 -1 -109 rrcurveto
          -99 43 -52 83 -2 vhcurveto
          -87 -111 -55 callsubr
        </CharString>
        <CharString name="ccircumflex">
          14 callgsubr
          93 callsubr
          10 99 hintmask 10111000
          9 callgsubr
          hintmask 11011000
          -82 callsubr
          hintmask 10111000
          20 callgsubr
          vhcurveto
          121 348 -99 callsubr
        </CharString>
        <CharString name="cdotaccent">
          14 callgsubr
          77 callsubr
          hstemhm
          10 99 282 129 hintmask 10111100
          9 callgsubr
          hintmask 11011100
          -82 callsubr
          hintmask 10111100
          20 callgsubr
          vhcurveto
          77 271 12 callsubr
          endchar
        </CharString>
        <CharString name="cedilla">
          -418 65 callgsubr
          75 -20 hstem
          131 82 vstem
          -27 -47 callgsubr
          57 75 rlineto
          -40 hlineto
          -109 -138 -55 callsubr
        </CharString>
        <CharString name="cent">
          -127 90 callgsubr
          15 99 vstem
          483 -52 callsubr
        </CharString>
        <CharString name="cent.tnum">
          -152 90 callgsubr
          18 99 vstem
          486 -52 callsubr
        </CharString>
        <CharString name="circumflex">
          -333 649 -21 229 -20 hstem
          249 857 -99 callsubr
        </CharString>
        <CharString name="circumflex.cap">
          -334 841 -21 140 -20 hstem
          206 960 -96 callgsubr
        </CharString>
        <CharString name="colon">
          -321 -10 147 217 147 hstemhm
          2 161 -42 161 hintmask 11100000
          88 -10 callsubr
        </CharString>
        <CharString name="colon.tnum">
          -348 -10 147 217 147 hstemhm
          20 161 -42 161 hintmask 11100000
          106 -10 callsubr
        </CharString>
        <CharString name="comma">
          -359 -165 -21 323 -20 hstemhm
          -27 156 -64 64 hintmask 11010000
          30 hmoveto
          -34 callsubr
          hintmask 11100000
          19 callsubr
        </CharString>
        <CharString name="comma.tnum">
          -348 -165 -21 323 -20 hstemhm
          37 156 -64 64 hintmask 11010000
          94 hmoveto
          -34 callsubr
          hintmask 11100000
          19 callsubr
        </CharString>
        <CharString name="commaaccent">
          -512 -236 -21 203 -20 hstem
          10 116 vstem
          39 -159 -95 callsubr
        </CharString>
        <CharString name="copyright">
          327 -10 48 98 38 430 38 90 48 hstem
          127 47 105 105 489 48 vstem
          127 385 rmoveto
          -217 178 -178 219 219 178 178 217 217 -178 178 -219 -219 -178 -178 -217 vhcurveto
          47 hmoveto
          191 157 156 193 193 156 -156 -191 -191 -156 -156 -193 -193 -157 156 191 vhcurveto
          105 1 rmoveto
          -148 99 -102 144 53 42 16 36 43 vhcurveto
          29 -51 rlineto
          15 179 -22 hlineto
          -7 -34 -11 -28 -15 -21 rrcurveto
          -39 -26 -39 -20 -48 hhcurveto
          -96 -56 79 137 137 54 77 97 56 37 -20 -46 27 hvcurveto
          12 -21 6 -15 7 -21 rrcurveto
          24 159 -15 hlineto
          -27 -42 rlineto
          -4 hlineto
          29 -39 -47 15 -48 hhcurveto
          -143 -102 -107 -149 hvcurveto
          endchar
        </CharString>
        <CharString name="currency">
          62 148 -21 25 64 302 64 25 -20 hstem
          168 70 290 70 vstem
          257 194 rmoveto
          -28 36 42 -14 48 hhcurveto
          49 42 14 28 35 hvcurveto
          66 -67 48 48 -66 66 rlineto
          27 37 14 43 47 vvcurveto
          48 -14 42 -28 35 vhcurveto
          67 66 -48 48 -65 -66 rlineto
          27 -38 -43 14 -46 hhcurveto
          -48 -44 -15 -27 -34 hvcurveto
          -66 67 -48 -48 67 -65 rlineto
          -28 -36 -14 -42 -48 vvcurveto
          -49 14 -44 28 -34 vhcurveto
          -67 -66 48 -48 rlineto
          192 89 rmoveto
          -79 -66 69 83 82 66 68 79 79 66 -68 -83 -83 -66 -68 -79 hvcurveto
          endchar
        </CharString>
        <CharString name="d">
          -45 -10 69 callgsubr
          hintmask 11110000
          -69 callsubr
          hintmask 11101000
          -71 callsubr
          endchar
        </CharString>
        <CharString name="dagger">
          -133 -115 -21 684 91 -65 65 191 -20 hstemhm
          hintmask 10110000
          154 -136 rmoveto
          81 226 50 116 61 105 1 73 13 82 28 108 rrcurveto
          hintmask 11010000
          15 callgsubr
          15 28 21 30 rrcurveto
          36 49 8 15 18 -12 callgsubr
          hintmask 10110000
          31 31 26 88 hhcurveto
          -50 -120 -39 -79 -39 -64 -9 -103 -25 -113 -64 -231 rrcurveto
          endchar
        </CharString>
        <CharString name="daggerdbl">
          -79 -117 -21 191 65 -65 91 404 91 -65 65 191 -20 hstemhm
          hintmask 11010100
          252 351 rmoveto
          -1 -64 -10 -73 -21 -96 rrcurveto
          hintmask 10110100
          -85 -24 26 -38 hhcurveto
          -34 -26 -22 -29 -23 20 -17 26 12 12 2 18 51 hvcurveto
          25 9 37 8 15 2 -4 -12 rcurveline
          -11 -34 -14 -28 -22 -30 rrcurveto
          -36 -49 -8 -15 -18 vvcurveto
          -26 19 -18 26 39 12 24 101 9 vhcurveto
          4 46 3 21 9 26 4 12 rcurveline
          -17 86 32 -22 21 hhcurveto
          37 27 20 29 24 -19 18 -25 hvcurveto
          hintmask 11001100
          -31 -31 -26 -88 hhcurveto
          46 104 36 70 36 59 1 61 7 70 21 92 rrcurveto
          hintmask 11010100
          15 callgsubr
          14 28 22 30 rrcurveto
          36 49 8 14 19 -12 callgsubr
          hintmask 11001100
          31 31 26 88 hhcurveto
          -42 -100 -40 -67 -33 -56 rrcurveto
          endchar
        </CharString>
        <CharString name="dcaron">
          -44 -10 35 483 32 280 -20 57 -20 hstem
          3 90 vstem
          -69 callsubr
          -71 callsubr
          600 617 -34 callgsubr
        </CharString>
        <CharString name="dcroat">
          -45 -10 35 -35 59 459 32 122 42 -42 158 hstemhm
          3 90 0 199 hintmask 10110100
          486 805 rmoveto
          77 -12 -35 -89 rlineto
          -109 hlineto
          -17 -42 rlineto
          110 hlineto
          -65 -169 rlineto
          34 -25 -22 13 -38 hhcurveto
          -167 -192 -234 -186 -87 37 -43 72 72 55 44 118 80 hvcurveto
          2 -3 rlineto
          hintmask 01110010
          49 callgsubr
          -48 17 -24 44 56 62 46 88 65 72 callsubr
          -55 -30 -27 -20 hhcurveto
          -10 -8 5 14 8 2 9 9 24 hvcurveto
          208 553 rlineto
          76 hlineto
          18 42 rlineto
          -78 hlineto
          hintmask 10101100
          44 116 rlineto
          -191 hlineto
          -78 callgsubr
          endchar
        </CharString>
        <CharString name="ddotbelow">
          -45 0 callsubr
          69 callgsubr
          -184 137 hintmask 11111010
          -69 callsubr
          hintmask 11110100
          -71 callsubr
          51 -156 rmoveto
          hintmask 11111010
          -105 callgsubr
          endchar
        </CharString>
        <CharString name="degree">
          -293 587 41 162 40 hstem
          224 41 160 41 vstem
          345 -5 callsubr
        </CharString>
        <CharString name="degree.tnum">
          -336 587 41 162 40 hstem
          35 41 160 41 vstem
          156 -5 callsubr
        </CharString>
        <CharString name="dieresis">
          -331 669 111 hstem
          10 76 callgsubr
          75 780 rmoveto
          -102 callgsubr
        </CharString>
        <CharString name="dieresis.cap">
          -331 849 111 hstem
          10 76 callgsubr
          75 960 rmoveto
          -102 callgsubr
        </CharString>
        <CharString name="divide">
          -115 102 138 75 49 81 138 hstem
          205 138 vstem
          205 -17 callsubr
        </CharString>
        <CharString name="divide.tnum">
          -48 102 138 75 49 81 138 hstem
          223 138 vstem
          223 -17 callsubr
        </CharString>
        <CharString name="dollar">
          -71 57 callsubr
          182 105 84 108 hintmask 11011110
          560 -69 callgsubr
        </CharString>
        <CharString name="dollar.tnum">
          -62 57 callsubr
          176 105 84 108 hintmask 11011110
          554 -69 callgsubr
        </CharString>
        <CharString name="dotaccent">
          -491 655 125 hstem
          10 137 vstem
          83 5 callgsubr
          endchar
        </CharString>
        <CharString name="dotaccent.cap">
          -491 835 125 hstem
          10 137 vstem
          83 960 12 callsubr
          endchar
        </CharString>
        <CharString name="dotbelow">
          -499 -256 125 hstem
          10 137 vstem
          83 -131 12 callsubr
          endchar
        </CharString>
        <CharString name="dotlessi">
          47 callsubr
          hstem
          227 540 -107 callsubr
          endchar
        </CharString>
        <CharString name="dotlessj">
          -342 -46 callsubr
          624 48 hstemhm
          177 107 hintmask 10110000
          221 540 3 callgsubr
          hintmask 01110000
          -90 callgsubr
          30 -21 18 -42 vhcurveto
          endchar
        </CharString>
        <CharString name="e">
          -10 callgsubr
          hstem
          0 97 317 80 vstem
          -106 callsubr
          endchar
        </CharString>
        <CharString name="e_t">
          191 -10 35 -35 59 449 42 -10 -20 115 64 callsubr
          0 97 251 56 10 80 16 100 186 78 hintmask 1010111111110000
          401 -15 callgsubr
          -180 -221 -231 -184 -86 48 -49 82 85 86 52 103 82 hvcurveto
          -22 14 rlineto
          -23 callgsubr
          -39 -19 21 46 46 19 60 38 71 hvcurveto
          200 35 140 83 84 vvcurveto
          28 -16 15 -21 14 vhcurveto
          -25 17 -28 20 44 vvcurveto
          46 30 25 54 vhcurveto
          81 41 -55 100 hhcurveto
          27 26 4 8 23 hvcurveto
          hintmask 1001111111110000
          -15 -34 -30 -36 -43 -37 rrcurveto
          -86 hlineto
          hintmask 0110111111110000
          -50 callgsubr
          hintmask 1001111111110000
          -11 callgsubr
          hintmask 1010111111110000
          -40 18 -38 35 -34 vhcurveto
          -193 -179 rmoveto
          87 47 72 61 28 callgsubr
          endchar
        </CharString>
        <CharString name="eacute">
          -10 callgsubr
          317 -20 hstem
          0 97 317 80 vstem
          -106 callsubr
          229 329 -97 callgsubr
          endchar
        </CharString>
        <CharString name="ebreve">
          -10 callgsubr
          85 callgsubr
          0 97 235 45 37 80 hintmask 11011110
          -106 callsubr
          166 488 rmoveto
          -85 callsubr
          hintmask 11101110
          -17 callgsubr
          hintmask 11011110
          -30 callsubr
        </CharString>
        <CharString name="ecaron">
          -10 callgsubr
          76 callsubr
          0 97 317 80 hintmask 11011100
          -106 callsubr
          hintmask 10111100
          236 326 -87 callgsubr
        </CharString>
        <CharString name="ecircumflex">
          -10 callgsubr
          317 -20 hstem
          0 97 317 80 vstem
          -106 callsubr
          332 555 -99 callsubr
        </CharString>
        <CharString name="edieresis">
          -10 callgsubr
          129 111 hstemhm
          0 97 212 122 -17 80 -10 122 hintmask 11110100
          -106 callsubr
          198 478 rmoveto
          hintmask 11111010
          -102 callgsubr
        </CharString>
        <CharString name="edotaccent">
          -10 callgsubr
          77 callsubr
          hstemhm
          0 97 264 133 -80 80 hintmask 11111000
          398 -15 callgsubr
          -177 -221 -231 -184 -86 48 -49 82 85 86 52 103 82 hvcurveto
          -22 14 rlineto
          -23 callgsubr
          -39 -19 21 46 46 19 60 38 71 hvcurveto
          200 35 140 83 84 vvcurveto
          43 -37 26 -59 vhcurveto
          -190 -179 rmoveto
          85 45 74 63 55 hhcurveto
          hintmask 11110100
          -60 callgsubr
          258 478 rmoveto
          hintmask 11111000
          -105 callgsubr
          endchar
        </CharString>
        <CharString name="edotbelow">
          -163 0 callsubr
          35 484 31 hstemhm
          0 97 -97 126 288 80 hintmask 11110100
          -106 callsubr
          -114 -433 rmoveto
          -38 -35 -31 -37 -34 24 -23 38 hvcurveto
          hintmask 11101100
          38 37 34 36 31 -30 24 -34 hvcurveto
          endchar
        </CharString>
        <CharString name="egrave">
          -10 callgsubr
          93 callsubr
          0 97 277 92 -52 80 hintmask 11110100
          -106 callsubr
          284 340 12 callgsubr
        </CharString>
        <CharString name="eight">
          -27 -10 42 706 42 hstemhm
          37 88 callgsubr
          274 -54 callgsubr
        </CharString>
        <CharString name="eight.denominator">
          -253 -10 37 392 36 hstemhm
          -26 34 callsubr
          hintmask 11111000
          117 60 callgsubr
          -36 callsubr
          hintmask 11110100
          -51 callgsubr
          hintmask 11111000
          -72 callsubr
          hintmask 11110100
          -2 callgsubr
          endchar
        </CharString>
        <CharString name="eight.numerator">
          -252 314 37 392 36 hstemhm
          112 34 callsubr
          hintmask 11111000
          255 564 33 callsubr
          -36 callsubr
          hintmask 11110100
          -51 callgsubr
          hintmask 11111000
          -72 callsubr
          hintmask 11110100
          -2 callgsubr
          endchar
        </CharString>
        <CharString name="eight.oldstyle">
          -86 -10 45 678 45 hstem
          17 97 63 103 75 108 19 88 vstem
          391 419 rmoveto
          106 52 73 91 83 vvcurveto
          68 -54 45 -84 -139 -116 -100 -116 -56 26 -50 45 -47 vhcurveto
          -145 -61 -86 -97 -102 vvcurveto
          -88 60 -51 104 161 121 114 151 41 -19 57 -53 66 vhcurveto
          -29 25 rmoveto
          -54 43 -28 58 50 vvcurveto
          66 58 52 75 43 26 -26 -44 -63 -45 -82 -75 -54 vhcurveto
          -86 -84 rmoveto
          56 -47 23 -58 -58 vvcurveto
          -92 -67 -70 -90 -56 -28 28 58 88 70 106 92 45 vhcurveto
          endchar
        </CharString>
        <CharString name="eight.tnum">
          -48 -10 42 706 42 hstemhm
          -30 88 callgsubr
          207 -54 callgsubr
        </CharString>
        <CharString name="eightinferior">
          -225 -161 41 436 40 hstemhm
          -86 83 26 76 61 79 -18 75 hintmask 11111000
          73 117 rmoveto
          -63 -27 -96 -42 -89 vvcurveto
          -62 48 -58 107 85 85 50 108 30 -12 38 -30 38 vhcurveto
          -21 26 rlineto
          hintmask 11110100
          55 24 65 42 70 vvcurveto
          54 -46 37 -75 -77 -75 -41 -86 -32 14 -33 23 -30 vhcurveto
          69 -88 rmoveto
          hintmask 11111000
          23 -38 8 -23 -32 vvcurveto
          -39 -31 -34 -52 -54 -26 39 44 75 44 25 58 33 vhcurveto
          47 57 rmoveto
          -36 44 -11 28 29 vvcurveto
          37 32 25 40 vhcurveto
          hintmask 11110100
          35 15 -20 -24 -54 -34 -35 -41 -30 hvcurveto
          endchar
        </CharString>
        <CharString name="eightsuperior">
          -224 409 41 436 40 hstemhm
          156 83 26 76 61 79 -18 75 hintmask 11111000
          315 687 rmoveto
          -109 -47 -50 -49 -61 vvcurveto
          -72 61 -49 89 103 72 62 90 40 -14 36 -28 36 vhcurveto
          -21 26 rlineto
          hintmask 11110100
          76 32 44 49 53 vvcurveto
          57 -47 36 -73 -90 -63 -51 -73 -34 12 -32 25 -32 vhcurveto
          69 -88 rmoveto
          hintmask 11111000
          20 -27 11 -29 -28 vvcurveto
          -52 -31 -30 -51 -51 -30 32 56 53 22 28 74 43 vhcurveto
          53 61 rmoveto
          -32 38 -15 32 28 vvcurveto
          39 29 26 43 vhcurveto
          hintmask 11110100
          33 17 -16 -33 -39 -27 -41 -48 -34 hvcurveto
          endchar
        </CharString>
        <CharString name="ellipsis">
          116 -10 147 hstem
          -32 161 80 161 80 161 cntrmask 01110000
          54 40 callsubr
          241 hmoveto
          -82 callgsubr
          241 hmoveto
          11 callgsubr
        </CharString>
        <CharString name="emacron">
          -10 callgsubr
          169 71 hstem
          0 97 317 80 vstem
          -106 callsubr
          397 407 -49 callsubr
        </CharString>
        <CharString name="emdash">
          434 222 60 hstem
          968 222 rmoveto
          25 60 rlineto
          -920 hlineto
          -24 -60 rlineto
          endchar
        </CharString>
        <CharString name="endash">
          113 221 61 hstem
          647 221 rmoveto
          25 61 rlineto
          -599 hlineto
          -24 -61 rlineto
          endchar
        </CharString>
        <CharString name="eng">
          -51 -46 callsubr
          153 -21 505 34 1 -20 hstemhm
          483 87 hintmask 10110100
          274 -28 rmoveto
          -146 -63 -28 -47 -43 hhcurveto
          hintmask 01110100
          -60 31 89 -69 hhcurveto
          -31 -15 -18 -27 -50 49 -29 68 99 77 62 113 52 hvcurveto
          204 441 rlineto
          16 35 9 28 30 vvcurveto
          56 -31 30 -60 -74 -65 -46 -113 -86 vhcurveto
          -4 2 rlineto
          26 callgsubr
          hintmask 10101100
          28 -14 12 -34 -64 -74 -44 -70 -51 vhcurveto
          20 -16 rlineto
          51 41 42 34 23 hhcurveto
          10 4 -7 -7 -8 -4 -10 -7 -17 hvcurveto
          -192 -446 rlineto
          97 hlineto
          93 194 rlineto
          hintmask 10110100
          179 86 113 132 68 hhcurveto
          20 12 -11 -19 -15 -7 -19 -6 -14 hvcurveto
          endchar
        </CharString>
        <CharString name="eogonek">
          -163 -256 55 191 35 -13 -21 518 31 hstemhm
          -24 97 -73 97 317 80 hintmask 11011010
          175 -48 callsubr
          42 42 69 104 62 hvcurveto
          51 30 61 49 52 65 -22 14 rcurveline
          -23 callgsubr
          hintmask 11010110
          -39 -19 21 46 46 19 60 38 71 hvcurveto
          200 35 140 83 84 vvcurveto
          43 -37 26 -59 -177 -221 -231 -184 -86 48 -49 82 vhcurveto
          hintmask 10111010
          7 7 1 7 hhcurveto
          -108 -64 -67 -75 37 callsubr
          28 559 36 callsubr
        </CharString>
        <CharString name="equal">
          -20 232 42 108 42 hstem
          139 42 callgsubr
        </CharString>
        <CharString name="equal.tnum">
          -130 232 42 108 42 hstem
          100 42 callgsubr
        </CharString>
        <CharString name="eth">
          -93 -10 35 471 44 279 -20 hstemhm
          13 91 317 94 -74 74 hintmask 11110100
          362 -15 callgsubr
          -162 -187 -208 -181 -101 57 -60 94 179 172 209 217 96 -33 124 -39 52 hvcurveto
          129 82 -22 32 -130 -82 -36 38 -45 29 -71 32 rlinecurve
          -14 -26 64 -32 34 -27 27 -41 rlinecurve
          -135 -87 21 -33 130 84 31 -60 12 -40 3 -55 rlinecurve
          -4 hlineto
          26 -13 -24 12 -38 hhcurveto
          12 -44 rmoveto
          hintmask 11111000
          32 15 -22 -45 -149 -172 -255 -100 -30 -15 23 49 158 163 241 107 hvcurveto
          endchar
        </CharString>
        <CharString name="etilde">
          -10 callgsubr
          142 -32 callgsubr
          0 97 317 80 hintmask 11010111
          -106 callsubr
          96 381 -31 callsubr
          hintmask 11100111
          -89 callsubr
          hintmask 11001011
          -68 callsubr
        </CharString>
        <CharString name="exclam">
          -312 -10 125 665 -20 hstem
          36 134 vstem
          172 230 rmoveto
          47 144 39 90 54 89 rrcurveto
          65 106 14 29 29 vvcurveto
          37 -26 26 -38 -33 -25 -21 -30 -10 vhcurveto
          -7 -20 -16 -61 -18 -77 -81 -341 rcurveline
          -30 -115 rmoveto
          -39 -32 -31 -37 -33 24 -24 35 40 35 31 36 33 -28 25 -35 hvcurveto
          endchar
        </CharString>
        <CharString name="exclamdown">
          -334 -219 -21 655 125 hstem
          126 134 vstem
          124 300 rmoveto
          -47 -144 -40 -89 -53 -90 rrcurveto
          -58 -99 -11 -28 -27 vvcurveto
          -37 26 -26 38 33 20 21 30 10 vhcurveto
          6 19 13 56 17 73 81 341 rcurveline
          30 115 48 callsubr
          endchar
        </CharString>
        <CharString name="f">
          -324 -46 callsubr
          630 32 273 27 hstemhm
          563 88 hintmask 10111000
          517 830 rmoveto
          -106 -110 -63 -167 -74 -32 callsubr
          -272 -110 -79 -92 -53 hhcurveto
          hintmask 01111000
          -53 29 89 -68 hhcurveto
          -29 -18 -15 -26 -49 42 -34 67 140 122 140 319 137 hvcurveto
          127 295 rlineto
          97 hlineto
          13 32 rlineto
          -98 68 callsubr
          149 60 57 64 66 hhcurveto
          30 21 -13 -22 hvcurveto
          -15 -7 -12 -19 vvcurveto
          hintmask 10111000
          71 callsubr
          59 -62 45 -72 vhcurveto
          endchar
        </CharString>
        <CharString name="f_b">
          266 -46 callsubr
          122 35 473 32 10 -20 283 27 hstemhm
          373 82 319 97 hintmask 10110111
          623 790 rmoveto
          24 -25 -41 16 -47 hhcurveto
          13 callsubr
          hintmask 01110111
          -84 callgsubr
          44 19 -26 -60 -29 -3 -18 -14 -35 hvcurveto
          -158 -386 6 callgsubr
          vhcurveto
          hintmask 10101111
          38 callsubr
          145 354 -4 4 rlineto
          -204 -510 -20 callgsubr
          endchar
        </CharString>
        <CharString name="f_f">
          21 -46 callsubr
          630 32 148 152 -79 93 callgsubr
          898 88 hintmask 10101110
          515 780 rmoveto
          -77 callgsubr
          hintmask 01110010
          -104 callgsubr
          235 hlineto
          -144 -355 rlineto
          hintmask 10101110
          -253 -102 -68 -111 -52 -48 22 94 -57 hhcurveto
          -27 -19 -20 -29 -48 41 -32 60 126 110 133 326 141 hvcurveto
          127 295 rlineto
          97 hlineto
          13 32 rlineto
          -98 68 callsubr
          150 60 51 63 63 hhcurveto
          30 20 -14 -22 hvcurveto
          -13 -7 -15 -16 vvcurveto
          hintmask 10110010
          -26 20 -19 29 28 18 19 31 57 -61 45 -77 -70 -75 -38 -57 -52 vhcurveto
          hintmask 10101110
          27 -30 -50 18 -56 hhcurveto
          -210 -250 rmoveto
          -13 callgsubr
          54 25 -28 -62 hvcurveto
          -60 -131 rlineto
          endchar
        </CharString>
        <CharString name="f_f_b">
          611 -46 callsubr
          122 35 473 32 10 -20 231 93 callgsubr
          718 82 319 97 hintmask 1011011110000000
          855 830 rmoveto
          -74 -69 -35 -63 -57 hvcurveto
          29 -30 -51 -74 callsubr
          hintmask 0111011110000000
          -104 callgsubr
          235 hlineto
          -144 -355 rlineto
          hintmask 1011011110000000
          -6 callsubr
          hintmask 0111011110000000
          -84 callgsubr
          44 19 -26 -60 -29 -3 -18 -14 -35 hvcurveto
          -158 -386 6 callgsubr
          vhcurveto
          hintmask 1010111110000000
          38 callsubr
          145 354 -4 4 -109 32 callgsubr
          18 -520 -20 callgsubr
          -351 441 -3 callsubr
          rrcurveto
          hintmask 1011011110000000
          -31 -70 rlineto
          -236 hlineto
          hintmask 1010111110000000
          -13 callgsubr
          endchar
        </CharString>
        <CharString name="f_f_h">
          622 -46 callsubr
          122 59 -28 -21 498 32 9 -20 232 93 callgsubr
          1123 89 hintmask 1010101110000000
          855 830 rmoveto
          -74 -69 -35 -63 -57 hvcurveto
          29 -30 -51 -74 callsubr
          hintmask 0110101110000000
          -104 callgsubr
          235 hlineto
          -144 -355 rlineto
          hintmask 1010101110000000
          -6 callsubr
          hintmask 0101101110000000
          -84 callgsubr
          44 19 -26 -60 -23 -3 -17 -7 -23 hvcurveto
          -270 -654 rlineto
          -64 callsubr
          hintmask 1010011110000000
          -81 callgsubr
          192 434 -4 4 -111 11 callsubr
          -13 callgsubr
          endchar
        </CharString>
        <CharString name="f_f_i">
          370 -46 callsubr
          122 59 449 32 10 -20 143 167 -79 93 callgsubr
          928 103 hintmask 1011001110000000
          650 -26 callsubr
          hintmask 1011010010000000
          15 callsubr
          -81 -74 -35 -64 -59 vhcurveto
          hintmask 1011001110000000
          30 -29 -52 -74 callsubr
          hintmask 0111010010000000
          -104 callgsubr
          235 hlineto
          -144 -355 rlineto
          hintmask 1011010010000000
          -239 -97 -83 -125 -62 hhcurveto
          hintmask 0111010010000000
          -43 callgsubr
          hintmask 1010110010000000
          29 -18 21 -26 vhcurveto
          hintmask 1011001110000000
          -25 -47 -10 -33 hhcurveto
          -299 221 -3 callsubr
          -31 -70 rcurveline
          -236 hlineto
          hintmask 1010101110000000
          -13 callgsubr
          endchar
        </CharString>
        <CharString name="f_f_j">
          337 -46 callsubr
          630 32 10 -20 143 167 -79 93 callgsubr
          856 107 -35 103 hintmask 1010011010000000
          650 -26 callsubr
          hintmask 1010100010000000
          15 callsubr
          -81 -74 -35 -64 -59 vhcurveto
          hintmask 1010011010000000
          30 -29 -52 -74 callsubr
          hintmask 0110100010000000
          -104 callgsubr
          235 hlineto
          -144 -355 rlineto
          hintmask 1010100010000000
          -239 -97 -83 -125 -62 hhcurveto
          hintmask 0110100100000000
          -104 callgsubr
          185 hlineto
          26 7 -9 -10 -21 -15 -39 -65 -167 hvcurveto
          -110 -280 rlineto
          hintmask 1010100010000000
          -148 -58 -34 -45 -40 hhcurveto
          hintmask 0101100100000000
          -90 callgsubr
          30 -14 18 -29 vhcurveto
          hintmask 1010100010000000
          -29 -30 -10 -40 hhcurveto
          hintmask 1001011010000000
          -512 10 rmoveto
          142 59 69 69 85 hhcurveto
          9 callsubr
          rrcurveto
          hintmask 1010100010000000
          -31 -70 rlineto
          -236 hlineto
          endchar
        </CharString>
        <CharString name="f_f_k">
          584 -46 callsubr
          122 43 -12 -21 498 32 10 -20 231 93 callgsubr
          1097 101 hintmask 1010101110000000
          855 830 rmoveto
          -74 -69 -35 -63 -57 hvcurveto
          29 -30 -51 -74 callsubr
          hintmask 0110101110000000
          -104 callgsubr
          235 hlineto
          -144 -355 rlineto
          hintmask 1010101110000000
          -6 callsubr
          hintmask 0101101110000000
          -84 callgsubr
          48 18 -38 -43 -26 -7 -27 -9 -23 hvcurveto
          -269 -646 rlineto
          98 8 callgsubr
          hintmask 1010011110000000
          -66 callgsubr
          155 354 -4 4 -112 11 callsubr
          hintmask 1010011110000000
          -13 callgsubr
          444 -298 rmoveto
          -35 callsubr
        </CharString>
        <CharString name="f_f_l">
          344 -46 callsubr
          122 59 449 32 221 93 callgsubr
          hintmask 10111100
          855 830 rmoveto
          -74 -69 -35 -63 -57 hvcurveto
          29 -30 -51 -74 callsubr
          hintmask 01111100
          -104 callgsubr
          235 hlineto
          -144 -355 rlineto
          hintmask 10111100
          -6 callsubr
          hintmask 01111100
          -84 callgsubr
          44 19 -26 -60 -27 -2 -17 -12 -29 hvcurveto
          -74 -178 -19 callsubr
          -333 -79 rmoveto
          73 callgsubr
          -11 -18 -9 -19 -9 -20 -31 -70 rcurveline
          58 callgsubr
        </CharString>
        <CharString name="f_f_t">
          386 -46 callsubr
          122 59 449 32 168 132 -79 93 callgsubr
          705 100 103 88 hintmask 1011011110000000
          862 830 rmoveto
          -72 -73 -28 -70 -63 hvcurveto
          29 -29 -51 -74 callsubr
          hintmask 0111100110000000
          -104 callgsubr
          235 hlineto
          -144 -355 rlineto
          hintmask 1011100110000000
          -272 -110 -79 -92 -53 hhcurveto
          hintmask 0111011110000000
          -55 callgsubr
          hintmask 1011011110000000
          71 callsubr
          47 -62 37 -72 vhcurveto
          -340 -79 rmoveto
          73 callgsubr
          -10 -18 -10 -19 -9 -20 -31 -70 rcurveline
          58 callgsubr
        </CharString>
        <CharString name="f_h">
          277 -46 callsubr
          122 59 -28 -21 498 32 9 -20 284 27 hstemhm
          778 89 hintmask 10101011
          509 830 rmoveto
          -112 -105 -83 -147 -65 -32 callsubr
          -6 callsubr
          hintmask 01011011
          -104 callgsubr
          97 hlineto
          13 32 rlineto
          -98 68 callsubr
          153 61 54 60 68 hhcurveto
          47 17 -42 -44 -23 -3 -20 -8 -20 hvcurveto
          -270 -654 rlineto
          93 hlineto
          91 194 rlineto
          177 83 119 134 68 hhcurveto
          19 10 -10 -18 -14 -5 -18 -9 -18 hvcurveto
          -134 -269 rlineto
          -23 -46 -12 -36 -31 vvcurveto
          hintmask 10100111
          -36 17 -19 41 64 68 46 88 68 vhcurveto
          -21 15 rlineto
          -54 -48 -44 -36 -22 hhcurveto
          -9 -6 5 10 12 7 18 13 27 hvcurveto
          117 239 rlineto
          20 41 7 33 24 vvcurveto
          54 -36 27 -57 -74 32 callsubr
          192 434 -4 4 -111 -30 rlineto
          24 -25 -40 16 -49 hhcurveto
          endchar
        </CharString>
        <CharString name="f_i">
          25 -46 callsubr
          122 59 449 32 10 -20 143 167 -27 27 hstemhm
          583 103 hintmask 10110011
          305 -26 callsubr
          hintmask 10110101
          15 callsubr
          -125 -108 -83 -147 -64 vhcurveto
          -31 -70 -68 callgsubr
          hintmask 01110101
          -43 callgsubr
          hintmask 10101101
          29 -18 21 -26 vhcurveto
          hintmask 10110101
          -25 -47 -10 -33 hhcurveto
          endchar
        </CharString>
        <CharString name="f_j">
          -8 -46 callsubr
          630 32 10 -20 143 167 -27 27 hstemhm
          511 107 -35 103 hintmask 10100101
          305 -26 callsubr
          hintmask 10101001
          15 callsubr
          -125 -108 -83 -147 -64 vhcurveto
          -31 -70 -68 callgsubr
          hintmask 01101010
          -104 callgsubr
          185 hlineto
          26 7 -9 -10 -21 -15 -39 -65 -167 hvcurveto
          -110 -280 rlineto
          hintmask 10101001
          -148 -58 -34 -45 -40 hhcurveto
          hintmask 01011010
          -90 callgsubr
          30 -14 18 -29 vhcurveto
          hintmask 10101001
          -29 -30 -10 -40 hhcurveto
          endchar
        </CharString>
        <CharString name="f_k">
          239 -46 callsubr
          122 43 -12 -21 498 32 10 -20 283 27 hstemhm
          752 101 hintmask 10101011
          623 790 rmoveto
          24 -25 -41 16 -47 hhcurveto
          13 callsubr
          hintmask 01011011
          -84 callgsubr
          48 16 -41 -43 -26 -6 -27 -8 -20 hvcurveto
          -269 -646 rlineto
          98 8 callgsubr
          hintmask 10100111
          -66 callgsubr
          155 354 -4 4 rlineto
          -114 -367 rmoveto
          -35 callsubr
        </CharString>
        <CharString name="f_l">
          -1 -46 callsubr
          122 59 449 32 273 27 hstemhm
          hintmask 10111000
          510 830 rmoveto
          13 callsubr
          hintmask 01111000
          -84 callgsubr
          44 19 -26 -60 -29 -3 -19 -14 -34 hvcurveto
          -71 -169 -19 callsubr
          endchar
        </CharString>
        <CharString name="f_t">
          41 -46 callsubr
          122 59 449 32 273 27 hstemhm
          360 100 103 88 hintmask 10111110
          517 830 rmoveto
          -106 -110 -63 -167 -74 -32 callsubr
          -272 -110 -79 -92 -53 hhcurveto
          hintmask 01111110
          -55 callgsubr
          hintmask 10111110
          71 callsubr
          47 -62 37 -72 vhcurveto
          endchar
        </CharString>
        <CharString name="five">
          -105 66 callgsubr
          370 116 hintmask 10111100
          115 -37 callgsubr
        </CharString>
        <CharString name="five.denominator">
          -10 82 callsubr
          173 77 hintmask 10111100
          23 222 6 callsubr
          hintmask 01111100
          -41 callsubr
        </CharString>
        <CharString name="five.numerator">
          315 82 callsubr
          309 77 hintmask 10111100
          159 547 6 callsubr
          hintmask 01111100
          -41 callsubr
        </CharString>
        <CharString name="five.oldstyle">
          -211 -206 40 -40 92 544 90 44 -20 hstemhm
          179 120 hintmask 10111000
          205 430 rmoveto
          170 hlineto
          80 123 -22 11 -42 -44 rlineto
          -186 hlineto
          -164 -317 rlineto
          96 -23 42 -45 -79 vvcurveto
          -111 -91 -111 -90 vhcurveto
          hintmask 01111000
          70 callsubr
          170 172 163 165 92 -55 64 -104 27 hvcurveto
          endchar
        </CharString>
        <CharString name="five.tnum">
          -48 66 callgsubr
          324 116 hintmask 10111100
          69 -37 callgsubr
        </CharString>
        <CharString name="fiveeighths">
          290 -10 37 -6 -21 315 32 -32 88 16 36 82 73 78 79 3 -20 41 -20 hstemhm
          321 77 129 34 callsubr
          hintmask 0110110111111000
          250 -61 callgsubr
          488 60 callgsubr
          hintmask 1010111011111000
          -36 callsubr
          hintmask 1010111011110100
          -51 callgsubr
          hintmask 1010111011111000
          -72 callsubr
          hintmask 1010111011110100
          -2 callgsubr
          -565 275 6 callsubr
          hintmask 1001111011111000
          -41 callsubr
        </CharString>
        <CharString name="fiveinferior">
          -284 -161 78 callsubr
          132 86 hintmask 10111100
          -35 96 -30 callgsubr
        </CharString>
        <CharString name="fivesuperior">
          -283 409 78 callsubr
          374 86 hintmask 10111100
          207 666 -30 callgsubr
        </CharString>
        <CharString name="florin">
          -80 -46 callsubr
          630 32 273 27 hstemhm
          632 93 hintmask 10111000
          578 830 rmoveto
          -107 -100 -63 -167 -55 hvcurveto
          -23 -70 rlineto
          -159 hlineto
          -8 -32 rlineto
          158 hlineto
          -101 -355 rlineto
          -272 -78 -68 -92 -52 hhcurveto
          hintmask 01111000
          -53 19 89 -68 hhcurveto
          -27 -15 -13 -22 -52 51 -37 68 139 105 140 319 99 hvcurveto
          91 295 rlineto
          167 hlineto
          9 32 rlineto
          -168 hlineto
          17 60 rlineto
          149 42 50 64 66 hhcurveto
          33 22 -16 -26 hvcurveto
          -10 -3 -9 -12 vvcurveto
          hintmask 10111000
          -30 24 -22 30 27 15 16 25 62 -74 49 -73 vhcurveto
          endchar
        </CharString>
        <CharString name="four">
          -92 21 -21 221 77 472 -20 hstem
          201 -13 callsubr
        </CharString>
        <CharString name="four.denominator">
          -287 0 178 -58 58 281 -20 hstemhm
          hintmask 10100000
          73 hmoveto
          -44 callgsubr
        </CharString>
        <CharString name="four.numerator">
          -288 321 178 -58 58 281 -20 hstemhm
          hintmask 10100000
          209 321 rmoveto
          -44 callgsubr
        </CharString>
        <CharString name="four.oldstyle">
          -89 -160 -21 191 90 440 -20 hstem
          141 -181 rmoveto
          101 hlineto
          62 191 rlineto
          113 hlineto
          30 90 rlineto
          -113 hlineto
          139 430 -22 10 -549 -513 2 -17 rlineto
          299 hlineto
          30 90 rmoveto
          -189 4 hlineto
          267 252 rlineto
          4 hlineto
          endchar
        </CharString>
        <CharString name="four.tnum">
          -48 21 -21 221 77 472 -20 hstem
          178 -13 callsubr
        </CharString>
        <CharString name="fourinferior">
          -261 -154 197 -64 64 313 -20 hstemhm
          hintmask 10100000
          23 -154 rmoveto
          90 hlineto
          hintmask 01100000
          17 callsubr
          hintmask 10100000
          56 callsubr
        </CharString>
        <CharString name="foursuperior">
          -259 416 197 -64 64 222 -20 111 -20 hstemhm
          hintmask 10110000
          266 416 rmoveto
          90 hlineto
          hintmask 01110000
          17 callsubr
          hintmask 10110000
          56 callsubr
        </CharString>
        <CharString name="fraction">
          -428 47 callgsubr
          hstem
          -95 -61 callgsubr
          endchar
        </CharString>
        <CharString name="g">
          -27 callgsubr
          hstemhm
          -115 88 36 78 -2 87 146 80 -22 89 -89 208 hintmask 1110011010100000
          -84 callsubr
          hintmask 1111001101000000
          -80 callgsubr
          hintmask 1110101100100000
          -24 callsubr
          hintmask 1111001100010000
          -64 callgsubr
          hintmask 1111001101000000
          8 callsubr
          endchar
        </CharString>
        <CharString name="gbreve">
          -27 callgsubr
          85 callgsubr
          -115 88 36 78 -2 87 131 45 -30 80 -22 89 -89 208 hintmask 1110011010110100
          -84 callsubr
          hintmask 1111001011001000
          -80 callgsubr
          hintmask 1110101011010100
          -24 callsubr
          hintmask 1111001011010010
          -64 callgsubr
          hintmask 1111000111001000
          8 callsubr
          170 1016 rmoveto
          hintmask 1111000111010100
          -85 callsubr
          hintmask 1111001011010100
          -17 callgsubr
          hintmask 1111000111010100
          -30 callsubr
        </CharString>
        <CharString name="gcircumflex">
          -27 callgsubr
          93 callsubr
          -115 88 36 78 -2 87 146 80 -22 89 -89 208 hintmask 1110011101010000
          -84 callsubr
          hintmask 1111001110100000
          -80 callgsubr
          hintmask 1110101110010000
          -24 callsubr
          hintmask 1111001110001000
          -64 callgsubr
          hintmask 1111001110100000
          8 callsubr
          336 1083 -99 callsubr
        </CharString>
        <CharString name="gcommaaccent">
          -27 callgsubr
          0 109 203 -20 hstemhm
          -115 88 36 78 -2 87 146 80 -47 114 -89 89 -89 208 hintmask 1110010110100100
          -84 callsubr
          hintmask 1111000111010000
          -80 callgsubr
          hintmask 1110100111001000
          -24 callsubr
          hintmask 1111000111000010
          -64 callgsubr
          hintmask 1111000111010000
          8 callsubr
          295 980 rmoveto
          -19 4 -4 1 7 vvcurveto
          16 33 31 41 20 vhcurveto
          -15 19 rlineto
          hintmask 1110001111001000
          -78 -43 -45 -53 -51 vvcurveto
          -36 18 -20 32 45 21 24 37 24 -10 15 -19 5 vhcurveto
          endchar
        </CharString>
        <CharString name="gdotaccent">
          -27 callgsubr
          77 callsubr
          hstemhm
          -115 88 36 78 -2 87 146 80 -66 133 -89 89 -89 208 hintmask 1110011101001000
          -84 callsubr
          hintmask 1111001110100000
          -80 callgsubr
          hintmask 1110101110010000
          -24 callsubr
          hintmask 1111001110000100
          -64 callgsubr
          hintmask 1111001110100000
          8 callsubr
          262 1006 rmoveto
          hintmask 1111001110010000
          -105 callgsubr
          endchar
        </CharString>
        <CharString name="germandbls">
          21 -197 35 -35 124 63 31 -31 138 675 27 hstemhm
          346 85 106 36 -36 87 hintmask 10101101
          346 394 rmoveto
          -120 130 -72 -93 vvcurveto
          -51 -39 -37 -56 vhcurveto
          hintmask 10011110
          -94 44 107 -70 hhcurveto
          -27 -18 -16 -25 -52 76 -45 89 107 85 65 82 hvcurveto
          106 -142 72 116 vvcurveto
          hintmask 10101101
          136 193 18 126 vvcurveto
          71 -62 48 -91 -121 -102 -86 -144 -51 vhcurveto
          -164 -457 rlineto
          -247 -89 -33 -58 -52 hhcurveto
          hintmask 01101101
          -65 34 89 -73 hhcurveto
          -29 -15 -14 -28 -50 49 -32 75 132 79 99 301 111 hvcurveto
          142 387 rlineto
          150 55 50 63 65 hhcurveto
          44 24 -31 -57 hvcurveto
          -165 -191 -10 -146 vvcurveto
          endchar
        </CharString>
        <CharString name="grave">
          -529 657 -21 221 -20 hstem
          10 92 vstem
          96 642 -63 callgsubr
        </CharString>
        <CharString name="grave.cap">
          -411 837 -21 144 -20 hstem
          227 837 rmoveto
          -104 91 rlineto
          -63 callsubr
        </CharString>
        <CharString name="greater">
          -66 142 -21 440 -20 hstem
          547 18 callsubr
        </CharString>
        <CharString name="greater.tnum">
          -48 142 -21 440 -20 hstem
          506 18 callsubr
        </CharString>
        <CharString name="guillemotleft">
          -170 74 -21 383 -20 hstem
          125 64 5 callsubr
          196 11 5 callsubr
          endchar
        </CharString>
        <CharString name="guillemotright">
          -172 74 -21 383 -20 hstem
          305 425 4 callsubr
          -196 -11 4 callsubr
          endchar
        </CharString>
        <CharString name="guilsinglleft">
          -346 74 -21 383 -20 hstem
          125 64 5 callsubr
          endchar
        </CharString>
        <CharString name="guilsinglright">
          -348 74 -21 383 -20 hstem
          129 425 4 callsubr
          endchar
        </CharString>
        <CharString name="h">
          79 callsubr
          hstemhm
          448 89 hintmask 01111000
          -35 hmoveto
          -64 callsubr
          hintmask 10111000
          -81 callgsubr
          190 438 rlineto
          -191 hlineto
          2 -15 76 -12 rlineto
          endchar
        </CharString>
        <CharString name="hbar">
          -53 -10 59 -28 -21 505 34 123 42 -42 158 hstemhm
          448 89 hintmask 01110100
          -35 hmoveto
          -64 callsubr
          hintmask 10110100
          -81 callgsubr
          121 280 rlineto
          111 hlineto
          18 42 rlineto
          -111 hlineto
          hintmask 10101100
          51 116 rlineto
          -191 hlineto
          2 -15 76 -12 rlineto
          hintmask 01110100
          -37 -89 rlineto
          -77 hlineto
          -17 -42 rlineto
          77 hlineto
          endchar
        </CharString>
        <CharString name="hcircumflex">
          79 callsubr
          57 -20 hstemhm
          448 89 hintmask 01111100
          -35 hmoveto
          -64 callsubr
          hintmask 10111100
          -81 callgsubr
          190 438 rlineto
          -191 hlineto
          2 -15 76 -12 rlineto
          hintmask 01111100
          298 64 -99 callsubr
        </CharString>
        <CharString name="hdotbelow">
          -53 0 callsubr
          59 -28 -21 505 34 281 -20 hstemhm
          33 137 278 89 hintmask 10111110
          -35 hmoveto
          -64 callsubr
          hintmask 11011110
          -81 callgsubr
          190 438 rlineto
          -191 hlineto
          2 -15 76 -12 rlineto
          hintmask 10111110
          -187 -924 12 callsubr
          endchar
        </CharString>
        <CharString name="hungarumlaut">
          -268 652 -21 226 -20 hstem
          28 631 -53 callsubr
        </CharString>
        <CharString name="hungarumlaut.cap">
          -198 842 -21 143 -20 21 -20 hstemhm
          hintmask 11000000
          219 821 45 callgsubr
          -18 callsubr
          hintmask 10100000
          24 -21 -16 callgsubr
          endchar
        </CharString>
        <CharString name="hyphen">
          35 callsubr
        </CharString>
        <CharString name="i">
          47 callsubr
          77 callsubr
          hstem
          234 137 vstem
          307 5 callgsubr
          -80 -240 -107 callsubr
          endchar
        </CharString>
        <CharString name="iacute">
          47 callsubr
          317 -20 hstem
          227 540 -107 callsubr
          61 91 -97 callgsubr
          endchar
        </CharString>
        <CharString name="ibreve">
          47 callsubr
          85 callgsubr
          184 45 -45 108 hintmask 11010100
          227 540 -107 callsubr
          -33 250 rmoveto
          -85 callsubr
          hintmask 11100100
          -17 callgsubr
          hintmask 11011000
          -30 callsubr
        </CharString>
        <CharString name="icircumflex">
          47 callsubr
          317 -20 hstem
          227 540 -107 callsubr
          123 317 -99 callsubr
        </CharString>
        <CharString name="idieresis">
          47 callsubr
          129 111 hstem
          325 122 vstem
          227 540 -107 callsubr
          -12 240 rmoveto
          -102 callgsubr
        </CharString>
        <CharString name="idotbelow">
          0 callsubr
          86 callgsubr
          77 callsubr
          hstem
          -61 137 158 137 vstem
          307 5 callgsubr
          -80 -240 -107 callsubr
          -215 -671 12 callsubr
          endchar
        </CharString>
        <CharString name="igrave">
          47 callsubr
          317 -20 hstem
          246 92 vstem
          227 540 -107 callsubr
          105 102 -63 callgsubr
        </CharString>
        <CharString name="ij">
          -2 -46 callsubr
          122 86 callgsubr
          77 callsubr
          hstemhm
          234 137 146 107 -55 134 hintmask 10111110
          307 5 callgsubr
          -80 -240 -107 callsubr
          334 hmoveto
          -76 callgsubr
          hhcurveto
          hintmask 01111110
          -90 callgsubr
          30 -21 18 -42 vhcurveto
          79 240 rmoveto
          hintmask 10111101
          -16 callsubr
          32 -27 26 -36 hvcurveto
          endchar
        </CharString>
        <CharString name="imacron">
          47 callsubr
          169 71 hstem
          227 540 -107 callsubr
          197 169 -49 callsubr
        </CharString>
        <CharString name="iogonek">
          -256 55 696 45 77 callsubr
          hstem
          -95 97 232 137 vstem
          104 -48 callsubr
          41 46 71 99 62 hvcurveto
          39 25 48 38 41 52 -20 12 rcurveline
          -64 -65 -21 -16 -19 hhcurveto
          -12 -8 8 11 4 1 4 2 5 hvcurveto
          143 344 rlineto
          10 24 6 23 19 vvcurveto
          32 -27 17 -38 -53 -65 -34 -55 -45 vhcurveto
          23 68 callgsubr
          34 24 24 hhcurveto
          9 4 -3 -6 -4 -1 -6 -4 -9 hvcurveto
          -145 -356 rlineto
          -11 -26 -4 -22 -17 vvcurveto
          -35 21 -18 34 -2 vhcurveto
          -106 -65 -67 -74 37 callsubr
          198 978 12 callsubr
          endchar
        </CharString>
        <CharString name="itilde">
          47 callsubr
          142 87 callsubr
          227 540 -107 callsubr
          -80 143 -31 callsubr
          hintmask 11100100
          -89 callsubr
          hintmask 11001000
          -68 callsubr
        </CharString>
        <CharString name="j">
          -342 -46 callsubr
          624 48 77 callsubr
          hstemhm
          177 107 -55 134 hintmask 10111000
          221 540 3 callgsubr
          hintmask 01111000
          -90 callgsubr
          30 -21 18 -42 vhcurveto
          79 240 rmoveto
          hintmask 10110100
          -16 callsubr
          32 -27 26 -36 hvcurveto
          endchar
        </CharString>
        <CharString name="jcircumflex">
          -343 -256 35 713 48 317 -20 hstem
          177 107 vstem
          221 540 -78 callsubr
          -90 callgsubr
          30 -21 18 -42 vhcurveto
          124 317 -99 callsubr
        </CharString>
        <CharString name="k">
          -88 -10 43 -12 -21 496 44 280 -20 hstemhm
          426 100 hintmask 01111000
          222 805 rmoveto
          75 -12 -333 -793 rlineto
          100 8 callgsubr
          hintmask 10111000
          -66 callgsubr
          154 358 rlineto
          -191 hlineto
          75 -367 rmoveto
          -35 callsubr
        </CharString>
        <CharString name="kcommaaccent">
          -88 39 callsubr
          34 0 43 -12 -21 268 228 0 44 280 -20 hstemhm
          89 116 221 100 hintmask 1101101110000000
          222 805 rmoveto
          75 -12 -333 -793 rlineto
          100 8 callgsubr
          -69 33 34 -31 48 hhcurveto
          49 55 34 45 26 hvcurveto
          -20 11 rlineto
          hintmask 1010011110000000
          -31 -24 -23 -16 -21 hhcurveto
          -21 -13 20 58 -28 hvcurveto
          -68 143 rlineto
          143 39 120 96 76 vvcurveto
          48 -33 27 -61 -62 -68 -31 -47 -41 vhcurveto
          -4 hlineto
          154 358 rlineto
          -191 hlineto
          75 -367 rmoveto
          28 33 30 15 30 hhcurveto
          25 13 -13 -27 hvcurveto
          hintmask 1101101110000000
          -89 -117 -91 -133 -8 vhcurveto
          34 89 36 53 49 43 rrcurveto
          -177 -602 -95 callsubr
        </CharString>
        <CharString name="kgreenlandic">
          -72 -10 43 -12 -21 496 44 -10 -20 hstemhm
          442 100 hintmask 01101000
          115 515 rmoveto
          75 -12 -210 -503 rlineto
          100 8 callgsubr
          hintmask 10101000
          -66 callgsubr
          hintmask 10011000
          31 68 rlineto
          -191 hlineto
          198 -77 rmoveto
          hintmask 10101000
          -35 callsubr
        </CharString>
        <CharString name="l">
          -332 -10 59 771 -20 hstem
          -1 100 vstem
          -86 callsubr
          endchar
        </CharString>
        <CharString name="lacute">
          -332 -10 59 721 -20 220 -20 hstem
          -1 100 vstem
          196 755 rmoveto
          76 -12 -116 -277 rlineto
          -140 -334 -17 -44 -36 vvcurveto
          -38 19 -24 32 54 76 45 82 67 vhcurveto
          -22 12 rlineto
          -68 -64 -25 -12 -16 hhcurveto
          -10 -11 7 11 23 17 39 76 176 hvcurveto
          200 465 rlineto
          -198 hlineto
          137 56 -93 callsubr
        </CharString>
        <CharString name="lcaron">
          -332 -10 59 771 -20 57 -20 hstem
          -1 100 vstem
          -86 callsubr
          247 -178 -34 callgsubr
        </CharString>
        <CharString name="lcommaaccent">
          -332 -236 -21 203 44 830 -20 hstemhm
          -60 116 -57 100 hintmask 11101000
          -86 callsubr
          -246 -979 -79 callsubr
          hintmask 11110000
          78 43 45 53 51 vvcurveto
          36 -18 20 -32 -45 -21 -24 -37 -24 10 -15 19 -5 vhcurveto
          endchar
        </CharString>
        <CharString name="ldot">
          -195 -10 59 188 147 436 -20 hstem
          -1 100 191 161 vstem
          -86 callsubr
          161 -436 rmoveto
          11 callgsubr
        </CharString>
        <CharString name="less">
          -59 137 -21 440 -20 hstem
          474 19 callgsubr
        </CharString>
        <CharString name="less.tnum">
          -48 137 -21 440 -20 hstem
          503 19 callgsubr
        </CharString>
        <CharString name="logicalnot">
          -14 168 -21 117 44 hstem
          452 51 vstem
          452 147 rmoveto
          51 161 -410 -44 359 hlineto
          endchar
        </CharString>
        <CharString name="lslash">
          -297 -10 59 771 -20 hstem
          29 100 vstem
          247 805 rmoveto
          76 -12 -168 -401 -148 -70 rlineto
          -48 vlineto
          123 58 rlineto
          -89 -213 -12 -37 -30 vvcurveto
          -38 19 -24 32 54 76 45 82 67 vhcurveto
          -22 12 rlineto
          -68 -64 -25 -12 -16 hhcurveto
          -10 -11 7 11 23 17 39 76 176 hvcurveto
          38 89 141 67 2 49 -117 -56 157 366 rlineto
          -198 hlineto
          endchar
        </CharString>
        <CharString name="m">
          243 90 callsubr
          294 174 0 80 0 187 0 86 hintmask 10100101
          521 382 rmoveto
          18 30 9 28 26 vvcurveto
          48 -29 25 -53 -72 -61 -46 -113 -79 vhcurveto
          -5 2 rlineto
          hintmask 10011010
          32 57 13 35 26 vvcurveto
          28 -15 12 -33 -64 -74 -44 -70 -51 vhcurveto
          20 -16 rlineto
          50 38 43 35 24 hhcurveto
          9 6 -5 -8 -7 -4 -13 -7 -16 hvcurveto
          -192 -446 rlineto
          97 hlineto
          90 194 rlineto
          hintmask 10101001
          182 84 106 129 65 hhcurveto
          20 12 -12 -18 -12 -5 -18 -8 -18 hvcurveto
          -196 -427 rlineto
          108 hlineto
          92 207 rlineto
          166 73 110 132 63 hhcurveto
          18 12 -12 -18 -12 -5 -17 -9 -19 hvcurveto
          -125 -269 rlineto
          -24 -53 -12 -37 -26 vvcurveto
          hintmask 01101010
          -34 21 -18 39 62 70 47 87 68 vhcurveto
          -21 15 rlineto
          hintmask 10101001
          -55 -48 -45 -35 -22 hhcurveto
          -10 -5 5 10 8 5 14 16 35 hvcurveto
          107 239 rlineto
          17 37 7 26 28 vvcurveto
          57 -30 31 -57 -72 -65 -49 -110 -72 vhcurveto
          endchar
        </CharString>
        <CharString name="macron">
          -313 709 71 hstem
          296 709 -49 callsubr
        </CharString>
        <CharString name="macron.cap">
          -313 857 71 hstem
          296 857 -49 callsubr
        </CharString>
        <CharString name="minus">
          -39 315 49 hstem
          524 315 29 callsubr
        </CharString>
        <CharString name="minus.tnum">
          -48 315 49 hstem
          505 315 29 callsubr
        </CharString>
        <CharString name="mu">
          20 89 callsubr
          -95 78 callgsubr
          24 -62 callgsubr
        </CharString>
        <CharString name="multiply">
          -95 181 -21 357 -20 hstem
          110 -4 callgsubr
        </CharString>
        <CharString name="multiply.tnum">
          -48 181 -21 357 -20 hstem
          122 -4 callgsubr
        </CharString>
        <CharString name="n">
          -19 90 callsubr
          294 189 0 87 hintmask 10011000
          246 -90 callsubr
          hintmask 01100100
          -92 callgsubr
          hintmask 10100100
          -92 callsubr
          hintmask 10011000
          26 callgsubr
          54 callsubr
          endchar
        </CharString>
        <CharString name="nacute">
          -19 -6 callgsubr
          337 -20 hstemhm
          294 189 hintmask 10011100
          246 -90 callsubr
          hintmask 01101100
          -92 callgsubr
          hintmask 10101100
          -92 callsubr
          26 callgsubr
          hintmask 10011100
          54 callsubr
          177 91 -97 callgsubr
          endchar
        </CharString>
        <CharString name="napostrophe">
          144 -6 callgsubr
          337 -20 hstemhm
          219 117 -54 54 310 87 hintmask 10011101
          409 -90 callsubr
          hintmask 01101101
          -92 callgsubr
          hintmask 10101101
          -92 callsubr
          26 callgsubr
          hintmask 10011011
          54 callsubr
          -151 212 21 callgsubr
          hintmask 10101101
          75 callgsubr
        </CharString>
        <CharString name="ncaron">
          -19 0 49 -38 -21 515 34 0 89 -88 -20 337 -20 61 callgsubr
          hintmask 10001110
          246 -90 callsubr
          hintmask 01100101
          -92 callgsubr
          hintmask 10010101
          -92 callsubr
          hintmask 10001110
          26 callgsubr
          54 callsubr
          hintmask 10010110
          194 88 -87 callgsubr
        </CharString>
        <CharString name="ncommaaccent">
          -19 39 callsubr
          44 90 callsubr
          122 116 245 87 hintmask 11000111
          246 -90 callsubr
          hintmask 10011011
          -92 callgsubr
          hintmask 10101011
          -92 callsubr
          26 callgsubr
          hintmask 11000111
          54 callsubr
          -95 -689 -95 callsubr
        </CharString>
        <CharString name="ndotaccent">
          -19 -6 callgsubr
          135 125 hstemhm
          294 189 -74 137 -63 87 hintmask 10011100
          246 -90 callsubr
          hintmask 01101001
          -92 callgsubr
          hintmask 10101001
          -92 callsubr
          hintmask 10011100
          26 callgsubr
          54 callsubr
          236 240 rmoveto
          hintmask 10101010
          -105 callgsubr
          endchar
        </CharString>
        <CharString name="nine">
          -70 11 -21 281 44 422 43 hstem
          122 112 262 102 vstem
          91 -35 callgsubr
        </CharString>
        <CharString name="nine.denominator">
          -269 11 -21 163 38 229 33 hstem
          23 85 150 70 vstem
          18 -10 -25 callsubr
        </CharString>
        <CharString name="nine.numerator">
          -268 338 -21 163 38 229 33 hstem
          162 85 150 70 vstem
          157 317 -25 callsubr
        </CharString>
        <CharString name="nine.oldstyle">
          -107 -176 -21 293 57 347 40 hstem
          28 117 241 110 vstem
          350 -15 callgsubr
          -166 -156 -149 -158 -88 46 -49 81 52 55 20 32 33 hvcurveto
          3 -2 -71 -134 -124 -99 -184 -78 rlinecurve
          10 -32 rlineto
          322 92 245 250 236 vvcurveto
          106 -48 53 -98 vhcurveto
          -26 -40 rmoveto
          39 23 -30 -51 -53 -30 -92 -39 -67 hvcurveto
          -35 -31 -37 -19 -35 hhcurveto
          -44 -25 29 52 148 99 118 80 hvcurveto
          endchar
        </CharString>
        <CharString name="nine.tnum">
          -48 11 -21 281 44 422 43 hstem
          24 112 262 102 vstem
          -7 -35 callgsubr
        </CharString>
        <CharString name="nineinferior">
          -242 -140 -21 180 44 255 36 hstem
          -32 97 161 81 vstem
          -38 -161 -26 callgsubr
        </CharString>
        <CharString name="ninesuperior">
          -241 430 -21 180 44 255 36 hstem
          210 97 161 81 vstem
          204 409 -26 callgsubr
        </CharString>
        <CharString name="ntilde">
          -19 -6 callgsubr
          162 -32 callgsubr
          294 189 0 87 hintmask 1001100110000000
          246 -90 callsubr
          hintmask 0110100101000000
          -92 callgsubr
          hintmask 1010100101000000
          -92 callsubr
          hintmask 1001010110000000
          26 callgsubr
          54 callsubr
          64 143 -31 callsubr
          hintmask 1010100110000000
          -89 callsubr
          hintmask 1010001010000000
          -68 callsubr
        </CharString>
        <CharString name="numbersign">
          19 65 callsubr
          555 -58 callgsubr
        </CharString>
        <CharString name="numbersign.tnum">
          -48 65 callsubr
          480 -58 callgsubr
        </CharString>
        <CharString name="o">
          26 callsubr
          hstem
          13 91 322 89 vstem
          -103 callsubr
          endchar
        </CharString>
        <CharString name="oacute">
          26 callsubr
          317 -20 hstem
          13 91 322 89 vstem
          460 631 rmoveto
          162 119 rlineto
          36 26 14 19 20 vvcurveto
          24 -21 18 -28 -23 -20 -14 -30 -20 vhcurveto
          -116 -171 rlineto
          -283 -652 -101 callsubr
          endchar
        </CharString>
        <CharString name="obreve">
          26 callsubr
          85 callgsubr
          13 91 242 45 35 89 hintmask 11011110
          -103 callsubr
          -22 285 rmoveto
          -85 callsubr
          hintmask 11101110
          -17 callgsubr
          hintmask 11011110
          -30 callsubr
        </CharString>
        <CharString name="ocircumflex">
          26 callsubr
          317 -20 hstem
          13 91 322 89 vstem
          -103 callsubr
          144 352 -99 callsubr
        </CharString>
        <CharString name="odieresis">
          26 callsubr
          129 111 hstemhm
          13 91 185 122 15 89 -51 122 hintmask 11111100
          -103 callsubr
          -24 275 36 callgsubr
          hintmask 11111010
          -86 callgsubr
        </CharString>
        <CharString name="odotbelow">
          -91 0 callsubr
          35 480 35 hstemhm
          -28 132 -91 91 322 89 hintmask 11101100
          -103 callsubr
          -333 -636 rmoveto
          hintmask 11110100
          -105 callgsubr
          endchar
        </CharString>
        <CharString name="oe">
          181 -10 35 480 35 hstem
          13 91 654 80 vstem
          742 -15 callgsubr
          -77 -85 -44 -64 -72 hvcurveto
          68 -17 -49 40 -76 hhcurveto
          -166 -187 -207 -178 -102 53 -63 95 64 68 31 49 59 hvcurveto
          -52 17 42 -28 63 hhcurveto
          85 86 52 103 82 hvcurveto
          -22 14 rlineto
          -23 callgsubr
          -39 -19 21 46 38 13 49 27 56 hvcurveto
          2 1 1 1 2 vhcurveto
          4 9 5 10 6 10 rrcurveto
          200 35 140 83 84 vvcurveto
          43 -37 26 -59 vhcurveto
          -364 -35 rmoveto
          34 14 -23 -45 -148 -177 -264 -100 -32 -13 25 48 156 168 251 106 hvcurveto
          174 -144 36 callsubr
        </CharString>
        <CharString name="ogonek">
          -380 -256 55 212 -20 hstem
          10 97 vstem
          209 -48 callsubr
          42 55 67 96 74 hvcurveto
          -38 hlineto
          -128 -69 -82 -84 -62 -43 callsubr
          endchar
        </CharString>
        <CharString name="ograve">
          26 callsubr
          93 callsubr
          13 91 284 92 -54 89 hintmask 11110100
          -103 callsubr
          96 137 12 callgsubr
        </CharString>
        <CharString name="ohungarumlaut">
          26 callsubr
          317 -20 hstem
          13 91 322 89 vstem
          -103 callsubr
          -39 126 -53 callsubr
        </CharString>
        <CharString name="omacron">
          26 callsubr
          169 71 hstem
          13 91 322 89 vstem
          -103 callsubr
          196 204 -49 callsubr
        </CharString>
        <CharString name="one">
          -219 21 -21 780 -20 hstem
          -46 1 callgsubr
        </CharString>
        <CharString name="one.denominator">
          -351 21 -21 459 -20 hstem
          -69 hmoveto
          33 callgsubr
          -59 callgsubr
          endchar
        </CharString>
        <CharString name="one.numerator">
          -351 342 -21 459 -20 hstem
          68 28 callsubr
          -59 callgsubr
          endchar
        </CharString>
        <CharString name="one.oldstyle">
          -204 21 -21 540 -20 hstem
          377 -15 callgsubr
          -72 -48 -49 -21 -147 -23 -10 -26 rcurveline
          148 hlineto
          -143 -375 -159 -20 -10 -27 rlineto
          375 hlineto
          10 27 -111 20 186 485 rlineto
          endchar
        </CharString>
        <CharString name="one.tnum">
          -48 21 -21 780 -20 hstem
          -1 1 callgsubr
        </CharString>
        <CharString name="oneeighth">
          260 -10 37 -6 -21 419 36 315 -20 30 -20 hstemhm
          497 34 callsubr
          hintmask 0111011100000000
          238 -61 callgsubr
          -83 23 callgsubr
          hintmask 1010111100000000
          -59 callgsubr
          545 -102 33 callsubr
          -36 callsubr
          hintmask 1011011010000000
          -51 callgsubr
          hintmask 1011011100000000
          -72 callsubr
          hintmask 1011011010000000
          -2 callgsubr
          endchar
        </CharString>
        <CharString name="onehalf">
          277 0 77 342 40 311 -20 30 -20 hstemhm
          766 89 hintmask 11101000
          224 -61 callgsubr
          -68 23 callgsubr
          hintmask 11011000
          -59 callgsubr
          476 -265 -75 callsubr
        </CharString>
        <CharString name="oneinferior">
          -293 -133 -21 511 -20 hstem
          -110 -154 4 callgsubr
        </CharString>
        <CharString name="onequarter">
          230 0 178 -58 58 592 -20 30 -20 hstemhm
          hintmask 10100000
          244 -61 callgsubr
          -89 23 callgsubr
          hintmask 10010000
          -59 callgsubr
          492 -342 rmoveto
          -44 callgsubr
        </CharString>
        <CharString name="onesuperior">
          -293 437 -21 511 -20 hstem
          131 416 4 callgsubr
        </CharString>
        <CharString name="onethird">
          261 91 callgsubr
          -39 39 315 -20 30 -20 hstemhm
          715 72 callgsubr
          hintmask 0011010100000000
          224 -61 callgsubr
          -68 23 callgsubr
          hintmask 1001001100000000
          -59 callgsubr
          518 -138 -20 callsubr
          hintmask 0101010010000000
          -54 callsubr
          hintmask 1000110001000000
          -74 callgsubr
          endchar
        </CharString>
        <CharString name="oogonek">
          -91 -256 55 191 35 480 35 hstemhm
          -59 97 -25 91 322 89 hintmask 11110100
          140 -48 callsubr
          38 45 59 79 65 hvcurveto
          165 1 188 205 180 vvcurveto
          101 -54 63 -95 vhcurveto
          hintmask 11101100
          -166 -187 -207 -178 -87 38 -59 70 -15 hvcurveto
          hintmask 11110100
          -111 -65 -69 -76 74 callsubr
          233 703 rmoveto
          34 14 -23 -45 -148 -177 -264 -100 hvcurveto
          hintmask 11101100
          -32 -13 25 48 156 168 251 106 hvcurveto
          endchar
        </CharString>
        <CharString name="ordfeminine">
          -173 422 38 290 30 -6 -20 hstemhm
          156 74 0 123 -123 208 hintmask 11010000
          407 780 rmoveto
          -111 -140 -154 -118 -54 31 -32 51 43 40 32 74 51 hvcurveto
          3 -2 rlineto
          hintmask 10101000
          -17 -28 -5 -19 -19 vvcurveto
          -25 15 -13 31 31 46 28 55 49 vhcurveto
          -18 14 rlineto
          -41 -37 -22 -17 -13 hhcurveto
          -6 -4 4 8 5 1 6 5 16 hvcurveto
          112 274 rlineto
          -71 hlineto
          hintmask 11000100
          -11 -24 rlineto
          22 -15 -15 8 -24 hhcurveto
          -153 -320 rmoveto
          -18 -6 12 26 86 116 166 62 16 14 -13 -20 -12 -1 -14 -13 -30 hvcurveto
          -110 -50 -78 -91 -42 hhcurveto
          endchar
        </CharString>
        <CharString name="ordmasculine">
          -226 422 33 292 33 hstem
          163 69 210 68 vstem
          267 422 rmoveto
          115 128 133 118 66 -40 41 -64 -115 -128 -133 -118 -66 40 -41 64 hvcurveto
          144 325 rmoveto
          20 11 -14 -28 -91 -115 -159 -65 -20 -10 15 30 96 109 151 70 hvcurveto
          endchar
        </CharString>
        <CharString name="oslash">
          91 callsubr
          hstemhm
          hintmask 10010000
          161 -10 rmoveto
          165 189 206 180 34 -6 29 -12 25 hvcurveto
          69 66 rlineto
          -55 hlineto
          -35 -34 rlineto
          hintmask 01100000
          18 callgsubr
          hintmask 10100000
          -21 callsubr
        </CharString>
        <CharString name="oslashacute">
          91 callsubr
          347 -20 hstemhm
          hintmask 10011000
          -8 callsubr
          34 -6 29 -12 25 hvcurveto
          69 66 rlineto
          -55 hlineto
          -35 -34 rlineto
          hintmask 01101000
          18 callgsubr
          hintmask 10101000
          -21 callsubr
        </CharString>
        <CharString name="otilde">
          26 callsubr
          142 -32 callgsubr
          13 91 322 89 hintmask 11010111
          -103 callsubr
          -92 178 -31 callsubr
          hintmask 11100111
          -89 callsubr
          hintmask 11001011
          -68 callsubr
        </CharString>
        <CharString name="p">
          -82 -229 -21 880 -20 hstem
          411 104 vstem
          238 619 rmoveto
          -35 -86 -47 -7 -44 -17 -33 -23 rlinecurve
          8 -20 23 16 35 13 47 8 rlinecurve
          -310 -726 1 callsubr
          18 19 -1 15 hhcurveto
          193 187 156 182 101 -76 77 -137 14 hvcurveto
          36 90 rlineto
          -54 -133 rmoveto
          9 4 6 2 13 hhcurveto
          60 44 -49 -90 -170 -143 -160 -148 -8 -6 0 1 -12 hvcurveto
          endchar
        </CharString>
        <CharString name="paragraph">
          -83 73 callsubr
          314 -29 callgsubr
        </CharString>
        <CharString name="paragraph.tnum">
          -48 73 callsubr
          289 -29 callgsubr
        </CharString>
        <CharString name="parenleft">
          -330 -179 -21 1030 -20 hstem
          18 75 vstem
          117 -187 rmoveto
          -11 38 -13 58 79 vvcurveto
          288 165 332 199 212 vhcurveto
          -8 10 rlineto
          -226 -151 -205 -321 -283 vvcurveto
          -127 40 -89 39 -59 vhcurveto
          endchar
        </CharString>
        <CharString name="parenright">
          -319 -179 -21 1030 -20 hstem
          232 78 vstem
          -93 -200 rmoveto
          137 105 266 259 366 vvcurveto
          135 -39 112 -47 53 vhcurveto
          -14 -10 rlineto
          12 -37 10 -68 -85 vvcurveto
          -408 -246 -312 -91 -97 vhcurveto
          endchar
        </CharString>
        <CharString name="percent">
          313 22 callgsubr
          129 88 207 87 14 88 207 87 hintmask 0111011111000000
          275 -61 callgsubr
          16 38 callgsubr
          hintmask 1011101111000000
          -45 callgsubr
          endchar
        </CharString>
        <CharString name="percent.tnum">
          202 22 callgsubr
          35 88 207 87 17 88 207 87 hintmask 0111011111000000
          188 -61 callgsubr
          9 38 callgsubr
          hintmask 1011101111000000
          77 -33 39 -68 -141 -140 -175 -175 -79 29 -36 65 vhcurveto
          27 36 rmoveto
          -23 -10 21 43 136 102 193 70 24 11 -21 -44 -136 -103 -192 -71 hvcurveto
          372 -361 -67 callgsubr
        </CharString>
        <CharString name="period">
          -366 -10 147 hstem
          -32 161 vstem
          54 40 callsubr
          endchar
        </CharString>
        <CharString name="period.tnum">
          -348 -10 147 hstem
          20 161 vstem
          106 40 callsubr
          endchar
        </CharString>
        <CharString name="periodcentered">
          -350 237 147 hstem
          72 161 vstem
          158 384 rmoveto
          11 callgsubr
        </CharString>
        <CharString name="periodcentered.tnum">
          -348 237 147 hstem
          20 161 vstem
          106 384 rmoveto
          11 callgsubr
        </CharString>
        <CharString name="perthousand">
          715 22 callgsubr
          129 88 207 87 14 88 207 87 22 88 207 87 hintmask 0111011111110000
          275 -61 callgsubr
          16 38 callgsubr
          hintmask 1011101111110000
          -45 callgsubr
          377 -36 -67 callgsubr
        </CharString>
        <CharString name="plus">
          -136 155 -21 181 49 180 -20 hstem
          247 51 vstem
          247 134 -19 callgsubr
          endchar
        </CharString>
        <CharString name="plus.tnum">
          -48 155 -21 181 49 180 -20 hstem
          275 51 vstem
          275 134 -19 callgsubr
          endchar
        </CharString>
        <CharString name="plusminus">
          -5 106 49 267 49 180 -20 hstem
          295 51 vstem
          295 241 -19 callgsubr
          230 -316 29 callsubr
        </CharString>
        <CharString name="plusminus.tnum">
          -48 106 49 267 49 180 -20 hstem
          275 51 vstem
          275 241 -19 callgsubr
          230 -316 29 callsubr
        </CharString>
        <CharString name="q">
          -77 -229 -21 240 39 callgsubr
          hstemhm
          -4 91 hintmask 11101000
          121 25 rmoveto
          -24 -10 16 35 143 203 289 102 27 15 -19 -31 2 hvcurveto
          -1 -20 -4 -19 -21 -47 rrcurveto
          -187 -86 -135 -160 -68 hhcurveto
          hintmask 11011000
          458 505 rmoveto
          -101 hlineto
          -18 -37 rlineto
          hintmask 11101000
          34 -19 -22 13 -39 hhcurveto
          -171 -213 -243 -188 -80 35 -39 67 72 58 44 118 86 hvcurveto
          2 -3 -156 -367 -116 -17 rlineto
          -15 288 18 vlineto
          -72 9 rlineto
          endchar
        </CharString>
        <CharString name="question">
          -165 -10 125 544 121 -33 33 hstemhm
          121 134 -63 82 187 77 hintmask 11010100
          184 -10 48 callsubr
          152 232 rmoveto
          hintmask 11001100
          -37 2 -25 26 39 123 264 46 179 vvcurveto
          90 -66 53 -110 -86 -60 -32 -45 -26 18 -18 26 vhcurveto
          hintmask 10101100
          65 -2 88 63 hhcurveto
          44 31 -34 -48 hvcurveto
          -154 -269 -55 -149 vvcurveto
          -69 48 -42 91 -2 vhcurveto
          endchar
        </CharString>
        <CharString name="questiondown">
          -183 -256 33 -33 121 550 125 hstemhm
          -98 77 188 82 -63 134 hintmask 10110100
          257 -15 callgsubr
          -39 -32 -31 -37 -33 24 -24 35 40 35 31 36 33 -28 25 -35 hvcurveto
          -152 -232 rmoveto
          hintmask 01111000
          37 -2 25 -26 -39 -123 -265 -46 -185 vvcurveto
          -90 66 -53 110 86 60 32 45 26 -18 18 -26 vhcurveto
          hintmask 10111000
          -65 2 -88 -63 hhcurveto
          -44 -31 34 48 hvcurveto
          154 270 61 149 vvcurveto
          69 -48 42 -91 2 vhcurveto
          endchar
        </CharString>
        <CharString name="quotedbl">
          -276 63 callsubr
          240 -21 callgsubr
        </CharString>
        <CharString name="quotedbl.tnum">
          -348 63 callsubr
          42 -21 callgsubr
        </CharString>
        <CharString name="quotedblbase">
          -184 -141 -21 290 -20 hstemhm
          -29 140 -57 57 52 140 -57 57 hintmask 11100100
          214 5 rmoveto
          -57 callgsubr
          hintmask 11011000
          -2 callsubr
          -192 hmoveto
          -57 callgsubr
          hintmask 11101000
          -2 callsubr
          endchar
        </CharString>
        <CharString name="quotedblleft">
          -193 62 callsubr
          201 57 -57 140 52 57 -57 140 hintmask 11101000
          290 663 rmoveto
          -14 callgsubr
          hintmask 11011000
          53 callsubr
          192 hmoveto
          -14 callgsubr
          hintmask 11100100
          53 callsubr
          endchar
        </CharString>
        <CharString name="quotedblright">
          -200 62 callsubr
          235 140 -57 57 52 140 -57 57 hintmask 11100100
          478 707 rmoveto
          -57 callgsubr
          hintmask 11011000
          -2 callsubr
          -192 hmoveto
          -57 callgsubr
          hintmask 11101000
          -2 callsubr
          endchar
        </CharString>
        <CharString name="quoteleft">
          -385 62 callsubr
          201 57 -57 140 hintmask 11100000
          290 663 rmoveto
          -14 callgsubr
          hintmask 11010000
          53 callsubr
          endchar
        </CharString>
        <CharString name="quoteright">
          -392 62 callsubr
          235 140 -57 57 hintmask 11010000
          286 707 rmoveto
          -57 callgsubr
          hintmask 11100000
          -2 callsubr
          endchar
        </CharString>
        <CharString name="quotesinglbase">
          -373 -142 -21 290 -20 hstemhm
          -27 140 -57 57 hintmask 11010000
          24 4 rmoveto
          -57 callgsubr
          hintmask 11100000
          -2 callsubr
          endchar
        </CharString>
        <CharString name="quotesingle">
          -428 63 callsubr
          240 545 rmoveto
          21 callsubr
        </CharString>
        <CharString name="quotesingle.tnum">
          -348 63 callsubr
          118 545 rmoveto
          21 callsubr
        </CharString>
        <CharString name="r">
          -193 21 -21 495 45 hstem
          -95 callgsubr
          endchar
        </CharString>
        <CharString name="racute">
          -193 21 -21 495 45 317 -20 hstem
          -95 callgsubr
          -83 91 -97 callgsubr
          endchar
        </CharString>
        <CharString name="rcaron">
          -193 21 -21 540 88 229 -20 hstem
          -95 callgsubr
          -76 88 -87 callgsubr
        </CharString>
        <CharString name="rcommaaccent">
          -193 39 callsubr
          44 495 45 hstem
          -40 116 vstem
          -95 callgsubr
          -449 -689 -95 callsubr
        </CharString>
        <CharString name="rdotbelow">
          -193 45 callsubr
          495 45 hstem
          -108 137 vstem
          -95 callgsubr
          -473 -671 12 callsubr
          endchar
        </CharString>
        <CharString name="registered">
          326 -10 48 561 33 100 48 hstem
          126 47 191 86 148 93 181 48 vstem
          126 385 rmoveto
          -218 179 -177 218 218 179 177 218 218 -179 177 -218 -218 -179 -177 -218 vhcurveto
          47 hmoveto
          192 158 155 192 192 157 -155 -192 -192 -157 -155 -192 -192 -158 155 192 vhcurveto
          152 227 rmoveto
          39 -12 rlineto
          -425 vlineto
          -39 -13 rlineto
          -19 183 19 vlineto
          -58 13 rlineto
          190 37 vlineto
          113 -222 rlineto
          136 19 hlineto
          -47 13 -107 199 rlineto
          68 17 41 40 62 vvcurveto
          90 -74 49 -106 vhcurveto
          -186 hlineto
          125 -33 rmoveto
          33 hlineto
          26 16 -3 -5 15 hvcurveto
          37 -13 21 -33 -46 vvcurveto
          -25 -7 -21 -18 -19 vhcurveto
          -22 -19 -28 -13 -54 hhcurveto
          -22 hlineto
          endchar
        </CharString>
        <CharString name="ring">
          -446 651 35 96 35 hstem
          10 38 106 38 vstem
          107 817 -52 callgsubr
          endchar
        </CharString>
        <CharString name="ring.cap">
          -474 830 36 66 38 hstem
          10 40 74 40 vstem
          92 970 -36 callgsubr
        </CharString>
        <CharString name="s">
          54 callgsubr
          hstemhm
          96 101 29 97 hintmask 10111000
          -49 callgsubr
          hintmask 01111000
          -48 callgsubr
          hintmask 10111000
          -33 callgsubr
          hvcurveto
          endchar
        </CharString>
        <CharString name="s_p">
          323 -229 -21 240 31 -31 138 -118 29 368 248 -144 29 85 64 callsubr
          96 101 29 97 -66 66 381 79 33 104 hintmask 1100011111101100
          280 -15 callgsubr
          -102 -82 67 callgsubr
          hintmask 1010011111011100
          10 callsubr
          hintmask 1100100111101100
          92 callsubr
          30 -28 22 -24 16 hvcurveto
          -42 28 -28 20 45 vvcurveto
          46 31 25 54 vhcurveto
          hintmask 1001011111011100
          80 42 -40 callsubr
          -17 -21 -38 -14 0 -20 1 -16 vhcurveto
          -10 -20 -27 7 callsubr
          -41 19 -39 37 -35 hvcurveto
          2 -11 -10 1 -12 hhcurveto
          409 -43 80 callgsubr
          70 callgsubr
          hvcurveto
          endchar
        </CharString>
        <CharString name="s_t">
          99 -10 31 -31 59 -59 138 279 248 -157 42 -29 29 -10 -20 115 64 callsubr
          96 101 29 97 -67 67 95 100 186 78 hintmask 1000010111110110
          280 -15 callgsubr
          -101 -83 67 callgsubr
          hintmask 0010010111101110
          10 callsubr
          hintmask 1001000011110110
          92 callsubr
          32 -32 22 -25 16 hvcurveto
          -39 25 -27 21 44 vvcurveto
          47 31 25 54 vhcurveto
          hintmask 1000001111110110
          81 41 48 callgsubr
          hintmask 0100100111110110
          -50 callgsubr
          hintmask 1000001111110110
          11 32 rlineto
          -89 hlineto
          53 153 22 callsubr
          -42 0 -4 -1 -4 vhcurveto
          hintmask 1001000011101110
          -10 -20 -26 7 callsubr
          -41 19 -39 37 -34 hvcurveto
          hintmask 1000010111110110
          1 -10 -10 1 -12 hhcurveto
          endchar
        </CharString>
        <CharString name="sacute">
          54 callgsubr
          93 callsubr
          96 101 29 97 hintmask 10111100
          -49 callgsubr
          hintmask 01111100
          -48 callgsubr
          hintmask 10111100
          -33 callgsubr
          hvcurveto
          30 91 -97 callgsubr
          endchar
        </CharString>
        <CharString name="scaron">
          -207 -10 31 490 29 76 callsubr
          96 101 29 97 hintmask 11011100
          -49 callgsubr
          -48 callgsubr
          -33 callgsubr
          hvcurveto
          hintmask 10111100
          41 88 -87 callgsubr
        </CharString>
        <CharString name="schwa">
          -162 -10 31 484 35 hstem
          -37 80 317 97 vstem
          59 -10 rmoveto
          177 221 231 184 86 -48 49 -82 -85 -86 -52 -103 -82 hvcurveto
          22 -14 rlineto
          79 59 85 55 62 hhcurveto
          39 19 -21 -46 -46 -19 -60 -38 -71 hvcurveto
          -200 -35 -140 -83 -84 vvcurveto
          -43 37 -26 59 vhcurveto
          190 179 rmoveto
          -85 -45 -74 -63 -55 hhcurveto
          -22 -10 10 20 69 114 84 124 24 hvcurveto
          endchar
        </CharString>
        <CharString name="scircumflex">
          54 callgsubr
          93 callsubr
          96 101 29 97 hintmask 10111100
          -49 callgsubr
          hintmask 01111100
          -48 callgsubr
          hintmask 10111100
          -33 callgsubr
          hvcurveto
          142 317 -99 callsubr
        </CharString>
        <CharString name="sdotbelow">
          -207 0 callsubr
          31 -31 138 279 133 -29 29 hstemhm
          -34 137 -7 101 29 97 hintmask 11001011
          -49 callgsubr
          hintmask 10110101
          -99 48 107 -71 hhcurveto
          -27 -18 -16 -24 -51 74 -47 88 110 85 64 82 hvcurveto
          hintmask 11001011
          102 -126 89 94 vvcurveto
          55 31 35 59 42 9 -11 -49 7 vhcurveto
          hintmask 11001101
          -33 callgsubr
          hvcurveto
          -242 -671 12 callsubr
          endchar
        </CharString>
        <CharString name="section">
          -64 43 callgsubr
          107 88 callsubr
          303 -70 callsubr
        </CharString>
        <CharString name="section.tnum">
          -48 43 callgsubr
          108 88 callsubr
          304 -70 callsubr
        </CharString>
        <CharString name="semicolon">
          -317 81 callgsubr
          4 156 -64 64 -37 161 hintmask 10100100
          209 501 -65 callgsubr
          -148 -501 rmoveto
          hintmask 11001000
          -34 callsubr
          hintmask 11010000
          19 callsubr
        </CharString>
        <CharString name="semicolon.tnum">
          -348 81 callgsubr
          20 156 -64 64 -37 161 hintmask 10100100
          225 501 -65 callgsubr
          -148 -501 rmoveto
          hintmask 11001000
          -34 callsubr
          hintmask 11010000
          19 callsubr
        </CharString>
        <CharString name="servicemark">
          160 462 30 -13 -21 75 -20 257 -20 26 -20 24 -20 hstemhm
          215 62 85 40 -40 57 64 26 229 62 hintmask 1011001101100000
          483 50 callsubr
          hintmask 0111001101100000
          55 callsubr
          hintmask 1011001101100000
          10 callgsubr
          hintmask 1010011011100000
          -169 37 rmoveto
          -56 -43 -36 -48 hvcurveto
          -107 147 13 -71 vvcurveto
          -24 -18 -15 -31 -44 -24 24 57 -16 vhcurveto
          -15 -2 7 -103 rlineto
          13 hlineto
          16 17 rlineto
          -14 23 19 -6 22 hhcurveto
          60 45 39 51 hvcurveto
          105 -142 -15 72 vvcurveto
          23 15 13 24 37 23 -21 -44 13 vhcurveto
          15 hlineto
          hintmask 1010101101100000
          -3 88 rlineto
          -13 hlineto
          -13 -21 rlineto
          hintmask 1010011101100000
          17 -18 -19 8 -24 hhcurveto
          endchar
        </CharString>
        <CharString name="seven">
          -128 11 -21 690 90 50 -20 hstem
          161 -15 callsubr
        </CharString>
        <CharString name="seven.denominator">
          -320 11 -21 373 78 29 -20 hstem
          29 324 -42 callgsubr
        </CharString>
        <CharString name="seven.numerator">
          -322 336 -21 373 78 29 -20 hstem
          165 649 -42 callgsubr
        </CharString>
        <CharString name="seven.oldstyle">
          -155 -175 -21 626 90 35 -20 hstem
          200 520 rmoveto
          5 28 -25 7 -137 -190 22 -11 89 76 rlineto
          276 hlineto
          -385 -463 rlineto
          -57 -69 -11 -16 -27 vvcurveto
          -33 19 -18 23 26 19 13 28 18 vhcurveto
          251 401 32 43 195 219 -4 12 rcurveline
          endchar
        </CharString>
        <CharString name="seven.tnum">
          -48 11 -21 690 90 50 -20 hstem
          65 -15 callsubr
        </CharString>
        <CharString name="seveneighths">
          296 -10 37 -6 -21 419 36 233 78 4 -20 45 -20 hstemhm
          531 34 callsubr
          hintmask 0110111110000000
          236 -61 callgsubr
          506 60 callgsubr
          hintmask 1011011110000000
          -36 callsubr
          hintmask 1011011101000000
          -51 callgsubr
          hintmask 1011011110000000
          -72 callsubr
          hintmask 1011011101000000
          -2 callgsubr
          -555 377 -42 callgsubr
        </CharString>
        <CharString name="seveninferior">
          -299 -140 -21 416 86 33 -20 hstem
          -23 212 -11 callsubr
        </CharString>
        <CharString name="sevensuperior">
          -299 430 -21 373 -20 63 86 33 -20 hstem
          219 782 -11 callsubr
        </CharString>
        <CharString name="six">
          -70 -10 43 422 44 281 -20 hstem
          53 102 262 112 vstem
          560 -37 callsubr
        </CharString>
        <CharString name="six.denominator">
          -270 -10 33 229 38 163 -20 hstem
          -15 70 150 85 vstem
          295 453 -24 callgsubr
        </CharString>
        <CharString name="six.numerator">
          -269 314 33 229 38 163 -20 hstem
          122 70 150 85 vstem
          432 777 -24 callgsubr
        </CharString>
        <CharString name="six.oldstyle">
          -93 -10 40 347 57 323 -20 hstem
          27 110 241 117 vstem
          173 -10 rmoveto
          166 156 149 158 88 -46 49 -81 -52 -55 -20 -32 -33 hvcurveto
          -3 2 75 146 130 110 194 85 rlinecurve
          -10 32 rlineto
          -334 -98 -253 -262 -248 vvcurveto
          -106 48 -53 98 vhcurveto
          26 40 rmoveto
          -39 -23 30 51 53 30 92 39 67 hvcurveto
          35 31 37 19 35 hhcurveto
          44 25 -29 -52 -148 -99 -118 -80 hvcurveto
          endchar
        </CharString>
</ttFont>
